<svg width="529" height="520" viewBox="0 0 529 520" fill="none" xmlns="http://www.w3.org/2000/svg">
<path d="M196.155 142.266L216.082 95.8439L236.009 49.422L255.051 5.06045C255.392 4.26532 256.514 4.24957 256.877 5.0348L277.425 49.422L298.915 95.8439L320.404 142.266M196.155 142.266L176.228 188.688L96.5214 374.376L60.8877 451.08L9 437.657L65.8889 515L255.935 412.089L443.481 515L482.866 451.08L521 468.978L482.866 394.83L469.112 418.481L458.485 437.657L427.852 374.376L341.894 188.688L320.404 142.266M196.155 142.266L217.522 192.63C217.865 193.437 219.005 193.444 219.358 192.642L240.016 145.704C240.367 144.908 241.496 144.908 241.847 145.704L262.534 192.709C262.883 193.501 264.004 193.507 264.361 192.718L285.575 145.819C285.942 145.008 287.106 145.044 287.421 145.876L304.862 191.895C305.205 192.8 306.504 192.739 306.761 191.807L320.404 142.266" stroke="#3D3D3D" stroke-width="7"/>
<path d="M236.009 49.422L254.167 7.12089C254.849 5.53064 257.092 5.49915 257.819 7.06961L277.425 49.422L256.561 47.1049L236.009 49.422Z" fill="#3D3D3D" stroke="#3D3D3D" stroke-width="7"/>
<path d="M183.418 238.731V233.112H207.799H232.18V236.851C232.18 248.233 224.571 258.211 213.594 261.222L213.09 261.36C208.817 262.533 204.298 262.471 200.058 261.182C190.174 258.177 183.418 249.062 183.418 238.731Z" stroke="#3D3D3D" stroke-width="7"/>
<path d="M255.936 240.083V233.112H293.757H331.579V240.461C331.579 254.421 323.857 267.234 311.514 273.755C300.589 279.526 287.456 279.533 276.492 273.836C263.913 267.3 255.936 254.259 255.936 240.083Z" stroke="#3D3D3D" stroke-width="7"/>
<path d="M232.18 233.112V234.31C232.18 240.375 228.069 245.669 222.193 247.171L221.554 247.334C219.512 247.856 217.363 247.782 215.361 247.12C210.847 245.626 207.799 241.407 207.799 236.652V233.112H232.18Z" fill="#3D3D3D"/>
<path d="M331.579 233.112V235.387C331.579 243.017 326.746 249.81 319.537 252.311C315.986 253.543 312.137 253.627 308.536 252.55L307.933 252.37C299.521 249.856 293.757 242.118 293.757 233.338V233.112H331.579Z" fill="#3D3D3D"/>
<path d="M232.18 233.112V234.31C232.18 240.375 228.069 245.669 222.193 247.171L221.554 247.334C219.512 247.856 217.363 247.782 215.361 247.12C210.847 245.626 207.799 241.407 207.799 236.652V233.112H232.18Z" stroke="#3D3D3D" stroke-width="7"/>
<path d="M331.579 233.112V235.387C331.579 243.017 326.746 249.81 319.537 252.311C315.986 253.543 312.137 253.627 308.536 252.55L307.933 252.37C299.521 249.856 293.757 242.118 293.757 233.338V233.112H331.579Z" stroke="#3D3D3D" stroke-width="7"/>
<path d="M60.8877 451.08L122.153 311.095H398.47L458.485 437.657L469.112 418.48L482.866 394.83L521 468.977L482.866 451.08L443.481 515L255.935 412.088L65.8889 515L9 437.657L60.8877 451.08Z" fill="#3D3D3D" stroke="#3D3D3D"/>
</svg>
