<svg width="512" height="512" viewBox="0 0 512 512" fill="none" xmlns="http://www.w3.org/2000/svg">
<rect width="512" height="512" fill="white"/>
<path d="M195.761 153.858L213.197 113.238L230.632 72.6192L247.184 34.0604C247.525 33.2653 248.647 33.2496 249.01 34.0348L266.872 72.6192L285.675 113.238L304.479 153.858M195.761 153.858L178.325 194.477L108.581 356.954L77.4017 424.07L32 412.325L81.7778 480L248.068 389.953L412.171 480L446.632 424.07L480 439.73L446.632 374.851L434.598 395.546L425.299 412.325L398.496 356.954L323.282 194.477L304.479 153.858M195.761 153.858L214.344 197.66C214.686 198.467 215.827 198.474 216.18 197.672L234.025 157.126C234.375 156.33 235.505 156.33 235.855 157.126L253.73 197.739C254.078 198.531 255.2 198.537 255.556 197.748L273.879 157.241C274.246 156.43 275.41 156.466 275.725 157.298L290.743 196.925C291.086 197.83 292.386 197.769 292.643 196.836L304.479 153.858" stroke="#3D3D3D" stroke-width="7"/>
<path d="M230.633 72.6192L246.3 36.1209C246.982 34.5306 249.226 34.4991 249.953 36.0696L266.872 72.6192L248.616 70.5918L230.633 72.6192Z" fill="#3D3D3D" stroke="#3D3D3D" stroke-width="7"/>
<path d="M184.615 238.265V233.349H205.949H227.282V236.62C227.282 246.579 220.624 255.31 211.019 257.945L210.579 258.066C206.839 259.091 202.886 259.037 199.176 257.909C190.527 255.281 184.615 247.305 184.615 238.265Z" stroke="#3D3D3D" stroke-width="7"/>
<path d="M248.068 239.448V233.349H281.162H314.256V239.779C314.256 251.994 307.499 263.206 296.699 268.911C287.14 273.961 275.649 273.967 266.055 268.982C255.048 263.263 248.068 251.852 248.068 239.448Z" stroke="#3D3D3D" stroke-width="7"/>
<path d="M227.283 233.349V234.396C227.283 239.703 223.686 244.336 218.544 245.65L217.985 245.793C216.198 246.249 214.318 246.184 212.566 245.605C208.616 244.298 205.949 240.607 205.949 236.446V233.349H227.283Z" fill="#3D3D3D"/>
<path d="M314.257 233.349V235.339C314.257 242.016 310.028 247.959 303.72 250.148C300.613 251.226 297.245 251.299 294.094 250.357L293.566 250.199C286.206 247.999 281.163 241.229 281.163 233.547V233.349H314.257Z" fill="#3D3D3D"/>
<path d="M227.283 233.349V234.396C227.283 239.703 223.686 244.336 218.544 245.65L217.985 245.793C216.198 246.249 214.318 246.184 212.566 245.605C208.616 244.298 205.949 240.607 205.949 236.446V233.349H227.283Z" stroke="#3D3D3D" stroke-width="7"/>
<path d="M314.257 233.349V235.339C314.257 242.016 310.028 247.959 303.72 250.148C300.613 251.226 297.245 251.299 294.094 250.357L293.566 250.199C286.206 247.999 281.163 241.229 281.163 233.547V233.349H314.257Z" stroke="#3D3D3D" stroke-width="7"/>
<path d="M77.4017 424.07L131.009 301.583H372.786L425.299 412.325L434.598 395.546L446.633 374.851L480 439.73L446.633 424.07L412.171 480L248.068 389.953L81.7778 480L32 412.325L77.4017 424.07Z" fill="#3D3D3D" stroke="#3D3D3D"/>
</svg>
