<svg width="584" height="632" viewBox="0 0 584 632" fill="none" xmlns="http://www.w3.org/2000/svg">
<path d="M241.089 153.221L258.989 8.78178C259.623 3.66675 266.645 2.74006 268.584 7.51548L317.488 127.943C327.068 151.534 358.625 155.847 374.185 135.692L420.966 75.0936C424.122 71.006 430.649 73.8021 429.866 78.9065L418.451 153.387C414.476 179.32 440.89 199.297 464.761 188.412L527.854 159.643C532.891 157.347 537.373 163.724 533.507 167.685L468.691 234.084C454.564 248.556 456.659 272.215 473.111 283.979L580.882 361.039C585.167 364.103 582.411 370.856 577.206 370.047L496.195 357.454C471.573 353.627 451.754 377.424 459.973 400.948L505.005 529.828C506.81 534.996 500.193 538.891 496.552 534.804L432.957 463.434C413.125 441.177 376.284 454.542 375.336 484.339L371.03 619.695C370.861 625.015 363.6 626.422 361.456 621.551L303.867 490.719C293.778 467.799 262.837 464.028 247.538 483.853L185.476 564.276C182.338 568.342 175.843 565.601 176.567 560.516L192.577 448.12C196.23 422.472 170.257 402.809 146.562 413.285L28.2219 465.607C23.3495 467.761 18.9359 461.817 22.4073 457.776L116.647 348.071C130.145 332.358 125.997 308.239 108.026 297.938L68.1431 275.075C63.7929 272.582 65.4117 265.95 70.4217 265.742L123.758 263.521C146.328 262.581 161.303 239.754 153.176 218.677L118.46 128.646C116.597 123.816 122.402 119.686 126.354 123.029L187.026 174.357C207.044 191.292 237.864 179.243 241.089 153.221Z" fill="#05972C"/>
<path d="M268.391 145.305L309.586 5.71246C311.045 0.769068 318.124 0.998795 319.259 6.02637L347.888 132.812C353.497 157.65 383.929 167.047 402.565 149.696L458.594 97.5297C462.374 94.0108 468.358 97.833 466.754 102.742L443.356 174.367C435.209 199.306 458.015 223.32 483.341 216.47L550.278 198.365C555.622 196.92 559.005 203.942 554.544 207.221L479.776 262.171C463.48 274.148 461.693 297.833 476.008 312.12L569.783 405.71C573.512 409.431 569.692 415.645 564.688 413.998L486.812 388.375C463.142 380.587 439.711 400.837 443.988 425.385L467.418 559.88C468.358 565.273 461.194 568.038 458.267 563.412L407.151 482.635C391.211 457.443 352.684 464.628 346.894 493.871L320.591 626.717C319.557 631.939 312.165 632.144 310.843 626.988L275.34 488.522C269.12 464.264 239.208 455.502 220.883 472.57L146.546 541.805C142.788 545.306 136.827 541.543 138.37 536.644L172.478 428.359C180.262 403.649 157.839 380.017 132.755 386.492L7.47047 418.833C2.31216 420.165 -1.07395 413.581 3.00951 410.159L113.864 317.275C129.742 303.971 129.58 279.499 113.527 266.407L77.9022 237.352C74.0164 234.183 76.6941 227.904 81.671 228.515L134.657 235.014C157.078 237.764 175.572 217.681 170.988 195.562L151.405 101.078C150.354 96.0086 156.754 92.88 160.109 96.8227L211.607 157.35C228.598 177.32 260.97 170.454 268.391 145.305Z" fill="#B7CE01"/>
<path d="M248.79 185.56L261.613 81.8292C262.246 76.7108 269.273 75.7853 271.209 80.5654L305.875 166.147C315.446 189.775 347.054 194.09 362.608 173.891L392.204 135.456C395.356 131.363 401.889 134.155 401.108 139.262L393.995 185.795C390.028 211.738 416.467 231.706 440.336 220.795L477.271 203.91C482.305 201.609 486.794 207.98 482.933 211.946L438.177 257.91C424.091 272.376 426.184 295.988 442.595 307.752L521.927 364.622C526.207 367.69 523.448 374.437 518.244 373.626L465.755 365.446C441.14 361.61 421.314 385.388 429.512 408.913L461.514 500.735C463.316 505.905 456.693 509.794 453.056 505.702L414.264 462.057C394.446 439.759 357.562 453.116 356.615 482.934L353.705 574.643C353.536 579.966 346.27 581.371 344.129 576.495L302.813 482.395C292.733 459.437 261.741 455.664 246.447 475.533L204.111 530.533C200.976 534.605 194.476 531.867 195.198 526.78L206.269 448.858C209.915 423.199 183.918 403.545 160.225 414.046L77.1988 450.848C72.3292 453.006 67.9101 447.068 71.3759 443.023L141.097 361.654C154.555 345.948 150.414 321.876 132.481 311.571L108.841 297.985C104.496 295.488 106.117 288.863 111.124 288.654L143.2 287.315C165.756 286.374 180.728 263.569 172.624 242.498L148.518 179.824C146.659 174.992 152.47 170.867 156.419 174.216L194.695 206.678C214.709 223.653 245.571 211.605 248.79 185.56Z" stroke="#DBDAD5"/>
</svg>
