<svg width="610" height="688" viewBox="0 0 610 688" fill="none" xmlns="http://www.w3.org/2000/svg">
<mask id="mask0_65_393" style="mask-type:alpha" maskUnits="userSpaceOnUse" x="0" y="0" width="610" height="688">
<path fill-rule="evenodd" clip-rule="evenodd" d="M303.772 687.785C362.073 687.785 412.1 601.279 433.5 477.963C450.892 540.864 480.182 582.161 513.382 582.161C566.743 582.161 610 475.485 610 343.893C610 212.301 566.743 105.624 513.382 105.624C480.182 105.624 450.892 146.921 433.5 209.822C412.1 86.5068 362.073 0 303.772 0C246.338 0 196.934 83.9512 175.018 204.341C157.22 148.828 129.091 112.993 97.4363 112.993C43.6237 112.993 0 216.554 0 344.302C0 472.051 43.6237 575.611 97.4363 575.611C129.147 575.611 157.32 539.649 175.113 483.966C197.077 604.077 246.421 687.785 303.772 687.785Z" fill="#1F3DBF"/>
</mask>
<g mask="url(#mask0_65_393)">
<rect width="610" height="688" fill="#1F3DBF"/>
<path fill-rule="evenodd" clip-rule="evenodd" d="M438.816 181.196C473.455 150.845 487.099 123.377 487.099 79.4811C487.099 35.5849 466.48 0 441.045 0C427.507 0 424.171 11.3636 419.309 27.9305C415.036 42.4893 409.583 61.0665 394.99 79.4811C297.682 231.708 397.219 217.644 438.816 181.196ZM-92.5914 103.681L-92.5913 103.681L-92.5913 103.68L-92.5912 103.68C-88.8213 95.872 -84.6352 87.2016 -81.7525 76.4436C-78.4816 64.2363 -78.1287 50.2372 -77.8129 37.7142C-77.1374 10.9208 -76.6323 -9.11555 -48.0831 9.61124C-39.3122 15.3645 -30.6825 26.8741 -26.0335 41.4948C-18.9813 63.6737 -29.2018 86.9177 -39.3195 109.928L-39.3196 109.928C-44.1821 120.986 -49.0209 131.991 -51.907 142.797C-58.6361 167.992 -65.7664 189.452 -84.4357 167.34C-109.179 138.036 -102.252 123.689 -92.5914 103.681ZM196.081 336.853C198.611 323.554 201.421 308.787 201.421 291.398C201.421 271.666 196.296 250.412 191.712 231.399C181.904 190.719 174.569 160.299 225.191 177.004C247.108 184.237 273.221 208.823 284.334 243.94C290.686 264.015 285.483 285.786 280.283 307.544C276.973 321.394 273.664 335.239 273.337 348.638C273.156 356.094 273.188 363.845 273.219 371.529C273.399 415.354 273.569 457.015 234.105 429.561C184.949 395.366 189.598 370.93 196.081 336.853ZM-151.318 500.809C-151.318 486.728 -153.582 474.77 -155.62 464.001C-160.842 436.407 -164.587 416.62 -124.991 388.93C-93.2009 366.7 -93.3385 400.435 -93.4832 435.922V435.924V435.926V435.928V435.93V435.932V435.935V435.937V435.939V435.941V435.943V435.945V435.947V435.949V435.951V435.954C-93.4943 438.664 -93.5054 441.386 -93.5022 444.093C-93.4873 456.691 -90.9117 469.894 -88.3324 483.116C-83.8681 506.001 -79.3926 528.943 -88.1644 548.907C-98.3823 572.162 -116.593 588.272 -132.171 593.44C-172.948 606.967 -167.04 582.333 -159.139 549.393C-155.446 533.997 -151.318 516.786 -151.318 500.809ZM36.7326 451.58C2.09401 421.229 -11.5505 393.761 -11.5505 349.865C-11.5505 305.969 9.06877 270.384 34.504 270.384C48.042 270.384 51.3774 281.748 56.2399 298.315C60.5131 312.873 65.9657 331.451 80.5584 349.865C177.867 502.092 78.3298 488.029 36.7326 451.58ZM122.156 608.519C122.156 564.623 135.8 537.155 170.439 506.804C212.036 470.356 311.574 456.293 214.265 608.519C199.672 626.934 194.22 645.511 189.946 660.07C185.084 676.636 181.749 688 168.21 688C142.775 688 122.156 652.415 122.156 608.519ZM-155.387 321.94C-137.649 306.337 -130.661 292.215 -130.661 269.648C-130.661 247.081 -141.22 228.787 -154.246 228.787C-161.179 228.787 -162.887 234.629 -165.377 243.146C-167.566 250.631 -170.358 260.181 -177.831 269.648C-227.664 347.909 -176.69 340.679 -155.387 321.94ZM271.944 94.3305C271.944 71.7632 264.957 57.6418 247.218 42.0382C225.916 23.3 174.942 16.0701 224.774 94.3305C232.247 103.798 235.04 113.348 237.228 120.833C239.718 129.35 241.426 135.192 248.359 135.192C261.385 135.192 271.944 116.898 271.944 94.3305ZM105.307 204.274C78.6411 204.274 52.5667 126.535 52.5667 100.28C52.5667 98.4407 52.5562 96.6078 52.5457 94.7892C52.4066 70.6447 52.282 49.0256 77.0801 49.0256C97.0451 49.0256 95.4418 63.0388 93.3753 81.1011C92.6817 87.1634 91.9359 93.6819 91.9359 100.28C91.9359 109.737 97.1304 125.874 102.531 142.651C112.124 172.452 122.368 204.274 105.307 204.274ZM50.5439 567.51C50.5439 541.254 24.4695 463.516 -2.19638 463.516C-19.2572 463.516 -9.01361 495.337 0.57944 525.138C5.9802 541.916 11.1747 558.052 11.1747 567.51C11.1747 574.108 10.429 580.626 9.73535 586.688C7.66883 604.751 6.06555 618.764 26.0305 618.764C50.8286 618.764 50.704 597.145 50.5649 573C50.5544 571.182 50.5439 569.349 50.5439 567.51ZM413.174 351.147C410.644 364.446 407.834 379.214 407.834 396.603C407.834 416.334 412.959 437.588 417.543 456.601C427.351 497.281 434.686 527.701 384.064 510.996C362.148 503.763 336.034 479.177 324.922 444.06C318.569 423.985 323.773 402.215 328.973 380.456C332.283 366.606 335.592 352.761 335.918 339.362C336.099 331.915 336.068 324.174 336.036 316.5V316.496V316.492V316.489V316.485V316.482V316.478V316.474V316.471C335.856 272.646 335.686 230.985 375.151 258.439C424.306 292.634 419.657 317.07 413.174 351.147ZM691.008 611.556C693.89 600.798 698.077 592.128 701.847 584.319C711.507 564.311 718.434 549.964 693.691 520.66C675.022 498.548 667.891 520.008 661.162 545.203C658.276 556.009 653.438 567.013 648.575 578.072L648.575 578.072C638.457 601.082 628.237 624.326 635.289 646.505C639.938 661.126 648.567 672.635 657.338 678.389C685.887 697.116 686.393 677.079 687.068 650.286C687.384 637.763 687.737 623.764 691.008 611.556ZM764.875 223.999C762.837 213.23 760.574 201.272 760.574 187.191C760.574 171.214 764.702 154.003 768.394 138.607L768.394 138.607C776.295 105.666 782.203 81.0334 741.426 94.5604C725.848 99.7283 707.637 115.838 697.42 139.093C688.648 159.057 693.123 181.999 697.588 204.884L697.588 204.884C700.167 218.106 702.743 231.309 702.757 243.907C702.761 246.625 702.75 249.357 702.738 252.078C702.594 287.565 702.456 321.3 734.246 299.069C773.842 271.38 770.097 251.593 764.875 223.999ZM620.806 338.135C620.806 294.239 607.161 266.771 572.523 236.42C530.925 199.971 431.388 185.908 528.697 338.135C543.29 356.549 548.742 375.127 553.015 389.685C557.878 406.252 561.213 417.616 574.751 417.616C600.186 417.616 620.806 382.031 620.806 338.135ZM739.916 418.352C739.916 395.785 746.904 381.663 764.643 366.06C785.945 347.321 836.919 340.092 787.086 418.352C779.613 427.819 776.821 437.37 774.632 444.854C772.142 453.371 770.434 459.214 763.501 459.214C750.476 459.214 739.916 440.919 739.916 418.352ZM345.696 668.246C327.957 652.643 320.969 638.521 320.969 615.954C320.969 593.387 331.529 575.092 344.554 575.092C351.487 575.092 353.195 580.935 355.685 589.452C357.874 596.936 360.666 606.487 368.139 615.954C417.972 694.214 366.998 686.984 345.696 668.246ZM556.689 587.72C556.689 561.465 530.614 483.726 503.948 483.726C486.887 483.726 497.131 515.548 506.724 545.349C512.125 562.126 517.319 578.263 517.319 587.72C517.319 594.318 516.574 600.837 515.88 606.899C513.813 624.961 512.21 638.974 532.175 638.974C556.973 638.974 556.849 617.355 556.71 593.211C556.699 591.392 556.689 589.559 556.689 587.72ZM611.452 224.484C584.786 224.484 558.711 146.746 558.711 120.49C558.711 118.651 558.701 116.818 558.69 115C558.551 90.8553 558.427 69.2362 583.225 69.2362C603.19 69.2362 601.586 83.2494 599.52 101.312C598.826 107.374 598.08 113.892 598.08 120.49C598.08 129.948 603.275 146.084 608.676 162.862C618.269 192.663 628.512 224.484 611.452 224.484Z" fill="#F77A80"/>
<path fill-rule="evenodd" clip-rule="evenodd" d="M196.065 394.001C240.808 320.17 302.439 237.751 289.143 339.499C284.06 378.397 278.94 406.097 274.154 425.497C336.251 383.831 404.359 346.566 370.094 403.156C346.195 442.627 322.028 468.506 302.393 484.518L335.03 499.869C454.698 569.911 375.903 575.775 291.186 566.785C330.85 610.683 361.718 656.195 297.425 629.636C269.67 618.171 250.204 608.897 236.808 601.516C255.312 655.683 269.373 713.425 234.319 676.879C209.871 651.389 195.525 628.394 187.575 610.705L169.76 631.793C88.912 711.686 107.574 637.876 134.111 573.2C48.8024 586.162 -53.7363 591.635 32.8151 536.664C65.9294 515.632 90.4728 501.807 108.431 493.044C36.6468 472.089 -35.6123 443.7 29.7867 433.726C68.455 427.829 99.7491 428.34 123.538 431.56L115.812 402.061C92.7391 264.554 148.488 322.669 196.065 394.001Z" fill="#B7CE01"/>
<mask id="path-5-inside-1_65_393" fill="white">
<path fill-rule="evenodd" clip-rule="evenodd" d="M198.239 439.216C223.588 397.388 258.504 350.695 250.972 408.339C248.092 430.377 245.191 446.07 242.48 457.061C277.66 433.456 316.247 412.343 296.834 444.404C283.294 466.766 269.603 481.428 258.479 490.5L276.97 499.197C344.768 538.88 300.126 542.202 252.129 537.108C274.601 561.979 292.089 587.764 255.664 572.717C239.94 566.222 228.912 560.968 221.323 556.786C231.806 587.475 239.772 620.187 219.912 599.482C206.06 585.04 197.932 572.012 193.429 561.99L183.335 573.939C137.53 619.202 148.103 577.385 163.137 540.743C114.806 548.086 56.7144 551.187 105.75 520.043C124.51 508.128 138.415 500.295 148.589 495.331C107.92 483.459 66.9801 467.375 104.032 461.724C125.941 458.383 143.671 458.672 157.149 460.497L152.772 443.784C139.7 365.88 171.284 398.804 198.239 439.216Z"/>
</mask>
<path d="M250.972 408.339L249.98 408.21L249.98 408.21L250.972 408.339ZM198.239 439.216L197.407 439.771L198.279 441.079L199.094 439.735L198.239 439.216ZM242.48 457.061L241.509 456.822L240.889 459.333L243.037 457.892L242.48 457.061ZM296.834 444.404L297.69 444.922L297.69 444.922L296.834 444.404ZM258.479 490.5L257.847 489.725L256.616 490.729L258.053 491.405L258.479 490.5ZM276.97 499.197L277.475 498.334L277.436 498.311L277.395 498.292L276.97 499.197ZM252.129 537.108L252.235 536.114L249.633 535.838L251.387 537.779L252.129 537.108ZM255.664 572.717L255.282 573.641L255.664 572.717ZM221.323 556.786L221.805 555.91L219.54 554.662L220.376 557.109L221.323 556.786ZM219.912 599.482L219.191 600.174L219.191 600.174L219.912 599.482ZM193.429 561.99L194.341 561.58L193.69 560.131L192.665 561.345L193.429 561.99ZM183.335 573.939L184.038 574.65L184.07 574.618L184.099 574.584L183.335 573.939ZM163.137 540.743L164.063 541.123L164.733 539.49L162.987 539.755L163.137 540.743ZM105.75 520.043L106.286 520.887L106.286 520.887L105.75 520.043ZM148.589 495.331L149.028 496.23L151.352 495.096L148.869 494.371L148.589 495.331ZM104.032 461.724L104.183 462.713L104.183 462.713L104.032 461.724ZM157.149 460.497L157.015 461.488L158.495 461.688L158.116 460.244L157.149 460.497ZM152.772 443.784L151.786 443.949L151.793 443.994L151.804 444.037L152.772 443.784ZM251.963 408.469C252.909 401.232 253.195 395.583 252.906 391.332C252.619 387.123 251.758 384.107 250.237 382.316C249.455 381.395 248.501 380.801 247.402 380.556C246.317 380.315 245.163 380.428 243.985 380.792C241.655 381.513 239.044 383.274 236.273 385.727C230.708 390.652 224.149 398.684 217.419 408.056C210.679 417.442 203.729 428.227 197.384 438.698L199.094 439.735C205.423 429.292 212.343 418.554 219.044 409.222C225.755 399.876 232.208 391.995 237.598 387.224C240.305 384.829 242.658 383.296 244.576 382.703C245.522 382.411 246.312 382.363 246.967 382.509C247.608 382.651 248.189 382.994 248.712 383.61C249.802 384.894 250.63 387.361 250.91 391.468C251.187 395.533 250.917 401.036 249.98 408.21L251.963 408.469ZM243.451 457.301C246.174 446.261 249.081 430.528 251.963 408.469L249.98 408.21C247.103 430.226 244.208 445.88 241.509 456.822L243.451 457.301ZM297.69 444.922C300.134 440.885 301.704 437.625 302.473 435.062C303.227 432.549 303.288 430.452 302.311 428.983C301.298 427.46 299.451 427.005 297.398 427.096C295.317 427.19 292.727 427.85 289.788 428.918C278.04 433.187 259.503 444.435 241.922 456.231L243.037 457.892C260.637 446.082 278.984 434.971 290.471 430.798C293.341 429.755 295.707 429.174 297.488 429.094C299.298 429.013 300.221 429.452 300.646 430.09C301.105 430.782 301.271 432.111 300.557 434.487C299.859 436.815 298.387 439.908 295.979 443.886L297.69 444.922ZM259.111 491.275C270.331 482.124 284.095 467.374 297.69 444.922L295.979 443.886C282.493 466.159 268.875 480.731 257.847 489.725L259.111 491.275ZM277.395 498.292L258.904 489.595L258.053 491.405L276.544 500.102L277.395 498.292ZM252.023 538.103C264.044 539.378 275.88 540.13 285.815 539.914C290.782 539.805 295.294 539.455 299.126 538.8C302.943 538.148 306.158 537.183 308.483 535.804C310.825 534.414 312.376 532.526 312.557 530.047C312.733 527.635 311.585 524.94 309.225 521.958C304.499 515.986 294.431 508.258 277.475 498.334L276.464 500.06C293.408 509.977 303.183 517.546 307.656 523.199C309.895 526.028 310.684 528.227 310.562 529.901C310.445 531.508 309.463 532.897 307.462 534.084C305.444 535.281 302.507 536.194 298.789 536.829C295.086 537.461 290.68 537.807 285.771 537.914C275.955 538.128 264.212 537.385 252.235 536.114L252.023 538.103ZM255.282 573.641C259.863 575.534 263.629 576.798 266.666 577.501C269.682 578.2 272.072 578.368 273.854 577.975C275.705 577.567 276.956 576.53 277.437 574.904C277.884 573.391 277.608 571.541 276.929 569.558C275.561 565.563 272.324 560.373 268.086 554.683C263.83 548.969 258.501 542.669 252.871 536.438L251.387 537.779C256.993 543.983 262.277 550.232 266.482 555.878C270.705 561.547 273.777 566.526 275.037 570.206C275.672 572.059 275.789 573.423 275.519 574.337C275.282 575.137 274.703 575.74 273.423 576.022C272.074 576.319 270.029 576.227 267.117 575.553C264.226 574.883 260.57 573.662 256.045 571.793L255.282 573.641ZM220.84 557.662C228.473 561.868 239.539 567.138 255.282 573.641L256.045 571.793C240.342 565.306 229.35 560.068 221.805 555.91L220.84 557.662ZM219.191 600.174C221.697 602.787 223.812 604.61 225.579 605.702C227.302 606.766 228.921 607.276 230.305 606.809C231.749 606.322 232.482 604.943 232.827 603.379C233.178 601.787 233.2 599.714 232.992 597.32C232.161 587.755 227.507 571.795 222.269 556.463L220.376 557.109C225.622 572.465 230.192 588.206 231 597.493C231.202 599.813 231.16 601.65 230.874 602.948C230.581 604.275 230.103 604.766 229.666 604.914C229.167 605.082 228.232 604.99 226.63 604C225.073 603.038 223.093 601.353 220.634 598.79L219.191 600.174ZM192.517 562.4C197.071 572.535 205.266 585.657 219.191 600.174L220.634 598.79C206.854 584.423 198.794 571.489 194.341 561.58L192.517 562.4ZM184.099 574.584L194.193 562.635L192.665 561.345L182.571 573.293L184.099 574.584ZM162.212 540.364C158.446 549.544 154.951 559.065 152.548 567.479C150.158 575.846 148.799 583.271 149.43 588.183C149.745 590.639 150.588 592.703 152.304 593.825C154.038 594.959 156.343 594.924 159.079 593.941C164.524 591.986 172.591 585.962 184.038 574.65L182.632 573.227C171.176 584.548 163.388 590.269 158.403 592.059C155.924 592.949 154.369 592.786 153.398 592.151C152.409 591.504 151.7 590.161 151.413 587.928C150.841 583.464 152.081 576.393 154.471 568.028C156.847 559.711 160.312 550.264 164.063 541.123L162.212 540.364ZM105.213 519.199C99.0573 523.109 94.5404 526.507 91.4632 529.453C88.4162 532.37 86.6524 534.963 86.2481 537.277C86.0402 538.467 86.1932 539.579 86.7072 540.58C87.2142 541.568 88.0382 542.382 89.0697 543.053C91.11 544.381 94.1289 545.258 97.7804 545.814C105.113 546.932 115.466 546.822 126.958 545.984C138.468 545.145 151.188 543.57 163.288 541.732L162.987 539.755C150.921 541.588 138.255 543.155 126.813 543.989C115.352 544.825 105.184 544.92 98.0817 543.837C94.5157 543.294 91.8385 542.469 90.1607 541.377C89.333 540.839 88.7924 540.263 88.4865 539.667C88.1874 539.084 88.0789 538.418 88.2182 537.621C88.5082 535.961 89.8732 533.744 92.8462 530.898C95.7889 528.081 100.183 524.763 106.286 520.887L105.213 519.199ZM148.151 494.432C137.931 499.419 123.992 507.272 105.213 519.199L106.286 520.887C125.028 508.983 138.899 501.172 149.028 496.23L148.151 494.432ZM103.882 460.735C99.2159 461.447 95.7076 462.332 93.2475 463.384C90.8349 464.416 89.1861 465.713 88.6849 467.406C88.1656 469.159 88.9998 470.869 90.3862 472.385C91.7921 473.923 93.9589 475.488 96.6626 477.059C107.47 483.34 127.986 490.358 148.309 496.291L148.869 494.371C128.523 488.432 108.234 481.471 97.6676 475.33C95.0277 473.796 93.0654 472.352 91.8623 471.036C90.6396 469.698 90.385 468.708 90.6026 467.973C90.8383 467.178 91.7522 466.199 94.0339 465.223C96.2681 464.267 99.5855 463.414 104.183 462.713L103.882 460.735ZM157.283 459.506C143.705 457.668 125.878 457.381 103.882 460.735L104.183 462.713C126.004 459.385 143.638 459.677 157.015 461.488L157.283 459.506ZM151.804 444.037L156.182 460.751L158.116 460.244L153.739 443.531L151.804 444.037ZM199.071 438.661C192.32 428.54 185.266 418.867 178.68 411.271C175.388 407.473 172.199 404.179 169.214 401.604C166.239 399.038 163.412 397.139 160.841 396.193C158.254 395.241 155.786 395.211 153.738 396.625C151.742 398.004 150.386 400.597 149.593 404.313C148.006 411.752 148.517 424.467 151.786 443.949L153.758 443.618C150.491 424.149 150.048 411.766 151.549 404.73C152.3 401.209 153.498 399.221 154.874 398.271C156.199 397.356 157.921 397.25 160.15 398.07C162.394 398.896 165.008 400.618 167.908 403.118C170.796 405.609 173.915 408.826 177.169 412.581C183.678 420.089 190.68 429.686 197.407 439.771L199.071 438.661Z" fill="#DBDAD5" mask="url(#path-5-inside-1_65_393)"/>
<mask id="path-7-inside-2_65_393" fill="white">
<path fill-rule="evenodd" clip-rule="evenodd" d="M189.345 488.695C182.656 476.52 176.13 461.301 189.239 471.339C194.251 475.178 197.699 478.12 200.018 480.348C199.207 468.343 199.494 455.852 204.623 465.18C208.2 471.686 209.862 477.135 210.514 481.159L215.278 477.847C234.665 466.807 229.144 478.258 221.075 489.34C230.383 487.345 239.208 486.705 230.335 493.528C226.504 496.473 223.646 498.439 221.54 499.712C230.577 501.491 239.755 504.178 231.842 506.122C226.323 507.478 221.964 507.627 218.86 507.312L220.365 511.491C224.994 529.185 216.209 520.646 209.332 511.744C204.275 524.675 196.788 539.404 196.091 522.921C195.824 516.615 195.872 512.082 196.096 508.875C187.401 517.192 177.632 524.977 181.504 515.061C183.793 509.198 186.382 504.879 188.744 501.823L184.012 500.526C162.994 492.679 175.577 489.586 189.345 488.695Z"/>
</mask>
<path d="M189.239 471.339L189.847 470.545L189.847 470.545L189.239 471.339ZM189.345 488.695L189.41 489.692L190.978 489.591L190.221 488.213L189.345 488.695ZM200.018 480.348L199.325 481.069L201.19 482.861L201.015 480.281L200.018 480.348ZM204.623 465.18L205.499 464.698L205.499 464.698L204.623 465.18ZM210.514 481.159L209.527 481.319L209.781 482.887L211.085 481.98L210.514 481.159ZM215.278 477.847L214.783 476.978L214.744 477.001L214.707 477.026L215.278 477.847ZM221.075 489.34L220.267 488.752L218.727 490.866L221.285 490.318L221.075 489.34ZM230.335 493.528L230.944 494.32L230.944 494.32L230.335 493.528ZM221.54 499.712L221.022 498.856L218.809 500.194L221.346 500.693L221.54 499.712ZM231.842 506.122L232.08 507.093L232.08 507.093L231.842 506.122ZM218.86 507.312L218.961 506.317L217.38 506.156L217.919 507.651L218.86 507.312ZM220.365 511.491L221.332 511.238L221.321 511.194L221.306 511.152L220.365 511.491ZM209.332 511.744L210.123 511.133L209.044 509.736L208.401 511.38L209.332 511.744ZM196.091 522.921L195.092 522.963L195.092 522.963L196.091 522.921ZM196.096 508.875L197.094 508.945L197.273 506.365L195.405 508.152L196.096 508.875ZM181.504 515.061L182.435 515.425L182.435 515.425L181.504 515.061ZM188.744 501.823L189.535 502.435L190.449 501.253L189.008 500.859L188.744 501.823ZM184.012 500.526L183.662 501.463L183.704 501.479L183.747 501.491L184.012 500.526ZM189.847 470.545C188.183 469.271 186.792 468.367 185.645 467.806C184.536 467.262 183.496 466.958 182.605 467.12C182.127 467.207 181.701 467.428 181.371 467.788C181.051 468.137 180.87 468.561 180.773 468.987C180.585 469.813 180.672 470.826 180.888 471.887C181.326 474.037 182.398 476.851 183.752 479.847C185.114 482.86 186.788 486.118 188.469 489.176L190.221 488.213C188.557 485.184 186.908 481.974 185.575 479.023C184.233 476.055 183.239 473.409 182.848 471.487C182.649 470.512 182.631 469.836 182.723 469.431C182.766 469.241 182.822 469.165 182.844 469.14C182.856 469.127 182.879 469.103 182.964 469.088C183.199 469.045 183.748 469.103 184.765 469.602C185.745 470.081 187.017 470.898 188.631 472.133L189.847 470.545ZM200.711 479.627C198.356 477.364 194.876 474.397 189.847 470.545L188.631 472.133C193.626 475.959 197.043 478.876 199.325 481.069L200.711 479.627ZM205.499 464.698C204.842 463.502 204.229 462.593 203.647 461.976C203.101 461.396 202.396 460.876 201.562 460.929C200.664 460.986 200.119 461.659 199.811 462.254C199.488 462.875 199.268 463.689 199.108 464.59C198.473 468.184 198.616 474.425 199.02 480.415L201.015 480.281C200.609 474.266 200.491 468.259 201.078 464.938C201.224 464.11 201.402 463.529 201.586 463.175C201.783 462.796 201.851 462.914 201.689 462.925C201.59 462.931 201.743 462.871 202.191 463.347C202.604 463.786 203.122 464.526 203.747 465.662L205.499 464.698ZM211.501 481C210.83 476.853 209.127 471.295 205.499 464.698L203.747 465.662C207.274 472.076 208.895 477.417 209.527 481.319L211.501 481ZM214.707 477.026L209.943 480.338L211.085 481.98L215.848 478.668L214.707 477.026ZM221.883 489.929C223.913 487.141 225.798 484.309 227.176 481.798C227.865 480.542 228.437 479.349 228.836 478.27C229.231 477.205 229.483 476.181 229.472 475.286C229.461 474.37 229.164 473.455 228.321 472.883C227.534 472.348 226.49 472.271 225.352 472.438C223.068 472.773 219.636 474.214 214.783 476.978L215.772 478.716C220.613 475.96 223.761 474.693 225.643 474.416C226.588 474.278 227.022 474.418 227.198 474.537C227.317 474.618 227.466 474.792 227.473 475.31C227.479 475.849 227.32 476.605 226.961 477.576C226.607 478.532 226.083 479.632 225.423 480.836C224.102 483.243 222.271 485.999 220.267 488.752L221.883 489.929ZM230.944 494.32C232.078 493.449 232.957 492.676 233.597 491.99C234.223 491.319 234.689 490.662 234.894 490.017C235.12 489.303 235.028 488.562 234.484 487.99C234.021 487.502 233.348 487.27 232.715 487.146C231.422 486.892 229.591 486.965 227.58 487.2C225.54 487.439 223.21 487.86 220.865 488.362L221.285 490.318C223.594 489.823 225.858 489.416 227.813 489.187C229.798 488.954 231.364 488.919 232.331 489.109C232.828 489.206 233.002 489.333 233.034 489.367C233.034 489.367 233.016 489.345 233.01 489.312C233.006 489.289 233.018 489.314 232.987 489.413C232.916 489.636 232.689 490.032 232.135 490.625C231.597 491.202 230.81 491.901 229.725 492.735L230.944 494.32ZM222.057 500.568C224.206 499.269 227.097 497.279 230.944 494.32L229.725 492.735C225.912 495.667 223.086 497.609 221.022 498.856L222.057 500.568ZM232.08 507.093C233.103 506.842 233.919 506.563 234.516 506.242C235.067 505.945 235.674 505.482 235.822 504.747C235.982 503.95 235.517 503.336 235.117 502.97C234.696 502.585 234.112 502.249 233.47 501.949C230.909 500.753 226.239 499.618 221.733 498.731L221.346 500.693C225.877 501.585 230.315 502.683 232.624 503.761C233.199 504.03 233.568 504.264 233.768 504.447C233.988 504.648 233.812 504.598 233.861 504.353C233.897 504.172 233.994 504.251 233.568 504.481C233.187 504.685 232.559 504.916 231.603 505.151L232.08 507.093ZM218.759 508.307C221.986 508.635 226.46 508.474 232.08 507.093L231.603 505.151C226.185 506.482 221.942 506.62 218.961 506.317L218.759 508.307ZM221.306 511.152L219.8 506.973L217.919 507.651L219.424 511.83L221.306 511.152ZM208.541 512.356C210.273 514.598 212.136 516.832 213.889 518.644C215.608 520.42 217.331 521.909 218.777 522.514C219.501 522.816 220.376 522.989 221.173 522.586C221.989 522.173 222.381 521.334 222.545 520.425C222.869 518.635 222.488 515.655 221.332 511.238L219.398 511.744C220.556 516.174 220.813 518.761 220.577 520.069C220.461 520.709 220.273 520.8 220.27 520.801C220.248 520.813 220.064 520.884 219.549 520.668C218.518 520.237 217.045 519.028 215.327 517.253C213.643 515.513 211.83 513.342 210.123 511.133L208.541 512.356ZM195.092 522.963C195.18 525.055 195.378 526.701 195.681 527.941C195.975 529.14 196.407 530.133 197.101 530.714C197.474 531.025 197.915 531.212 198.403 531.236C198.875 531.259 199.317 531.127 199.706 530.929C200.461 530.545 201.182 529.831 201.857 528.987C203.226 527.277 204.697 524.655 206.128 521.699C207.566 518.727 208.993 515.357 210.263 512.109L208.401 511.38C207.142 514.597 205.737 517.917 204.327 520.828C202.91 523.756 201.518 526.21 200.295 527.738C199.675 528.514 199.169 528.959 198.8 529.146C198.628 529.234 198.534 529.24 198.501 529.238C198.484 529.237 198.451 529.235 198.384 529.18C198.2 529.025 197.893 528.565 197.624 527.466C197.365 526.407 197.176 524.907 197.09 522.878L195.092 522.963ZM195.098 508.806C194.871 512.063 194.824 516.635 195.092 522.963L197.09 522.878C196.824 516.594 196.873 512.102 197.094 508.945L195.098 508.806ZM180.572 514.698C180.076 515.969 179.771 517.022 179.669 517.864C179.575 518.655 179.627 519.529 180.202 520.136C180.821 520.788 181.687 520.775 182.342 520.631C183.025 520.48 183.791 520.128 184.585 519.673C187.751 517.857 192.449 513.748 196.787 509.598L195.405 508.152C191.048 512.319 186.514 516.261 183.59 517.938C182.861 518.356 182.301 518.592 181.911 518.678C181.494 518.77 181.541 518.641 181.653 518.759C181.721 518.831 181.577 518.752 181.655 518.103C181.727 517.505 181.964 516.632 182.435 515.425L180.572 514.698ZM187.953 501.211C185.528 504.348 182.893 508.752 180.572 514.698L182.435 515.425C184.692 509.645 187.235 505.41 189.535 502.435L187.953 501.211ZM183.747 501.491L188.48 502.787L189.008 500.859L184.276 499.562L183.747 501.491ZM189.28 487.697C185.817 487.921 182.403 488.285 179.558 488.834C178.136 489.108 176.837 489.432 175.736 489.816C174.649 490.195 173.688 490.655 172.994 491.233C172.288 491.822 171.754 492.631 171.836 493.65C171.913 494.605 172.518 495.464 173.373 496.235C175.087 497.78 178.401 499.499 183.662 501.463L184.362 499.589C179.113 497.63 176.119 496.019 174.712 494.749C174.005 494.112 173.846 493.693 173.83 493.488C173.818 493.347 173.861 493.114 174.274 492.77C174.7 492.415 175.402 492.051 176.395 491.705C177.374 491.363 178.572 491.061 179.937 490.797C182.667 490.271 185.989 489.914 189.41 489.692L189.28 487.697Z" fill="#DBDAD5" mask="url(#path-7-inside-2_65_393)"/>
<path fill-rule="evenodd" clip-rule="evenodd" d="M322.341 177.988L240.209 181.869C218.891 182.877 198.218 174.412 183.729 158.742L181.681 156.528C165.583 139.118 159.887 114.496 166.702 91.7855C173.403 69.4558 191.231 52.2151 213.772 46.2647L217.911 45.1722C238.733 39.6756 260.914 43.4406 278.757 55.4999L337.817 95.4173L295.489 29.4987C283.958 11.5408 280.952 -10.5952 287.278 -30.9777L288.172 -33.8583C295.2 -56.5043 313.674 -73.7486 336.75 -79.2017C359.439 -84.5633 383.284 -77.7447 399.708 -61.1984L402.723 -58.1605C417.894 -42.8763 425.725 -21.7839 424.202 -0.30231L417.285 97.2916C417.93 97.7444 418.566 98.2084 419.191 98.683L477.538 31.6622C492.518 14.4548 514.701 5.26927 537.461 6.84979C562.372 8.57966 584.655 22.9616 596.492 44.9484L596.9 45.7063C608.775 67.7658 608.608 94.5655 596.672 116.592C585.686 136.867 565.896 151.209 543.174 155.137L442.922 172.465L508.894 232.484C524.68 246.845 533.312 267.449 532.478 288.774L532.36 291.788C531.432 315.482 518.05 336.92 497.172 348.16C476.644 359.211 451.847 358.796 431.701 347.064L428.002 344.911C409.391 334.074 396.369 315.727 392.28 294.583L380.392 233.119L340.998 309.462C331.212 328.427 313.544 342.098 292.73 346.811L289.788 347.477C266.662 352.714 242.49 345.337 226.23 328.079C210.242 311.111 204.225 287.051 210.343 264.555L211.466 260.424C217.117 239.643 231.468 222.316 250.833 212.894L322.385 178.079C322.37 178.049 322.355 178.019 322.341 177.988Z" fill="#A848C6"/>
<mask id="path-10-inside-3_65_393" fill="white">
<path fill-rule="evenodd" clip-rule="evenodd" d="M346.243 193.772L284.243 196.702C268.151 197.462 252.545 191.072 241.607 179.243L240.062 177.571C227.909 164.429 223.609 145.842 228.754 128.698C233.813 111.842 247.27 98.8268 264.287 94.3349L267.411 93.5102C283.129 89.3608 299.874 92.203 313.343 101.306L357.926 131.439L325.974 81.6784C317.269 68.1221 315 51.4118 319.775 36.0252L320.45 33.8507C325.756 16.7554 339.702 3.73782 357.122 -0.378633C374.249 -4.426 392.249 0.721273 404.648 13.2119L406.924 15.5052C418.377 27.0431 424.288 42.9655 423.138 59.1818L417.917 132.855C418.404 133.197 418.883 133.547 419.356 133.905L463.401 83.3108C474.71 70.3211 491.456 63.3871 508.637 64.5802C527.442 65.8861 544.263 76.7429 553.199 93.3405L553.507 93.9126C562.471 110.565 562.345 130.796 553.335 147.424C545.041 162.729 530.102 173.556 512.949 176.521L437.269 189.602L487.071 234.91C498.988 245.751 505.505 261.305 504.875 277.403L504.786 279.678C504.086 297.564 493.984 313.748 478.223 322.233C462.726 330.575 444.007 330.262 428.799 321.406L426.007 319.78C411.958 311.599 402.127 297.749 399.04 281.788L390.067 235.388L360.328 293.02C352.94 307.336 339.603 317.656 323.89 321.214L321.67 321.717C304.212 325.67 285.965 320.101 273.69 307.073C261.621 294.264 257.079 276.102 261.697 259.119L262.545 256.001C266.811 240.314 277.644 227.234 292.263 220.121L346.276 193.84C346.265 193.817 346.254 193.795 346.243 193.772Z"/>
</mask>
<path d="M284.243 196.702L284.291 197.701L284.291 197.701L284.243 196.702ZM346.243 193.772L347.144 193.336L346.856 192.742L346.196 192.773L346.243 193.772ZM241.607 179.243L242.342 178.564L242.342 178.564L241.607 179.243ZM240.062 177.571L239.327 178.25L239.327 178.25L240.062 177.571ZM228.754 128.698L229.712 128.986L228.754 128.698ZM264.287 94.3349L264.031 93.368L264.031 93.368L264.287 94.3349ZM267.411 93.5102L267.666 94.477L267.666 94.477L267.411 93.5102ZM313.343 101.306L313.903 100.478L313.903 100.478L313.343 101.306ZM357.926 131.439L357.366 132.268L358.768 130.899L357.926 131.439ZM325.974 81.6784L325.132 82.2187L325.132 82.2187L325.974 81.6784ZM319.775 36.0252L320.73 36.3216L320.73 36.3216L319.775 36.0252ZM320.45 33.8507L319.495 33.5543L319.495 33.5543L320.45 33.8507ZM357.122 -0.378633L356.892 -1.35183L356.892 -1.35183L357.122 -0.378633ZM404.648 13.2119L405.357 12.5074L405.357 12.5074L404.648 13.2119ZM406.924 15.5052L406.214 16.2096L406.214 16.2097L406.924 15.5052ZM423.138 59.1818L424.136 59.2525L424.136 59.2525L423.138 59.1818ZM417.917 132.855L416.919 132.784L416.879 133.348L417.342 133.673L417.917 132.855ZM419.356 133.905L418.751 134.702L419.496 135.267L420.11 134.562L419.356 133.905ZM463.401 83.3108L462.647 82.6542L462.647 82.6542L463.401 83.3108ZM508.637 64.5802L508.706 63.5826L508.706 63.5826L508.637 64.5802ZM553.199 93.3405L554.079 92.8665L554.079 92.8665L553.199 93.3405ZM553.507 93.9126L552.626 94.3866L552.626 94.3866L553.507 93.9126ZM553.335 147.424L552.456 146.948L552.456 146.948L553.335 147.424ZM512.949 176.521L513.12 177.506L513.12 177.506L512.949 176.521ZM437.269 189.602L437.099 188.617L435.083 188.965L436.596 190.342L437.269 189.602ZM487.071 234.91L487.744 234.17L487.744 234.17L487.071 234.91ZM504.875 277.403L505.874 277.442L505.874 277.442L504.875 277.403ZM504.786 279.678L503.786 279.639L503.786 279.639L504.786 279.678ZM478.223 322.233L477.749 321.352L477.749 321.352L478.223 322.233ZM428.799 321.406L429.302 320.542L429.302 320.542L428.799 321.406ZM426.007 319.78L426.51 318.916L426.51 318.916L426.007 319.78ZM399.04 281.788L398.059 281.978L398.059 281.978L399.04 281.788ZM390.067 235.388L391.048 235.198L390.501 232.366L389.178 234.93L390.067 235.388ZM360.328 293.02L359.439 292.561L359.439 292.561L360.328 293.02ZM323.89 321.214L324.111 322.19L324.111 322.19L323.89 321.214ZM321.67 321.717L321.449 320.742L321.449 320.742L321.67 321.717ZM273.69 307.073L272.962 307.759L272.962 307.759L273.69 307.073ZM261.697 259.119L262.662 259.382L262.662 259.382L261.697 259.119ZM262.545 256.001L263.51 256.264L262.545 256.001ZM292.263 220.121L291.825 219.222L291.825 219.222L292.263 220.121ZM346.276 193.84L346.714 194.739L347.613 194.302L347.176 193.403L346.276 193.84ZM284.291 197.701L346.291 194.771L346.196 192.773L284.196 195.703L284.291 197.701ZM240.873 179.922C252.011 191.967 267.903 198.475 284.291 197.701L284.196 195.703C268.399 196.449 253.079 190.176 242.342 178.564L240.873 179.922ZM239.327 178.25L240.873 179.922L242.342 178.564L240.796 176.893L239.327 178.25ZM227.796 128.411C222.55 145.894 226.935 164.848 239.327 178.25L240.796 176.893C228.884 164.01 224.669 145.791 229.712 128.986L227.796 128.411ZM264.031 93.368C246.679 97.9487 232.955 111.221 227.796 128.411L229.712 128.986C234.67 112.462 247.862 99.7049 264.542 95.3017L264.031 93.368ZM267.156 92.5433L264.031 93.368L264.542 95.3017L267.666 94.477L267.156 92.5433ZM313.903 100.478C300.195 91.2129 283.153 88.3203 267.156 92.5433L267.666 94.477C283.106 90.4014 299.553 93.1931 312.783 102.135L313.903 100.478ZM358.486 130.611L313.903 100.478L312.783 102.135L357.366 132.268L358.486 130.611ZM325.132 82.2187L357.085 131.98L358.768 130.899L326.815 81.1381L325.132 82.2187ZM318.82 35.7288C313.958 51.3974 316.268 68.4139 325.132 82.2187L326.815 81.1381C318.27 67.8302 316.043 51.4262 320.73 36.3216L318.82 35.7288ZM319.495 33.5543L318.82 35.7288L320.73 36.3216L321.405 34.1471L319.495 33.5543ZM356.892 -1.35183C339.128 2.84601 324.905 16.121 319.495 33.5543L321.405 34.1471C326.606 17.3898 340.276 4.62962 357.352 0.594563L356.892 -1.35183ZM405.357 12.5074C392.714 -0.230176 374.358 -5.47922 356.892 -1.35183L357.352 0.594563C374.141 -3.37278 391.785 1.67272 403.938 13.9163L405.357 12.5074ZM407.634 14.8007L405.357 12.5074L403.938 13.9163L406.214 16.2096L407.634 14.8007ZM424.136 59.2525C425.305 42.7484 419.29 26.5434 407.634 14.8007L406.214 16.2097C417.464 27.5428 423.27 43.1827 422.141 59.1111L424.136 59.2525ZM418.914 132.925L424.136 59.2525L422.141 59.1111L416.919 132.784L418.914 132.925ZM417.342 133.673C417.819 134.008 418.289 134.351 418.751 134.702L419.96 133.108C419.478 132.743 418.988 132.385 418.491 132.036L417.342 133.673ZM462.647 82.6542L418.601 133.248L420.11 134.562L464.156 83.9674L462.647 82.6542ZM508.706 63.5826C491.212 62.3677 474.161 69.428 462.647 82.6542L464.156 83.9674C475.258 71.2142 491.699 64.4064 508.568 65.5778L508.706 63.5826ZM554.079 92.8665C544.981 75.9667 527.853 64.9122 508.706 63.5826L508.568 65.5778C527.03 66.8599 543.546 77.5191 552.318 93.8146L554.079 92.8665ZM554.387 93.4386L554.079 92.8665L552.318 93.8145L552.626 94.3866L554.387 93.4386ZM554.214 147.9C563.383 130.98 563.514 110.391 554.387 93.4386L552.626 94.3866C561.429 110.739 561.307 130.612 552.456 146.948L554.214 147.9ZM513.12 177.506C530.578 174.488 545.776 163.471 554.214 147.9L552.456 146.948C544.306 161.986 529.627 172.623 512.779 175.535L513.12 177.506ZM437.44 190.587L513.12 177.506L512.779 175.535L437.099 188.617L437.44 190.587ZM487.744 234.17L437.942 188.862L436.596 190.342L486.399 235.65L487.744 234.17ZM505.874 277.442C506.516 261.049 499.88 245.21 487.744 234.17L486.399 235.65C498.097 246.292 504.494 261.561 503.875 277.364L505.874 277.442ZM505.785 279.717L505.874 277.442L503.875 277.364L503.786 279.639L505.785 279.717ZM478.697 323.113C494.769 314.461 505.071 297.957 505.785 279.717L503.786 279.639C503.1 297.171 493.198 313.035 477.749 321.352L478.697 323.113ZM428.296 322.27C443.805 331.301 462.894 331.62 478.697 323.113L477.749 321.352C462.559 329.53 444.21 329.223 429.302 320.542L428.296 322.27ZM425.503 320.644L428.296 322.27L429.302 320.542L426.51 318.916L425.503 320.644ZM398.059 281.978C401.2 298.222 411.205 312.318 425.503 320.644L426.51 318.916C412.71 310.88 403.054 297.276 400.022 281.598L398.059 281.978ZM389.085 235.578L398.059 281.978L400.022 281.598L391.048 235.198L389.085 235.578ZM361.216 293.478L390.955 235.847L389.178 234.93L359.439 292.561L361.216 293.478ZM324.111 322.19C340.112 318.566 353.693 308.057 361.216 293.478L359.439 292.561C352.187 306.615 339.094 316.746 323.669 320.239L324.111 322.19ZM321.89 322.692L324.111 322.19L323.669 320.239L321.449 320.742L321.89 322.692ZM272.962 307.759C285.48 321.044 304.088 326.724 321.89 322.692L321.449 320.742C304.336 324.617 286.45 319.158 274.418 306.387L272.962 307.759ZM260.732 258.857C256.023 276.175 260.655 294.696 272.962 307.759L274.418 306.387C262.588 293.831 258.135 276.028 262.662 259.382L260.732 258.857ZM261.58 255.739L260.732 258.857L262.662 259.382L263.51 256.264L261.58 255.739ZM291.825 219.222C276.948 226.461 265.922 239.773 261.58 255.739L263.51 256.264C267.7 240.855 278.341 228.007 292.7 221.02L291.825 219.222ZM345.839 192.941L291.825 219.222L292.7 221.02L346.714 194.739L345.839 192.941ZM347.176 193.403C347.165 193.381 347.155 193.359 347.144 193.336L345.343 194.207C345.354 194.23 345.366 194.253 345.377 194.277L347.176 193.403Z" fill="white" mask="url(#path-10-inside-3_65_393)"/>
<mask id="path-12-inside-4_65_393" fill="white">
<path fill-rule="evenodd" clip-rule="evenodd" d="M382.58 180.852L373.835 190.465C371.565 192.96 368.308 194.324 364.938 194.192L364.461 194.174C360.717 194.027 357.328 191.912 355.552 188.612C353.805 185.368 353.871 181.449 355.725 178.264L356.065 177.68C357.778 174.738 360.678 172.68 364.02 172.034L375.081 169.895L362.984 167.258C359.689 166.54 356.879 164.402 355.308 161.417L355.086 160.995C353.34 157.679 353.478 153.687 355.447 150.499C357.384 147.364 360.811 145.461 364.496 145.475L365.172 145.477C368.576 145.49 371.808 146.972 374.039 149.543L384.173 161.223C384.295 161.201 384.418 161.182 384.541 161.165L383.571 147.154C383.322 143.557 384.775 140.051 387.495 137.684C390.473 135.094 394.57 134.211 398.35 135.345L398.481 135.384C402.273 136.522 405.25 139.536 406.377 143.332C407.415 146.825 406.807 150.64 404.706 153.618L395.439 166.759L409.52 166.094C412.889 165.935 416.157 167.272 418.447 169.749L418.77 170.099C421.315 172.851 422.215 176.742 421.138 180.332C420.079 183.861 417.261 186.586 413.698 187.526L413.044 187.699C409.753 188.568 406.247 187.973 403.427 186.067L395.229 180.525L399.358 193.461C400.384 196.674 399.937 200.176 398.138 203.029L397.884 203.432C395.884 206.602 392.358 208.479 388.612 208.368C384.929 208.258 381.568 206.242 379.737 203.044L379.401 202.457C377.71 199.503 377.378 195.962 378.489 192.745L382.595 180.857C382.59 180.856 382.585 180.854 382.58 180.852Z"/>
</mask>
<path d="M373.835 190.465L374.574 191.138L374.574 191.138L373.835 190.465ZM382.58 180.852L382.909 179.908L382.285 179.691L381.84 180.179L382.58 180.852ZM364.938 194.192L364.977 193.193L364.977 193.193L364.938 194.192ZM364.461 194.174L364.422 195.173L364.422 195.173L364.461 194.174ZM355.552 188.612L356.432 188.138L355.552 188.612ZM355.725 178.264L354.861 177.761L354.861 177.761L355.725 178.264ZM356.065 177.68L356.929 178.183L356.929 178.183L356.065 177.68ZM364.02 172.034L363.83 171.052L363.83 171.052L364.02 172.034ZM375.081 169.895L375.271 170.876L375.294 168.918L375.081 169.895ZM362.984 167.258L362.771 168.235L362.771 168.235L362.984 167.258ZM355.308 161.417L354.423 161.883L354.423 161.883L355.308 161.417ZM355.086 160.995L355.971 160.53L355.971 160.53L355.086 160.995ZM355.447 150.499L354.597 149.973L354.597 149.973L355.447 150.499ZM364.496 145.475L364.499 144.475L364.499 144.475L364.496 145.475ZM365.172 145.477L365.168 146.477L365.168 146.477L365.172 145.477ZM374.039 149.543L374.794 148.887L374.794 148.887L374.039 149.543ZM384.173 161.223L383.417 161.878L383.788 162.305L384.345 162.208L384.173 161.223ZM384.541 161.165L384.677 162.156L385.603 162.029L385.538 161.096L384.541 161.165ZM383.571 147.154L384.569 147.085L384.569 147.085L383.571 147.154ZM387.495 137.684L388.152 138.439L388.152 138.439L387.495 137.684ZM398.35 135.345L398.063 136.303L398.063 136.303L398.35 135.345ZM398.481 135.384L398.768 134.426L398.768 134.426L398.481 135.384ZM406.377 143.332L405.419 143.617L405.419 143.617L406.377 143.332ZM404.706 153.618L405.523 154.195L405.523 154.195L404.706 153.618ZM395.439 166.759L394.622 166.183L393.442 167.855L395.486 167.758L395.439 166.759ZM409.52 166.094L409.567 167.093L409.567 167.093L409.52 166.094ZM418.447 169.749L417.712 170.428L417.712 170.428L418.447 169.749ZM418.77 170.099L419.505 169.42L419.505 169.42L418.77 170.099ZM421.138 180.332L422.096 180.619L422.096 180.619L421.138 180.332ZM413.698 187.526L413.954 188.493L413.954 188.493L413.698 187.526ZM413.044 187.699L412.789 186.732L412.789 186.732L413.044 187.699ZM403.427 186.067L402.867 186.895L402.867 186.895L403.427 186.067ZM395.229 180.525L395.789 179.697L393.399 178.082L394.276 180.83L395.229 180.525ZM399.358 193.461L398.406 193.765L398.406 193.765L399.358 193.461ZM398.138 203.029L397.292 202.496L397.292 202.496L398.138 203.029ZM397.884 203.432L398.729 203.966L398.729 203.966L397.884 203.432ZM388.612 208.368L388.583 209.367L388.583 209.367L388.612 208.368ZM379.737 203.044L378.87 203.541L378.87 203.541L379.737 203.044ZM379.401 202.457L380.269 201.96L380.269 201.96L379.401 202.457ZM378.489 192.745L377.544 192.419L377.544 192.419L378.489 192.745ZM382.595 180.857L383.54 181.184L383.866 180.239L382.922 179.912L382.595 180.857ZM374.574 191.138L383.319 181.525L381.84 180.179L373.095 189.792L374.574 191.138ZM364.899 195.192C368.564 195.335 372.106 193.851 374.574 191.138L373.095 189.792C371.024 192.069 368.052 193.314 364.977 193.193L364.899 195.192ZM364.422 195.173L364.899 195.192L364.977 193.193L364.5 193.175L364.422 195.173ZM354.671 189.086C356.615 192.698 360.324 195.013 364.422 195.173L364.5 193.175C361.109 193.042 358.041 191.127 356.432 188.138L354.671 189.086ZM354.861 177.761C352.831 181.246 352.76 185.535 354.671 189.086L356.432 188.138C354.851 185.2 354.91 181.651 356.589 178.768L354.861 177.761ZM355.201 177.177L354.861 177.761L356.589 178.768L356.929 178.183L355.201 177.177ZM363.83 171.052C360.205 171.753 357.059 173.986 355.201 177.177L356.929 178.183C358.497 175.491 361.151 173.607 364.21 173.016L363.83 171.052ZM374.891 168.913L363.83 171.052L364.21 173.016L375.271 170.876L374.891 168.913ZM362.771 168.235L374.868 170.872L375.294 168.918L363.197 166.281L362.771 168.235ZM354.423 161.883C356.131 165.129 359.187 167.454 362.771 168.235L363.197 166.281C360.19 165.626 357.626 163.675 356.193 160.951L354.423 161.883ZM354.201 161.461L354.423 161.883L356.193 160.951L355.971 160.53L354.201 161.461ZM354.597 149.973C352.441 153.463 352.291 157.831 354.201 161.461L355.971 160.53C354.39 157.526 354.515 153.911 356.298 151.024L354.597 149.973ZM364.499 144.475C360.467 144.46 356.716 146.542 354.597 149.973L356.298 151.024C358.052 148.185 361.155 146.462 364.492 146.475L364.499 144.475ZM365.176 144.477L364.499 144.475L364.492 146.475L365.168 146.477L365.176 144.477ZM374.794 148.887C372.374 146.099 368.868 144.491 365.176 144.477L365.168 146.477C368.284 146.489 371.242 147.845 373.283 150.198L374.794 148.887ZM384.928 160.568L374.794 148.887L373.283 150.198L383.417 161.878L384.928 160.568ZM384.345 162.208C384.456 162.189 384.566 162.171 384.677 162.156L384.405 160.175C384.27 160.193 384.135 160.214 384 160.238L384.345 162.208ZM382.574 147.223L383.543 161.234L385.538 161.096L384.569 147.085L382.574 147.223ZM386.839 136.93C383.882 139.503 382.303 143.313 382.574 147.223L384.569 147.085C384.342 143.801 385.668 140.6 388.152 138.439L386.839 136.93ZM398.638 134.387C394.529 133.154 390.075 134.114 386.839 136.93L388.152 138.439C390.87 136.073 394.612 135.267 398.063 136.303L398.638 134.387ZM398.768 134.426L398.638 134.387L398.063 136.303L398.193 136.342L398.768 134.426ZM407.336 143.047C406.113 138.932 402.887 135.663 398.768 134.426L398.193 136.342C401.659 137.382 404.386 140.14 405.419 143.617L407.336 143.047ZM405.523 154.195C407.802 150.963 408.46 146.831 407.336 143.047L405.419 143.617C406.371 146.82 405.811 150.317 403.889 153.042L405.523 154.195ZM396.256 167.335L405.523 154.195L403.889 153.042L394.622 166.183L396.256 167.335ZM409.473 165.095L395.392 165.76L395.486 167.758L409.567 167.093L409.473 165.095ZM419.181 169.07C416.69 166.377 413.137 164.922 409.473 165.095L409.567 167.093C412.641 166.947 415.623 168.168 417.712 170.428L419.181 169.07ZM419.505 169.42L419.181 169.07L417.712 170.428L418.036 170.778L419.505 169.42ZM422.096 180.619C423.275 176.691 422.289 172.432 419.505 169.42L418.036 170.778C420.34 173.27 421.155 176.794 420.18 180.044L422.096 180.619ZM413.954 188.493C417.853 187.464 420.936 184.482 422.096 180.619L420.18 180.044C419.221 183.24 416.669 185.708 413.443 186.559L413.954 188.493ZM413.299 188.666L413.954 188.493L413.443 186.559L412.789 186.732L413.299 188.666ZM402.867 186.895C405.926 188.963 409.729 189.608 413.299 188.666L412.789 186.732C409.777 187.527 406.568 186.983 403.987 185.238L402.867 186.895ZM394.669 181.354L402.867 186.895L403.987 185.238L395.789 179.697L394.669 181.354ZM400.311 193.157L396.181 180.221L394.276 180.83L398.406 193.765L400.311 193.157ZM398.984 203.563C400.941 200.46 401.427 196.651 400.311 193.157L398.406 193.765C399.342 196.697 398.934 199.893 397.292 202.496L398.984 203.563ZM398.729 203.966L398.984 203.563L397.292 202.496L397.038 202.899L398.729 203.966ZM388.583 209.367C392.682 209.489 396.541 207.435 398.729 203.966L397.038 202.899C395.227 205.769 392.034 207.469 388.642 207.368L388.583 209.367ZM378.87 203.541C380.873 207.04 384.552 209.247 388.583 209.367L388.642 207.368C385.307 207.269 382.263 205.443 380.605 202.547L378.87 203.541ZM378.533 202.953L378.87 203.541L380.605 202.547L380.269 201.96L378.533 202.953ZM377.544 192.419C376.338 195.909 376.699 199.749 378.533 202.953L380.269 201.96C378.722 199.256 378.417 196.016 379.434 193.071L377.544 192.419ZM381.65 180.531L377.544 192.419L379.434 193.071L383.54 181.184L381.65 180.531ZM382.922 179.912C382.918 179.911 382.913 179.909 382.909 179.908L382.251 181.797C382.256 181.799 382.262 181.801 382.268 181.802L382.922 179.912Z" fill="white" mask="url(#path-12-inside-4_65_393)"/>
</g>
</svg>
