<svg width="1440" height="360" viewBox="0 0 1440 360" fill="none" xmlns="http://www.w3.org/2000/svg">
<g clip-path="url(#clip0_67_527)">
<rect width="1440" height="360" fill="#251F21"/>
<path fill-rule="evenodd" clip-rule="evenodd" d="M-26.4623 61.7697L-43.0827 9.70821C-47.3965 -3.80459 -45.5181 -18.5331 -37.9508 -30.5306L-36.8813 -32.2262C-28.4736 -45.5561 -13.6461 -53.449 2.10686 -52.9802C17.5955 -52.5193 31.7309 -44.0399 39.4288 -30.5918L40.8421 -28.1227C47.9529 -15.7002 49.3516 -0.811821 44.6787 12.7176L29.2112 57.5014L64.25 18.987C73.7955 8.49462 87.4899 2.7571 101.664 3.31187L103.667 3.39027C119.415 4.00665 133.664 12.9011 141.135 26.778C148.48 40.422 148.204 56.9033 140.407 70.2939L138.975 72.7525C131.772 85.1218 119.578 93.7773 105.524 96.4952L41.6784 108.843C41.4987 109.335 41.3101 109.823 41.1131 110.306L94.1782 136.236C107.802 142.893 117.516 155.555 120.416 170.439C123.591 186.729 118.191 203.509 106.111 214.891L105.695 215.283C93.5755 226.702 76.3412 231.205 60.1464 227.331C45.2403 223.766 32.628 213.528 26.1976 199.615L-2.17338 138.234L-29.3568 190.913C-35.8614 203.518 -47.6043 212.605 -61.4388 215.737L-63.394 216.18C-78.7648 219.661 -94.8305 214.757 -105.638 203.287C-116.264 192.009 -120.264 176.017 -116.198 161.065L-115.451 158.32C-111.695 144.508 -102.156 132.991 -89.2855 126.728L-51.8704 108.523L-107.66 96.3649C-121.519 93.3444 -133.335 84.3534 -139.942 71.8011L-140.875 70.0271C-148.216 56.0808 -147.637 39.2935 -139.355 25.8854C-131.211 12.7023 -116.8 4.7004 -101.305 4.75788L-98.46 4.76843C-84.1464 4.82153 -70.5533 11.0545 -61.1729 21.866L-26.513 61.8136C-26.4961 61.7989 -26.4792 61.7843 -26.4623 61.7697Z" fill="url(#paint0_linear_67_527)"/>
<path fill-rule="evenodd" clip-rule="evenodd" d="M1389.81 -60.6954C1433.8 -133.298 1494.41 -214.347 1481.34 -114.291C1476.34 -76.0397 1471.3 -48.8003 1466.6 -29.7228C1527.66 -70.6958 1594.64 -107.341 1560.94 -51.6921C1537.44 -12.8771 1513.67 12.5711 1494.37 28.3177L1526.46 43.4128C1644.14 112.291 1566.65 118.058 1483.34 109.217C1522.35 152.385 1552.7 197.141 1489.48 171.023C1462.19 159.749 1443.04 150.63 1429.87 143.371C1448.07 196.638 1461.89 253.419 1427.42 217.48C1403.38 192.414 1389.27 169.801 1381.46 152.405L1363.94 173.144C1284.43 251.709 1302.78 179.126 1328.88 115.526C1244.99 128.271 1144.16 133.654 1229.27 79.5961C1261.83 58.9139 1285.97 45.3186 1303.63 36.702C1233.04 16.0956 1161.98 -11.8216 1226.29 -21.6299C1264.32 -27.4292 1295.09 -26.9266 1318.48 -23.7597L1310.89 -52.7688C1288.2 -187.989 1343.02 -130.841 1389.81 -60.6954Z" fill="url(#paint1_linear_67_527)"/>
<path d="M445.679 165.636L452.942 107.061C453.576 101.947 460.596 101.02 462.536 105.794L481.664 152.866C491.246 176.448 522.791 180.761 538.352 160.616L549.247 146.513C552.403 142.426 558.928 145.223 558.146 150.327L555.775 165.785C551.798 191.716 578.206 211.695 602.078 200.816L610.395 197.027C615.432 194.731 619.913 201.11 616.045 205.07L593.539 228.111C579.402 242.584 581.499 266.255 597.96 278.019L645.87 312.255C650.157 315.318 647.402 322.073 642.196 321.264L621.026 317.975C596.402 314.15 576.585 337.952 584.809 361.475L602.44 411.904C604.247 417.071 597.631 420.968 593.988 416.882L582.235 403.7C562.399 381.453 525.569 394.82 524.62 424.611L523.239 467.999C523.07 473.318 515.811 474.726 513.666 469.855L490.107 416.368C480.016 393.457 449.088 389.686 433.788 409.501L412.929 436.513C409.791 440.578 403.297 437.836 404.022 432.751L409.658 393.209C413.313 367.563 387.346 347.898 363.651 358.368L319.228 377.996C314.355 380.15 309.942 374.204 313.415 370.164L356.041 320.573C369.549 304.859 365.4 280.729 347.419 270.428L341.871 267.25C337.52 264.757 339.138 258.124 344.149 257.916L352.796 257.556C375.369 256.617 390.345 233.783 382.212 212.705L369.846 180.655C367.982 175.825 373.786 171.695 377.738 175.037L391.624 186.776C411.642 203.701 442.452 191.652 445.679 165.636Z" fill="url(#paint2_linear_67_527)"/>
<path d="M804.524 78.129L767.772 114.099C774.972 160.472 811.114 182.03 828.285 187.013C875.239 201.312 969.895 197.237 972.894 66.5438C975.893 -64.1496 870.9 -81.2479 818.029 -73.4604L829.438 -14.8493C858.038 -40.633 885.844 -27.7986 900.457 11.6258C917.671 58.0649 922.364 130.322 865.951 140.406C809.538 150.49 801.494 103.09 804.524 78.129Z" fill="url(#paint3_linear_67_527)" stroke="#1D38BD"/>
<path d="M1022.82 303.527C1016.28 304.813 1009.22 304.923 1002.6 304.098C600.761 253.988 660.858 552.007 718.74 665.668C776.523 779.135 916.17 875.835 1057.46 807.247C1060.32 805.861 1063.28 804.622 1066.28 803.579C1261.05 735.777 1406.44 439.069 1348.51 325.323C1291.2 212.771 1201.64 268.403 1022.82 303.527Z" fill="url(#paint4_linear_67_527)"/>
<path d="M66.5003 -100.371C38.8336 -68.3709 14.4003 40.4291 138 219.629C136.667 92.4624 120.5 -149.571 66.5003 -100.371Z" stroke="#DBDAD5"/>
<path d="M269.5 216.629C201.833 134.129 76.7997 -42.3708 118 -88.3708C159.2 -134.371 236.166 95.7958 269.5 216.629Z" stroke="#DBDAD5"/>
<path d="M402.501 155.129C305.001 89.1291 123.701 -51.9709 178.501 -88.3709C233.301 -124.771 350.667 58.7958 402.501 155.129Z" stroke="#DBDAD5"/>
<path d="M-12 84.6292C5.16667 25.2959 43.3 -95.5708 58.5 -104.371C77.5 -115.371 -12 -139.371 -12 84.6292Z" stroke="#DBDAD5"/>
<path d="M1374.59 381.813C1423.43 386.672 1480.02 403.157 1521.52 423.649C1542.27 433.897 1559.2 445.128 1569.51 456.379C1579.83 467.638 1583.4 478.788 1577.8 488.982C1572.15 499.256 1561.09 505.632 1545.52 508.121C1529.94 510.611 1509.89 509.196 1486.41 503.933C1439.45 493.408 1378.87 467.528 1313.01 427.002C1278.82 405.964 1248.25 388.457 1221.95 373.394L1220.87 372.771C1194.32 357.565 1172.18 344.863 1155.09 333.521C1137.99 322.172 1126.01 312.222 1119.73 302.536C1116.6 297.701 1114.89 292.947 1114.67 288.128C1114.44 283.311 1115.69 278.394 1118.54 273.228C1121.35 268.109 1124.87 265.774 1129.16 265.485C1133.53 265.192 1138.8 267.001 1145.1 270.466C1154.1 275.423 1165 283.649 1178.05 293.492C1183.23 297.405 1188.76 301.572 1194.63 305.892C1235.91 336.225 1294.39 373.833 1374.59 381.813Z" stroke="#DBDAD5"/>
<path d="M1458.48 231.257C1447.17 185.613 1423.4 134.58 1397.7 98.5944C1384.85 80.5982 1371.54 66.4019 1359.1 58.5148C1346.66 50.6262 1335.22 49.1155 1325.93 56.1958C1316.57 63.3301 1311.78 74.9411 1311.41 90.1798C1311.05 105.427 1315.12 124.253 1323.43 145.698C1340.06 188.583 1373.61 241.81 1422.27 297.574C1447.53 326.524 1468.84 352.626 1487.17 375.083L1487.93 376.011C1506.43 398.682 1521.88 417.582 1535.32 431.907C1548.77 446.242 1560.15 455.94 1570.51 460.264C1575.68 462.422 1580.59 463.236 1585.36 462.628C1590.13 462.02 1594.8 459.987 1599.5 456.4C1604.17 452.843 1605.99 449.09 1605.7 444.964C1605.41 440.773 1602.93 436.073 1598.68 430.675C1594.45 425.291 1588.51 419.286 1581.41 412.484C1578.35 409.555 1575.07 406.471 1571.61 403.227C1567.07 398.96 1562.24 394.415 1557.22 389.579C1521.87 355.474 1477.05 306.228 1458.48 231.257Z" stroke="#DBDAD5"/>
<path d="M1325.54 246.323C1283.59 221.523 1248.62 176.088 1220.04 138.961C1218.41 136.839 1216.8 134.744 1215.21 132.682C1200.46 113.581 1187.53 97.2977 1176.27 88.0142C1170.64 83.3716 1165.49 80.5313 1160.79 79.9216C1156.14 79.3178 1151.87 80.8937 1147.92 85.2606C1140.01 94.0281 1138.33 106.781 1142.53 122.683C1146.74 138.586 1156.8 157.548 1172.23 178.598C1203.09 220.691 1255.3 271.019 1324.56 321.745C1360.51 348.075 1391.34 372.032 1417.86 392.645L1418.96 393.497C1445.73 414.304 1468.08 431.652 1486.89 444.547C1505.71 457.448 1520.92 465.851 1533.41 468.816C1539.64 470.297 1545.18 470.416 1550.14 469.081C1555.09 467.746 1559.51 464.95 1563.49 460.54C1567.43 456.176 1569.09 451.011 1568.68 445.108C1568.26 439.187 1565.77 432.507 1561.36 425.157C1552.54 410.456 1536.15 393.215 1513.94 374.235C1469.53 336.285 1401.97 291.5 1325.54 246.323Z" stroke="#DBDAD5"/>
<path d="M960.746 -12.9786C592.998 87.6053 652.057 420.969 727.555 575.078C549.697 706.622 405.601 519.829 355.785 409.989C475.89 338.591 691.03 137.041 590.743 -97.979C490.455 -332.999 615.692 -372.353 690.846 -362.652C934.041 -288.004 1328.49 -113.562 960.746 -12.9786Z" stroke="#DBDAD5"/>
<mask id="path-14-inside-1_67_527" fill="white">
<path fill-rule="evenodd" clip-rule="evenodd" d="M790.342 359.946C753.464 292.819 717.478 208.906 789.755 264.255C817.39 285.418 836.402 301.641 849.184 313.923C844.717 247.729 846.297 178.866 874.577 230.296C894.302 266.167 903.465 296.213 907.058 318.402L933.327 300.138C1040.22 239.265 1009.78 302.404 965.292 363.506C1016.61 352.504 1065.27 348.978 1016.35 386.594C995.227 402.832 979.466 413.674 967.853 420.692C1017.68 430.503 1068.28 445.314 1024.65 456.035C994.223 463.513 970.192 464.335 953.074 462.595L961.375 485.638C986.894 583.196 938.462 536.115 900.542 487.036C872.658 558.33 831.378 639.542 827.536 548.657C826.066 513.886 826.331 488.897 827.564 471.213C779.622 517.07 725.756 559.995 747.103 505.323C759.725 472.997 774 449.18 787.027 432.331L760.935 425.182C645.051 381.912 714.431 364.859 790.342 359.946Z"/>
</mask>
<path d="M789.755 264.255L789.147 265.049L789.147 265.049L789.755 264.255ZM790.342 359.946L790.406 360.944L791.975 360.842L791.218 359.464L790.342 359.946ZM849.184 313.923L848.492 314.644L850.356 316.436L850.182 313.856L849.184 313.923ZM874.577 230.296L873.701 230.778L873.701 230.778L874.577 230.296ZM907.058 318.402L906.071 318.562L906.325 320.13L907.629 319.223L907.058 318.402ZM933.327 300.138L932.832 299.269L932.793 299.291L932.756 299.317L933.327 300.138ZM965.292 363.506L964.484 362.917L962.944 365.032L965.502 364.484L965.292 363.506ZM1016.35 386.594L1016.96 387.387L1016.96 387.387L1016.35 386.594ZM967.853 420.692L967.335 419.837L965.122 421.174L967.659 421.674L967.853 420.692ZM1024.65 456.035L1024.42 455.064L1024.42 455.064L1024.65 456.035ZM953.074 462.595L953.175 461.601L951.595 461.44L952.133 462.934L953.074 462.595ZM961.375 485.638L962.342 485.385L962.331 485.342L962.315 485.299L961.375 485.638ZM900.542 487.036L901.333 486.425L900.254 485.028L899.61 486.672L900.542 487.036ZM827.536 548.657L826.537 548.699L827.536 548.657ZM827.564 471.213L828.562 471.282L828.742 468.703L826.873 470.49L827.564 471.213ZM747.103 505.323L746.172 504.96L746.172 504.96L747.103 505.323ZM787.027 432.331L787.818 432.943L788.731 431.761L787.291 431.367L787.027 432.331ZM760.935 425.182L760.585 426.119L760.628 426.134L760.671 426.146L760.935 425.182ZM790.363 263.461C781.304 256.523 773.901 251.737 767.956 248.824C762.049 245.93 757.425 244.807 753.99 245.433C752.24 245.752 750.802 246.525 749.7 247.726C748.607 248.916 747.893 250.472 747.48 252.287C746.659 255.892 746.984 260.716 748.135 266.371C750.444 277.711 756.18 292.847 763.617 309.303C771.061 325.776 780.238 343.631 789.465 360.427L791.218 359.464C782.007 342.697 772.856 324.89 765.439 308.479C758.016 292.052 752.358 277.083 750.095 265.972C748.961 260.402 748.705 255.915 749.43 252.731C749.789 251.152 750.378 249.945 751.173 249.079C751.958 248.224 752.991 247.648 754.348 247.4C757.128 246.894 761.261 247.771 767.077 250.62C772.854 253.451 780.138 258.15 789.147 265.049L790.363 263.461ZM849.877 313.202C837.058 300.885 818.015 284.637 790.363 263.461L789.147 265.049C816.765 286.199 835.745 302.396 848.492 314.644L849.877 313.202ZM875.453 229.814C871.902 223.355 868.736 218.722 865.911 215.722C863.121 212.761 860.481 211.2 857.987 211.359C855.429 211.522 853.5 213.446 852.049 216.241C850.585 219.061 849.465 223.025 848.616 227.826C845.22 247.025 845.954 280.906 848.187 313.991L850.182 313.856C847.948 280.747 847.238 247.099 850.585 228.175C851.421 223.446 852.499 219.716 853.824 217.162C855.163 214.582 856.616 213.45 858.114 213.355C859.675 213.256 861.763 214.236 864.455 217.094C867.112 219.914 870.182 224.379 873.701 230.778L875.453 229.814ZM908.045 318.242C904.432 295.931 895.228 265.776 875.453 229.814L873.701 230.778C893.375 266.557 902.497 296.495 906.071 318.562L908.045 318.242ZM932.756 299.317L906.487 317.581L907.629 319.223L933.897 300.959L932.756 299.317ZM966.1 364.094C977.235 348.802 987.506 333.361 994.975 319.748C998.709 312.942 1001.75 306.576 1003.85 300.901C1005.95 295.241 1007.13 290.201 1007.08 286.069C1007.03 281.917 1005.72 278.546 1002.71 276.499C999.749 274.49 995.367 273.919 989.529 274.776C977.845 276.492 959.563 284.047 932.832 299.269L933.821 301.007C960.539 285.792 978.538 278.412 989.82 276.755C995.465 275.926 999.238 276.56 1001.59 278.154C1003.88 279.709 1005.03 282.339 1005.08 286.093C1005.12 289.869 1004.04 294.641 1001.98 300.207C999.922 305.759 996.927 312.032 993.221 318.786C985.81 332.295 975.593 347.659 964.484 362.917L966.1 364.094ZM1016.96 387.387C1023.1 382.666 1027.73 378.57 1031.04 375.033C1034.32 371.512 1036.35 368.477 1037.18 365.872C1038.03 363.199 1037.61 360.917 1035.95 359.169C1034.37 357.505 1031.79 356.461 1028.6 355.837C1022.21 354.582 1012.71 354.898 1001.68 356.189C990.627 357.484 977.93 359.774 965.082 362.528L965.502 364.484C978.315 361.737 990.945 359.461 1001.92 358.176C1012.92 356.887 1022.15 356.609 1028.22 357.8C1031.27 358.398 1033.35 359.336 1034.5 360.546C1035.57 361.671 1035.94 363.153 1035.27 365.268C1034.58 367.45 1032.79 370.225 1029.57 373.668C1026.37 377.096 1021.83 381.118 1015.74 385.801L1016.96 387.387ZM968.37 421.548C980.027 414.504 995.819 403.638 1016.96 387.387L1015.74 385.801C994.634 402.026 978.906 412.845 967.335 419.837L968.37 421.548ZM1024.89 457.006C1030.38 455.658 1034.45 454.23 1037.26 452.721C1040.01 451.237 1041.77 449.549 1042.17 447.567C1042.58 445.521 1041.47 443.635 1039.67 441.99C1037.85 440.325 1035.11 438.699 1031.72 437.116C1018.17 430.788 992.947 424.614 968.046 419.711L967.659 421.674C992.585 426.581 1017.58 432.718 1030.88 438.929C1034.2 440.48 1036.72 442.004 1038.32 443.466C1039.94 444.948 1040.41 446.169 1040.21 447.173C1040 448.239 1038.94 449.544 1036.31 450.96C1033.72 452.352 1029.84 453.732 1024.42 455.064L1024.89 457.006ZM952.973 463.59C970.214 465.342 994.361 464.509 1024.89 457.006L1024.42 455.064C994.086 462.517 970.17 463.327 953.175 461.601L952.973 463.59ZM962.315 485.299L954.015 462.257L952.133 462.934L960.434 485.977L962.315 485.299ZM899.75 487.648C909.243 499.934 919.405 512.11 928.915 521.937C938.39 531.729 947.325 539.306 954.363 542.249C957.881 543.72 961.145 544.124 963.791 542.786C966.456 541.438 968.156 538.497 968.952 534.094C970.54 525.314 968.72 509.769 962.342 485.385L960.407 485.891C966.789 510.287 968.485 525.44 966.984 533.738C966.236 537.872 964.74 540.065 962.889 541.001C961.018 541.947 958.445 541.788 955.134 540.403C948.513 537.635 939.826 530.337 930.352 520.547C920.913 510.791 910.8 498.678 901.333 486.425L899.75 487.648ZM826.537 548.699C827.018 560.092 828.088 568.836 829.661 575.265C831.224 581.653 833.323 585.924 836.001 588.163C837.366 589.305 838.878 589.916 840.505 589.996C842.118 590.075 843.768 589.631 845.425 588.789C848.714 587.117 852.206 583.786 855.804 579.288C863.02 570.27 870.954 556.191 878.812 539.958C886.678 523.708 894.496 505.239 901.473 487.4L899.61 486.672C892.646 504.48 884.848 522.898 877.011 539.086C869.167 555.292 861.312 569.203 854.242 578.039C850.698 582.468 847.422 585.53 844.519 587.006C843.079 587.738 841.776 588.056 840.604 587.998C839.447 587.941 838.343 587.515 837.284 586.629C835.116 584.816 833.142 581.078 831.604 574.79C830.075 568.542 829.014 559.944 828.535 548.615L826.537 548.699ZM826.567 471.143C825.33 488.877 825.066 513.907 826.537 548.699L828.535 548.615C827.066 513.865 827.332 488.916 828.562 471.282L826.567 471.143ZM746.172 504.96C743.491 511.826 741.964 517.225 741.472 521.316C740.988 525.356 741.482 528.383 743.202 530.195C744.966 532.054 747.68 532.302 750.755 531.624C753.858 530.94 757.618 529.26 761.848 526.834C778.759 517.135 804.293 494.856 828.255 471.935L826.873 470.49C802.893 493.427 777.523 515.539 760.853 525.099C756.687 527.488 753.134 529.052 750.324 529.671C747.486 530.297 745.686 529.907 744.653 528.819C743.576 527.684 742.99 525.453 743.458 521.555C743.92 517.708 745.379 512.489 748.035 505.687L746.172 504.96ZM786.236 431.72C773.147 448.649 758.826 472.551 746.172 504.96L748.035 505.687C760.625 473.444 774.853 449.711 787.818 432.943L786.236 431.72ZM760.671 426.146L786.763 433.296L787.291 431.367L761.199 424.217L760.671 426.146ZM790.277 358.948C771.278 360.177 752.663 362.168 737.236 365.145C729.524 366.633 722.589 368.372 716.793 370.393C711.012 372.409 706.296 374.728 703.075 377.412C699.842 380.105 698.007 383.265 698.302 386.902C698.591 390.476 700.92 394.221 705.297 398.168C714.056 406.066 731.608 415.299 760.585 426.119L761.285 424.245C732.32 413.43 715.088 404.305 706.636 396.683C702.407 392.869 700.523 389.563 700.295 386.74C700.072 383.981 701.415 381.398 704.355 378.948C707.308 376.489 711.764 374.264 717.452 372.281C723.126 370.303 729.96 368.586 737.615 367.109C752.927 364.154 771.45 362.17 790.406 360.944L790.277 358.948Z" fill="#DBDAD5" mask="url(#path-14-inside-1_67_527)"/>
</g>
<defs>
<linearGradient id="paint0_linear_67_527" x1="-2.39804e-06" y1="-53" x2="-3.32e-06" y2="229" gradientUnits="userSpaceOnUse">
<stop stop-color="#AC3AC3"/>
<stop offset="1" stop-color="#1D38BD"/>
</linearGradient>
<linearGradient id="paint1_linear_67_527" x1="1392" y1="2.00001" x2="1391.76" y2="228.762" gradientUnits="userSpaceOnUse">
<stop stop-color="#AC3AC3"/>
<stop offset="1" stop-color="#0057FF"/>
</linearGradient>
<linearGradient id="paint2_linear_67_527" x1="481" y1="88" x2="481" y2="490" gradientUnits="userSpaceOnUse">
<stop stop-color="#AC3AC3"/>
<stop offset="1" stop-color="#1F3DBF"/>
</linearGradient>
<linearGradient id="paint3_linear_67_527" x1="880" y1="-3.5" x2="1007" y2="217" gradientUnits="userSpaceOnUse">
<stop stop-color="#AC3AC3"/>
<stop offset="1" stop-color="#1D38BD"/>
</linearGradient>
<linearGradient id="paint4_linear_67_527" x1="1012.5" y1="255" x2="1039" y2="506" gradientUnits="userSpaceOnUse">
<stop stop-color="#AC3AC3"/>
<stop offset="1" stop-color="#1D38BD"/>
</linearGradient>
<clipPath id="clip0_67_527">
<rect width="1440" height="360" fill="white"/>
</clipPath>
</defs>
</svg>
