<svg width="1200" height="468" viewBox="0 0 1200 468" fill="none" xmlns="http://www.w3.org/2000/svg">
<g clip-path="url(#clip0_48_57)">
<path d="M0 0H1200C1200 258.469 990.469 468 732 468H0V0Z" fill="#251F21"/>
<path fill-rule="evenodd" clip-rule="evenodd" d="M85.0963 47.3624C129.095 -25.2405 189.701 -106.289 176.627 -6.23295C171.628 32.0182 166.593 59.2576 161.887 78.3351C222.951 37.3621 289.927 0.716366 256.232 56.3658C232.73 95.1808 208.965 120.629 189.657 136.376L221.75 151.471C339.43 220.349 261.944 226.116 178.635 217.274C217.64 260.443 247.995 305.199 184.77 279.081C157.478 267.807 138.335 258.688 125.162 251.429C143.359 304.696 157.185 361.477 122.715 325.538C98.6722 300.472 84.5646 277.859 76.7472 260.463L59.2281 281.202C-20.2762 359.766 -1.92451 287.184 24.1711 223.583C-59.7189 236.329 -160.552 241.711 -75.4399 187.654C-42.8762 166.972 -18.7409 153.376 -1.0817 144.76C-71.6721 124.153 -142.73 96.2362 -78.4183 86.4279C-40.3927 80.6286 -9.61865 81.1313 13.7746 84.2982L6.17709 55.2891C-16.5121 -79.9316 38.3094 -22.7834 85.0963 47.3624Z" fill="#B7CE01"/>
<mask id="path-3-inside-1_48_57" fill="white">
<path fill-rule="evenodd" clip-rule="evenodd" d="M87.2341 91.8277C112.161 50.6944 146.498 4.77625 139.091 61.4631C136.259 83.1343 133.406 98.5668 130.74 109.375C165.336 86.1619 203.281 65.4002 184.191 96.9285C170.876 118.919 157.412 133.337 146.473 142.258L164.656 150.81C231.327 189.833 187.427 193.1 140.229 188.091C162.327 212.548 179.525 237.905 143.704 223.108C128.242 216.721 117.397 211.554 109.934 207.442C120.243 237.62 128.076 269.789 108.547 249.428C94.9257 235.227 86.933 222.415 82.5041 212.56L72.5786 224.309C27.5354 268.82 37.9325 227.699 52.717 191.666C5.18903 198.887 -51.938 201.936 -3.71766 171.31C14.7314 159.592 28.4053 151.89 38.4102 147.008C-1.58297 135.334 -41.8412 119.517 -5.40519 113.96C16.1382 110.675 33.5733 110.959 46.8267 112.754L42.5224 96.3185C29.6678 19.709 60.727 52.0865 87.2341 91.8277Z"/>
</mask>
<path d="M139.091 61.4631L138.099 61.3335L139.091 61.4631ZM87.2341 91.8277L86.4022 92.3826L87.2745 93.6905L88.0893 92.346L87.2341 91.8277ZM130.74 109.375L129.769 109.136L129.15 111.646L131.297 110.206L130.74 109.375ZM184.191 96.9285L185.046 97.4464L184.191 96.9285ZM146.473 142.258L145.841 141.483L144.61 142.487L146.047 143.163L146.473 142.258ZM164.656 150.81L165.161 149.947L165.122 149.924L165.081 149.905L164.656 150.81ZM140.229 188.091L140.334 187.097L137.733 186.821L139.487 188.762L140.229 188.091ZM143.704 223.108L143.323 224.032L143.704 223.108ZM109.934 207.442L110.416 206.566L108.151 205.318L108.987 207.765L109.934 207.442ZM108.547 249.428L109.269 248.736L108.547 249.428ZM82.5041 212.56L83.4162 212.15L82.7651 210.701L81.7402 211.915L82.5041 212.56ZM72.5786 224.309L73.2815 225.021L73.3135 224.989L73.3425 224.955L72.5786 224.309ZM52.717 191.666L53.6421 192.045L54.3123 190.412L52.5668 190.677L52.717 191.666ZM-3.71766 171.31L-3.18152 172.154L-3.71766 171.31ZM38.4102 147.008L38.8487 147.907L41.1728 146.773L38.6904 146.048L38.4102 147.008ZM-5.40519 113.96L-5.55596 112.972L-5.40519 113.96ZM46.8267 112.754L46.6926 113.745L48.1725 113.945L47.7941 112.5L46.8267 112.754ZM42.5224 96.3185L41.5361 96.4839L41.5436 96.5283L41.555 96.5718L42.5224 96.3185ZM140.082 61.5927C141.012 54.4754 141.294 48.9196 141.009 44.7374C140.727 40.5972 139.88 37.6273 138.381 35.8613C137.61 34.9529 136.669 34.3673 135.584 34.1258C134.514 33.8877 133.375 33.9997 132.215 34.3584C129.921 35.0677 127.351 36.8016 124.625 39.214C119.151 44.059 112.7 51.9591 106.082 61.1753C99.4538 70.4062 92.6194 81.0118 86.3789 91.3094L88.0893 92.346C94.3125 82.0769 101.118 71.5178 107.707 62.3418C114.307 53.151 120.651 45.4021 125.951 40.7117C128.612 38.3565 130.924 36.8511 132.806 36.2691C133.735 35.9821 134.509 35.9355 135.149 36.0781C135.775 36.2174 136.344 36.552 136.856 37.1556C137.924 38.4136 138.739 40.8352 139.014 44.8734C139.286 48.8696 139.021 54.2791 138.099 61.3335L140.082 61.5927ZM131.711 109.615C134.389 98.7574 137.248 83.2852 140.082 61.5927L138.099 61.3335C135.27 82.9835 132.423 98.3762 129.769 109.136L131.711 109.615ZM185.046 97.4464C187.45 93.4759 188.995 90.2687 189.752 87.7467C190.494 85.2742 190.556 83.2054 189.59 81.754C188.59 80.2495 186.766 79.8013 184.745 79.8918C182.696 79.9836 180.147 80.6335 177.256 81.6839C165.701 85.8824 147.471 96.945 130.183 108.545L131.297 110.206C148.605 98.592 166.645 87.6672 177.939 83.5636C180.761 82.5385 183.085 81.9682 184.835 81.8898C186.613 81.8102 187.513 82.2418 187.925 82.8618C188.373 83.535 188.538 84.8354 187.836 87.1716C187.15 89.4582 185.704 92.4989 183.336 96.4105L185.046 97.4464ZM147.105 143.033C158.14 134.033 171.677 119.526 185.046 97.4464L183.336 96.4105C170.075 118.312 156.684 132.64 145.841 141.483L147.105 143.033ZM165.081 149.905L146.898 141.353L146.047 143.163L164.23 151.715L165.081 149.905ZM140.123 189.086C151.944 190.34 163.584 191.08 173.355 190.867C178.24 190.76 182.677 190.415 186.447 189.772C190.201 189.13 193.365 188.181 195.654 186.823C197.96 185.454 199.49 183.594 199.668 181.148C199.841 178.771 198.709 176.116 196.387 173.182C191.739 167.307 181.835 159.707 165.161 149.947L164.151 151.673C180.812 161.425 190.423 168.867 194.819 174.423C197.02 177.205 197.793 179.363 197.673 181.003C197.559 182.575 196.597 183.937 194.633 185.103C192.651 186.279 189.765 187.176 186.11 187.8C182.47 188.422 178.137 188.762 173.311 188.867C163.659 189.077 152.113 188.347 140.334 187.097L140.123 189.086ZM143.323 224.032C147.828 225.894 151.533 227.137 154.52 227.829C157.487 228.516 159.84 228.682 161.596 228.295C163.421 227.893 164.657 226.869 165.132 225.263C165.573 223.77 165.3 221.947 164.632 219.996C163.286 216.065 160.101 210.96 155.934 205.364C151.748 199.744 146.507 193.548 140.971 187.421L139.487 188.762C144.999 194.863 150.195 201.008 154.33 206.559C158.482 212.134 161.502 217.028 162.74 220.644C163.364 222.466 163.478 223.803 163.214 224.696C162.983 225.477 162.419 226.066 161.165 226.342C159.842 226.633 157.834 226.544 154.971 225.881C152.129 225.223 148.536 224.022 144.086 222.184L143.323 224.032ZM109.451 208.317C116.958 212.454 127.841 217.637 143.323 224.032L144.086 222.184C128.644 215.805 117.835 210.654 110.416 206.566L109.451 208.317ZM107.826 250.121C110.29 252.691 112.372 254.484 114.111 255.559C115.806 256.606 117.404 257.111 118.772 256.649C120.201 256.167 120.923 254.803 121.263 253.264C121.609 251.696 121.631 249.655 121.426 247.301C120.608 237.893 116.031 222.196 110.88 207.118L108.987 207.765C114.146 222.866 118.64 238.343 119.434 247.474C119.632 249.754 119.591 251.559 119.31 252.833C119.023 254.136 118.555 254.612 118.133 254.754C117.65 254.917 116.736 254.83 115.162 253.857C113.632 252.912 111.686 251.256 109.269 248.736L107.826 250.121ZM81.5919 212.97C86.0717 222.938 94.1318 235.844 107.826 250.121L109.269 248.736C95.7197 234.61 87.7944 221.893 83.4162 212.15L81.5919 212.97ZM73.3425 224.955L83.268 213.205L81.7402 211.915L71.8147 223.664L73.3425 224.955ZM51.7918 191.286C48.0878 200.314 44.6512 209.677 42.2874 217.952C39.9372 226.18 38.6003 233.485 39.2205 238.319C39.5306 240.736 40.3606 242.772 42.0545 243.879C43.7663 244.998 46.0386 244.962 48.7314 243.995C54.0903 242.071 62.0251 236.144 73.2815 225.021L71.8757 223.598C60.6105 234.73 52.9537 240.354 48.0556 242.113C45.62 242.987 44.0975 242.825 43.1487 242.205C42.182 241.573 41.4857 240.258 41.2043 238.064C40.6414 233.678 41.8607 226.728 44.2105 218.502C46.5467 210.323 49.9539 201.034 53.6421 192.045L51.7918 191.286ZM-4.25379 170.466C-10.3081 174.311 -14.751 177.654 -17.7782 180.552C-20.7751 183.42 -22.5129 185.973 -22.9114 188.254C-23.1164 189.428 -22.9655 190.525 -22.4583 191.513C-21.958 192.488 -21.1453 193.29 -20.1292 193.952C-18.1198 195.259 -15.1482 196.122 -11.5566 196.669C-4.34345 197.769 5.83854 197.66 17.1399 196.836C28.4596 196.011 40.9687 194.462 52.8672 192.655L52.5668 190.677C40.7013 192.48 28.2465 194.021 16.9945 194.841C5.72423 195.663 -4.27326 195.756 -11.2553 194.692C-14.7614 194.158 -17.3913 193.347 -19.0383 192.275C-19.8505 191.747 -20.3798 191.183 -20.679 190.6C-20.9713 190.03 -21.0776 189.379 -20.9412 188.599C-20.6571 186.972 -19.3181 184.794 -16.3951 181.996C-13.5024 179.227 -9.18228 175.965 -3.18152 172.154L-4.25379 170.466ZM37.9716 146.11C27.9215 151.013 14.2134 158.737 -4.25379 170.466L-3.18152 172.154C15.2494 160.448 28.8891 152.767 38.8487 147.907L37.9716 146.11ZM-5.55596 112.972C-10.1445 113.671 -13.5961 114.542 -16.0172 115.577C-18.3907 116.592 -20.0182 117.871 -20.5133 119.543C-21.0265 121.275 -20.2014 122.962 -18.8368 124.455C-17.4526 125.97 -15.3202 127.509 -12.6609 129.055C-2.03147 135.233 18.1452 142.134 38.1299 147.968L38.6904 146.048C18.682 140.208 -1.267 133.364 -11.6559 127.326C-14.2513 125.817 -16.1793 124.398 -17.3606 123.106C-18.5616 121.792 -18.8072 120.825 -18.5957 120.111C-18.366 119.335 -17.4734 118.375 -15.2307 117.416C-13.0356 116.477 -9.77489 115.638 -5.25442 114.949L-5.55596 112.972ZM46.9609 111.763C33.6065 109.955 16.0753 109.673 -5.55596 112.972L-5.25442 114.949C16.2012 111.677 33.5401 111.964 46.6926 113.745L46.9609 111.763ZM41.555 96.5718L45.8594 113.007L47.7941 112.5L43.4897 96.0651L41.555 96.5718ZM88.066 91.2728C81.4273 81.3196 74.49 71.8065 68.0131 64.3353C64.7749 60.5999 61.6391 57.3602 58.7021 54.8272C55.7764 52.3038 52.9946 50.4349 50.463 49.5031C47.9163 48.5658 45.4832 48.5348 43.463 49.9298C41.4947 51.289 40.1599 53.8442 39.38 57.4999C37.8186 64.8186 38.3214 77.3249 41.5361 96.4839L43.5086 96.153C40.296 77.0073 39.8607 64.8322 41.336 57.9172C42.0744 54.4561 43.2515 52.5064 44.5995 51.5755C45.8957 50.6805 47.5832 50.5744 49.7722 51.38C51.9762 52.1912 54.5452 53.8831 57.3959 56.3417C60.2353 58.7906 63.3017 61.9538 66.5019 65.6454C72.9021 73.0282 79.7873 82.4651 86.4022 92.3826L88.066 91.2728Z" fill="#DBDAD5" mask="url(#path-3-inside-1_48_57)"/>
<mask id="path-5-inside-2_48_57" fill="white">
<path fill-rule="evenodd" clip-rule="evenodd" d="M78.489 140.482C71.9117 128.51 65.4936 113.544 78.3844 123.416C83.3126 127.19 86.7033 130.083 88.9831 132.274C88.1864 120.468 88.4682 108.187 93.512 117.359C97.03 123.757 98.6642 129.116 99.3051 133.073L103.991 129.816C123.056 118.959 117.626 130.22 109.692 141.117C118.845 139.155 127.524 138.526 118.798 145.235C115.031 148.131 112.22 150.065 110.148 151.317C119.035 153.067 128.06 155.708 120.279 157.62C114.852 158.954 110.566 159.1 107.513 158.79L108.993 162.9C113.545 180.299 104.907 171.903 98.1436 163.15C93.1705 175.865 85.8082 190.349 85.1229 174.14C84.8607 167.938 84.908 163.481 85.128 160.327C76.5773 168.506 66.9702 176.162 70.7775 166.411C73.0286 160.645 75.5745 156.398 77.8979 153.393L73.2442 152.117C52.576 144.4 64.9501 141.359 78.489 140.482Z"/>
</mask>
<path d="M78.3844 123.416L77.7764 124.21L78.3844 123.416ZM78.489 140.482L78.5536 141.48L80.1224 141.379L79.3654 140.001L78.489 140.482ZM88.9831 132.274L88.2902 132.995L90.155 134.787L89.9808 132.206L88.9831 132.274ZM93.512 117.359L92.6357 117.841L93.512 117.359ZM99.3051 133.073L98.3179 133.233L98.5718 134.801L99.8759 133.894L99.3051 133.073ZM103.991 129.816L103.496 128.947L103.457 128.969L103.42 128.995L103.991 129.816ZM109.692 141.117L108.883 140.529L107.344 142.644L109.901 142.095L109.692 141.117ZM118.798 145.235L119.407 146.028L119.407 146.028L118.798 145.235ZM110.148 151.317L109.631 150.461L107.418 151.798L109.955 152.298L110.148 151.317ZM120.279 157.62L120.518 158.591L120.279 157.62ZM107.513 158.79L107.614 157.795L106.034 157.635L106.572 159.129L107.513 158.79ZM108.993 162.9L109.96 162.647L109.949 162.603L109.934 162.561L108.993 162.9ZM98.1436 163.15L98.9349 162.538L97.8554 161.141L97.2123 162.785L98.1436 163.15ZM85.1229 174.14L84.1238 174.182L85.1229 174.14ZM85.128 160.327L86.1256 160.397L86.3056 157.817L84.4368 159.604L85.128 160.327ZM70.7775 166.411L71.709 166.775L71.709 166.775L70.7775 166.411ZM77.8979 153.393L78.689 154.004L79.6025 152.823L78.1622 152.428L77.8979 153.393ZM73.2442 152.117L72.8944 153.054L72.9366 153.07L72.98 153.082L73.2442 152.117ZM78.9924 122.622C77.3558 121.369 75.9871 120.479 74.858 119.926C73.7667 119.391 72.7401 119.09 71.8582 119.25C71.3845 119.337 70.9624 119.556 70.635 119.912C70.318 120.258 70.139 120.678 70.0432 121.099C69.8576 121.915 69.9438 122.914 70.1562 123.957C70.5872 126.074 71.6421 128.842 72.9738 131.789C74.3129 134.752 75.9602 137.956 77.6125 140.964L79.3654 140.001C77.7291 137.023 76.1076 133.867 74.7963 130.965C73.4775 128.047 72.5004 125.446 72.116 123.558C71.9208 122.599 71.9035 121.938 71.9934 121.543C72.0354 121.358 72.0889 121.286 72.1085 121.265C72.1177 121.255 72.1363 121.233 72.2167 121.218C72.4431 121.177 72.9786 121.232 73.978 121.722C74.9397 122.193 76.1902 122.995 77.7764 124.21L78.9924 122.622ZM89.676 131.553C87.3598 129.327 83.9376 126.409 78.9924 122.622L77.7764 124.21C82.6876 127.971 86.0467 130.839 88.2902 132.995L89.676 131.553ZM94.3882 116.877C93.7412 115.701 93.1376 114.805 92.5645 114.197C92.0268 113.626 91.3291 113.109 90.501 113.162C89.6093 113.218 89.0695 113.887 88.7649 114.474C88.4468 115.086 88.2294 115.889 88.0726 116.775C87.447 120.312 87.5878 126.451 87.9854 132.341L89.9808 132.206C89.5816 126.291 89.4649 120.386 90.042 117.124C90.1859 116.31 90.3604 115.741 90.5399 115.395C90.7329 115.024 90.7963 115.147 90.6278 115.158C90.5231 115.164 90.6686 115.101 91.1087 115.568C91.5133 115.998 92.0218 116.725 92.6357 117.841L94.3882 116.877ZM100.292 132.913C99.6316 128.834 97.9566 123.367 94.3882 116.877L92.6357 117.841C96.1034 124.147 97.6969 129.398 98.3179 133.233L100.292 132.913ZM103.42 128.995L98.7342 132.252L99.8759 133.894L104.561 130.637L103.42 128.995ZM110.5 141.706C112.496 138.964 114.35 136.179 115.706 133.708C116.384 132.473 116.946 131.3 117.339 130.237C117.727 129.189 117.977 128.18 117.966 127.297C117.955 126.393 117.662 125.487 116.826 124.92C116.047 124.391 115.015 124.315 113.895 124.479C111.646 124.81 108.269 126.229 103.496 128.947L104.485 130.685C109.245 127.974 112.339 126.729 114.186 126.458C115.113 126.322 115.536 126.461 115.703 126.575C115.815 126.65 115.96 126.814 115.966 127.321C115.972 127.847 115.817 128.589 115.464 129.543C115.116 130.482 114.602 131.563 113.952 132.746C112.654 135.113 110.854 137.822 108.883 140.529L110.5 141.706ZM119.407 146.028C120.522 145.171 121.387 144.41 122.018 143.734C122.634 143.074 123.094 142.426 123.297 141.788C123.52 141.081 123.429 140.346 122.89 139.778C122.431 139.295 121.765 139.066 121.142 138.943C119.867 138.693 118.064 138.765 116.087 138.996C114.08 139.232 111.788 139.645 109.482 140.14L109.901 142.095C112.172 141.608 114.397 141.208 116.319 140.983C118.271 140.754 119.809 140.72 120.757 140.906C121.245 141.002 121.412 141.126 121.439 141.155C121.441 141.157 121.435 141.151 121.428 141.137C121.42 141.122 121.415 141.106 121.412 141.093C121.407 141.066 121.42 141.088 121.39 141.184C121.322 141.399 121.1 141.787 120.556 142.369C120.027 142.936 119.255 143.622 118.188 144.442L119.407 146.028ZM110.666 152.173C112.78 150.895 115.623 148.937 119.407 146.028L118.188 144.442C114.438 147.326 111.66 149.235 109.631 150.461L110.666 152.173ZM120.518 158.591C121.524 158.344 122.327 158.07 122.916 157.753C123.459 157.46 124.062 157.002 124.209 156.272C124.368 155.479 123.906 154.87 123.511 154.509C123.095 154.128 122.519 153.797 121.887 153.502C119.367 152.325 114.773 151.208 110.342 150.336L109.955 152.298C114.411 153.175 118.773 154.254 121.041 155.314C121.606 155.578 121.967 155.807 122.162 155.985C122.377 156.182 122.198 156.127 122.248 155.878C122.285 155.691 122.386 155.767 121.968 155.992C121.596 156.192 120.979 156.418 120.04 156.649L120.518 158.591ZM107.412 159.785C110.588 160.108 114.989 159.95 120.518 158.591L120.04 156.649C114.714 157.958 110.543 158.093 107.614 157.795L107.412 159.785ZM109.934 162.561L108.453 158.451L106.572 159.129L108.052 163.239L109.934 162.561ZM97.3523 163.761C99.0559 165.966 100.889 168.163 102.613 169.945C104.304 171.692 106 173.158 107.426 173.755C108.138 174.053 109.005 174.225 109.795 173.825C110.604 173.416 110.991 172.584 111.153 171.688C111.472 169.924 111.097 166.991 109.96 162.647L108.026 163.153C109.165 167.509 109.417 170.05 109.185 171.332C109.13 171.635 109.056 171.818 108.995 171.922C108.938 172.018 108.899 172.038 108.892 172.041C108.877 172.048 108.702 172.121 108.197 171.909C107.187 171.487 105.74 170.3 104.051 168.555C102.396 166.845 100.613 164.71 98.9349 162.538L97.3523 163.761ZM84.1238 174.182C84.2108 176.24 84.4051 177.86 84.7039 179.08C84.9926 180.26 85.4186 181.241 86.1056 181.816C86.4746 182.124 86.9123 182.309 87.3956 182.333C87.8637 182.356 88.3012 182.225 88.6858 182.03C89.4308 181.651 90.1422 180.946 90.8062 180.116C92.1531 178.433 93.6005 175.853 95.0076 172.946C96.4226 170.023 97.8256 166.708 99.0749 163.514L97.2123 162.785C95.9751 165.949 94.5929 169.213 93.2074 172.075C91.8139 174.953 90.4454 177.366 89.2445 178.867C88.6346 179.629 88.139 180.064 87.7795 180.247C87.6118 180.332 87.5226 180.337 87.4942 180.335C87.4809 180.335 87.4519 180.335 87.3888 180.282C87.2115 180.133 86.911 179.686 86.6465 178.605C86.3921 177.565 86.2064 176.092 86.122 174.097L84.1238 174.182ZM84.1305 160.257C83.9069 163.462 83.8607 167.959 84.1238 174.182L86.122 174.097C85.8608 167.917 85.9091 163.5 86.1256 160.397L84.1305 160.257ZM69.846 166.047C69.3576 167.298 69.0571 168.335 68.9574 169.165C68.864 169.944 68.9146 170.811 69.4858 171.412C70.1009 172.061 70.9599 172.046 71.6057 171.904C72.2798 171.755 73.0353 171.408 73.816 170.96C76.9314 169.173 81.5528 165.131 85.8193 161.05L84.4368 159.604C80.1526 163.702 75.6951 167.577 72.821 169.225C72.1044 169.636 71.5556 169.867 71.1751 169.951C70.7662 170.041 70.8203 169.913 70.9365 170.036C71.0088 170.112 70.8667 170.041 70.9432 169.404C71.0135 168.818 71.2456 167.961 71.709 166.775L69.846 166.047ZM77.1068 152.781C74.7211 155.867 72.1295 160.199 69.846 166.047L71.709 166.775C73.9278 161.092 76.428 156.929 78.689 154.004L77.1068 152.781ZM72.98 153.082L77.6336 154.357L78.1622 152.428L73.5085 151.153L72.98 153.082ZM78.4244 139.485C75.0183 139.705 71.6603 140.063 68.8618 140.603C67.4628 140.873 66.1845 141.192 65.1009 141.57C64.0313 141.943 63.0836 142.396 62.3989 142.966C61.7019 143.547 61.1728 144.348 61.2544 145.356C61.331 146.303 61.9294 147.151 62.7707 147.91C64.4588 149.432 67.7211 151.123 72.8944 153.054L73.594 151.181C68.4333 149.254 65.4917 147.67 64.1101 146.424C63.4166 145.799 63.2637 145.39 63.2479 145.195C63.2372 145.063 63.2748 144.84 63.679 144.503C64.0955 144.156 64.7834 143.799 65.7594 143.458C66.7215 143.123 67.8988 142.826 69.2408 142.567C71.9244 142.049 75.1903 141.698 78.5536 141.48L78.4244 139.485Z" fill="#DBDAD5" mask="url(#path-5-inside-2_48_57)"/>
<path d="M514.825 -77.4732C508.278 -76.1873 501.216 -76.0765 494.596 -76.902C92.7608 -127.012 152.858 171.007 210.74 284.668C268.523 398.135 408.17 494.835 549.463 426.247C552.319 424.861 555.28 423.623 558.277 422.579C753.05 354.777 898.439 58.0689 840.514 -55.6773C783.197 -168.229 693.642 -112.597 514.825 -77.4732Z" fill="#1D38BD"/>
<path d="M792.47 185.144C792.47 226.842 816.47 246.145 770.47 278.145C744.659 296.1 744.036 270.135 744.132 241.587C744.248 207.129 726.411 166.545 743.953 136.887C752.744 122.024 765.402 111.797 776.47 108.144C826.47 91.6444 792.47 143.447 792.47 185.144Z" fill="#F77A80"/>
<path d="M983.079 40.4555C989.991 66.2528 1008.04 74.2163 984.885 101.64C977.152 110.798 972.36 108.851 968.763 102.047C952.656 71.5845 931.815 27.6199 954.027 1.27593C956.056 -1.13065 958.229 -3.09626 960.415 -4.53044C988.614 -23.0273 976.166 14.6581 983.079 40.4555Z" fill="#F77A80"/>
<path d="M1029.9 326.103C1029.9 292.338 1049.24 276.708 1012.18 250.795C994.576 238.483 991.519 251.676 991.043 270.044C990.152 304.438 974.694 347.237 996.772 373.624C1003.02 381.09 1010.37 386.25 1017.02 388.454C1057.29 401.815 1029.9 359.867 1029.9 326.103Z" fill="#F77A80"/>
<path d="M935.825 224.5C935.825 254.047 926.64 272.536 903.325 292.966C875.325 317.5 808.325 326.966 873.825 224.5C894.825 198 887.704 171 904.825 171C921.946 171 935.825 194.953 935.825 224.5Z" fill="#F77A80"/>
<path d="M845.825 398.604C845.825 369.057 836.64 350.568 813.325 330.138C785.325 305.604 718.325 296.138 783.825 398.604C804.825 425.104 797.704 452.104 814.825 452.104C831.946 452.104 845.825 428.151 845.825 398.604Z" fill="#F77A80"/>
<path d="M1016 170.505C1016 185.695 1020.7 195.2 1032.64 205.703C1046.98 218.316 1081.29 223.183 1047.75 170.505C1037 156.881 1040.64 143 1031.88 143C1023.11 143 1016 155.314 1016 170.505Z" fill="#F77A80"/>
<path d="M745 52.4954C745 37.305 749.703 27.7997 761.644 17.2966C775.982 4.68363 810.294 -0.182915 776.751 52.4954C765.996 66.1192 769.643 80 760.875 80C752.108 80 745 67.6858 745 52.4954Z" fill="#F77A80"/>
<path d="M892.666 56.5C892.666 74.1731 875.115 126.5 857.166 126.5C839.217 126.5 866.166 74.1731 866.166 56.5C866.166 38.8269 858.217 22 876.166 22C894.115 22 892.666 38.8269 892.666 56.5Z" fill="#F77A80"/>
<path d="M894.028 371C894.028 353.327 911.579 301 929.528 301C947.478 301 920.528 353.327 920.528 371C920.528 388.673 928.478 405.5 910.528 405.5C892.579 405.5 894.028 388.673 894.028 371Z" fill="#F77A80"/>
<path d="M1065.47 240.96C1065.47 199.262 1089.47 179.96 1043.47 147.96C1017.66 130.004 1017.04 155.969 1017.13 184.517C1017.25 218.975 999.411 259.559 1016.95 289.217C1025.74 304.08 1038.4 314.307 1049.47 317.96C1099.47 334.46 1065.47 282.657 1065.47 240.96Z" fill="#F77A80"/>
<path d="M1256.08 385.649C1262.99 359.851 1281.04 351.888 1257.88 324.464C1250.15 315.306 1245.36 317.253 1241.76 324.057C1225.66 354.519 1204.81 398.484 1227.03 424.828C1229.06 427.235 1231.23 429.2 1233.42 430.634C1261.61 449.131 1249.17 411.446 1256.08 385.649Z" fill="#F77A80"/>
<path d="M1208.82 201.604C1208.82 172.057 1199.64 153.568 1176.32 133.138C1148.32 108.604 1081.32 99.1379 1146.82 201.604C1167.82 228.104 1160.7 255.104 1177.82 255.104C1194.95 255.104 1208.82 231.151 1208.82 201.604Z" fill="#F77A80"/>
<path d="M1118.82 27.5C1118.82 57.0472 1109.64 75.5363 1086.32 95.9661C1058.32 120.5 991.325 129.966 1056.82 27.5C1077.82 1 1070.7 -26 1087.82 -26C1104.95 -26 1118.82 -2.04723 1118.82 27.5Z" fill="#F77A80"/>
<path d="M1007 388.609C1007 403.799 1011.7 413.304 1023.64 423.807C1037.98 436.42 1072.29 441.287 1038.75 388.609C1028 374.985 1031.64 361.104 1022.88 361.104C1014.11 361.104 1007 373.418 1007 388.609Z" fill="#F77A80"/>
<path d="M1165.67 369.604C1165.67 351.931 1148.12 299.604 1130.17 299.604C1112.22 299.604 1139.17 351.931 1139.17 369.604C1139.17 387.277 1131.22 404.104 1149.17 404.104C1167.12 404.104 1165.67 387.277 1165.67 369.604Z" fill="#F77A80"/>
<path d="M1167.03 55.104C1167.03 72.7771 1184.58 125.104 1202.53 125.104C1220.48 125.104 1193.53 72.7771 1193.53 55.104C1193.53 37.4309 1201.48 20.604 1183.53 20.604C1165.58 20.604 1167.03 37.4309 1167.03 55.104Z" fill="#F77A80"/>
<path d="M323.561 198.728C290.312 100.772 330.866 8.76079 355.299 -25L428.599 -3.08068C319.178 166.227 431.118 256.676 490.564 260.707C519.027 268.517 589.086 267.207 637.449 220.648C685.812 174.088 636.156 40.506 616.005 -3.08068L700.64 -25C715.25 20.0984 735.703 132.366 700.64 220.648C665.577 308.93 545.98 331 490.564 331C448.75 327.725 356.811 296.685 323.561 198.728Z" fill="#05972C"/>
<path d="M-21.7737 259.01L-73.0896 255.659C-102.81 291.976 -94.7343 333.278 -86.9813 349.389C-66.2836 393.894 -0.0605211 461.65 99.2496 376.636C198.56 291.623 141.201 202.036 100.107 167.869L64.0848 215.491C102.374 219.572 111.381 248.844 91.7829 286.042C68.6978 329.86 18.0315 381.59 -27.1359 346.319C-72.3034 311.049 -42.3809 273.417 -21.7737 259.01Z" fill="#1D38BD" stroke="#1D38BD"/>
<path fill-rule="evenodd" clip-rule="evenodd" d="M512.469 327.807C489.781 236.225 417.077 123.064 378.92 152.151C340.762 181.238 377.808 282.948 475.356 394.731C480.945 401.135 486.341 407.401 491.554 413.519C458.001 390.635 419.789 366.674 379.073 342.606C337.13 317.812 302.151 272.367 273.506 235.153C241.601 193.702 217.555 162.463 200.502 181.347C168.139 217.184 238.714 317.328 377.535 419C409.721 442.573 437.808 464.247 462.385 483.331C450.712 481.107 439.17 479.396 428.029 478.287C336.434 469.175 273.151 421.422 231.418 389.931C200.062 366.27 180.872 351.789 170.981 369.778C153.611 401.367 194.265 424.653 274.76 470.758L274.761 470.758C301.109 485.849 331.724 503.385 365.971 524.457C497.996 605.691 608.928 628.279 631.983 586.349C636.68 577.808 635.065 568.666 628.688 559.441C637.367 561.767 645.446 560.093 653.557 553.909C669.927 541.431 653.12 525.638 625.656 499.834C589.104 465.491 533.677 413.413 512.469 327.807Z" fill="#AC3AC3"/>
<path fill-rule="evenodd" clip-rule="evenodd" d="M447.286 202.826C472.948 238.76 496.698 289.734 507.989 335.313C526.598 410.429 571.498 459.756 606.87 493.879C611.879 498.711 616.726 503.266 621.274 507.539L621.277 507.542C624.729 510.785 628.009 513.867 631.056 516.785C638.158 523.586 644.073 529.571 648.287 534.925C652.522 540.307 654.915 544.903 655.198 548.929C655.472 552.825 653.775 556.421 649.201 559.908C644.553 563.451 639.959 565.444 635.286 566.039C631.629 566.505 627.883 566.121 623.978 564.91C622.269 562.602 620.266 560.291 617.994 557.984C628.117 530.089 574.521 479.906 491.208 422.753C485.256 415.745 479.063 408.537 472.611 401.144C423.972 345.407 390.461 292.23 373.863 249.419C365.562 228.008 361.517 209.255 361.88 194.104C362.243 178.971 366.994 167.538 376.19 160.528C385.244 153.626 396.457 155.032 408.825 162.874C421.187 170.713 434.45 184.852 447.286 202.826ZM490.52 423.493C456.334 400.048 417.136 375.421 375.27 350.673C333.23 325.822 298.204 280.315 269.643 243.207C268.005 241.078 266.387 238.976 264.791 236.907C250.038 217.792 237.136 201.56 225.93 192.32C220.325 187.698 215.263 184.929 210.707 184.337C206.241 183.757 202.123 185.253 198.274 189.516C190.515 198.108 188.813 210.658 192.995 226.476C197.177 242.293 207.205 261.197 222.617 282.222C253.431 324.261 305.6 374.554 374.835 425.261C407.656 449.299 436.207 471.36 461.11 490.702C503.952 499.086 548.346 514.299 580.995 531.905C568.295 517.952 553.82 500.22 536.78 479.343L536.779 479.342C523.139 462.631 507.854 443.906 490.52 423.493ZM488.056 420.597C454.564 397.755 416.421 373.837 375.779 349.812C333.912 325.064 298.996 279.701 270.403 242.555C238.556 201.179 214.554 169.996 197.532 188.845C165.227 224.618 235.674 324.58 374.244 426.068C406.372 449.598 434.408 471.234 458.94 490.283C447.288 488.063 435.767 486.355 424.646 485.248C333.217 476.152 270.048 428.486 228.391 397.052C197.092 373.433 177.936 358.979 168.063 376.935C150.725 408.468 191.305 431.711 271.655 477.732C297.955 492.796 328.515 510.3 362.7 531.334C494.486 612.421 605.217 634.968 628.23 593.114C632.919 584.588 631.307 575.463 624.941 566.255C633.605 568.577 641.669 566.905 649.766 560.733C666.106 548.277 649.329 532.514 621.915 506.756C585.43 472.475 530.103 420.491 508.933 335.04C486.286 243.625 413.714 130.669 375.626 159.703C337.537 188.737 374.516 290.262 471.887 401.843C477.466 408.236 482.852 414.49 488.056 420.597ZM460.655 491.615C448.368 489.216 436.212 487.382 424.502 486.217C344.156 478.223 285.585 440.549 244.292 410.201C238.394 405.867 232.859 401.69 227.668 397.773L227.667 397.773C214.638 387.941 203.781 379.748 194.807 374.809C188.528 371.353 183.366 369.608 179.162 369.891C175.098 370.164 171.721 372.354 168.968 377.36C166.164 382.461 164.938 387.291 165.158 392.008C165.378 396.73 167.049 401.407 170.151 406.189C176.377 415.789 188.284 425.693 205.376 437.039C222.447 448.37 244.57 461.063 271.123 476.272L272.211 476.895L272.214 476.896L272.217 476.898C298.515 491.961 329.085 509.47 363.28 530.51C429.116 571.019 489.64 596.871 536.525 607.379C559.975 612.634 579.944 614.035 595.432 611.561C610.908 609.088 621.78 602.774 627.325 592.689C631.941 584.295 630.208 575.178 623.352 565.787C620.86 564.986 618.316 563.864 615.706 562.431C615.152 563.243 614.53 564.031 613.84 564.795C589.502 591.746 548.574 559.939 467.536 496.961L467.536 496.961C465.274 495.203 462.98 493.421 460.655 491.615ZM616.262 561.573C617.758 562.39 619.229 563.103 620.68 563.708C621.204 563.927 621.725 564.131 622.243 564.322C621.28 563.094 620.231 561.862 619.1 560.626C618.609 560.091 618.104 559.556 617.584 559.021C617.209 559.895 616.769 560.746 616.262 561.573ZM616.822 558.249C616.429 559.224 615.951 560.17 615.388 561.085C606.624 556.091 597.021 547.549 585.99 535.824C598.658 543.068 609.225 550.645 616.822 558.249ZM617.209 557.197C608.998 549.081 597.487 541.032 583.732 533.402C570.759 519.358 555.912 501.196 538.28 479.594L537.521 478.665L537.52 478.664C524.521 462.738 510.023 444.977 493.678 425.666C520.585 444.232 544.284 462.032 563.597 478.535C585.798 497.505 602.134 514.704 610.91 529.334C615.297 536.647 617.753 543.25 618.158 549.063C618.36 551.964 618.053 554.676 617.209 557.197ZM614.83 561.94C614.314 562.69 613.737 563.418 613.098 564.125C609.171 568.473 604.838 571.212 599.989 572.518C595.13 573.826 589.682 573.717 583.503 572.25C571.109 569.307 555.965 560.953 537.153 548.054C518.363 535.17 496.023 517.832 469.244 497.022L468.147 496.169L468.146 496.168C466.397 494.809 464.629 493.435 462.842 492.047C501.054 499.704 540.347 512.742 571.248 528.003C575.355 530.032 579.311 532.098 583.095 534.194C595.016 547.093 605.366 556.526 614.83 561.94Z" fill="#DBDAD5"/>
<path fill-rule="evenodd" clip-rule="evenodd" d="M820.281 303.986L787.081 199.991C778.464 172.999 782.216 143.578 797.332 119.613L799.469 116.226C816.264 89.5987 845.882 73.8324 877.349 74.7687C908.288 75.6894 936.524 92.6274 951.901 119.491L954.724 124.423C968.928 149.237 971.722 178.977 962.388 206.003L931.491 295.46L1001.48 218.526C1020.55 197.567 1047.91 186.106 1076.22 187.214L1080.22 187.371C1111.68 188.602 1140.14 206.369 1155.06 234.089C1169.73 261.343 1169.18 294.265 1153.61 321.014L1150.75 325.925C1136.36 350.633 1112 367.923 1083.93 373.352L956.395 398.017C956.036 399 955.659 399.975 955.266 400.94L1061.27 452.735C1088.48 466.033 1107.88 491.326 1113.68 521.057C1120.02 553.597 1109.23 587.117 1085.1 609.851L1084.27 610.635C1060.06 633.445 1025.63 642.44 993.285 634.702C963.51 627.579 938.316 607.129 925.471 579.338L868.799 456.726L814.499 561.955C801.506 587.134 778.049 605.285 750.414 611.542L746.509 612.427C715.805 619.379 683.713 609.584 662.124 586.672C640.898 564.143 632.909 532.201 641.031 502.332L642.523 496.848C650.025 469.258 669.079 446.253 694.789 433.743L769.527 397.378L658.086 373.091C630.401 367.058 606.798 349.098 593.602 324.024L591.737 320.481C577.074 292.622 578.23 259.089 594.774 232.306C611.041 205.972 639.828 189.988 670.78 190.103L676.463 190.124C705.055 190.23 732.208 202.681 750.945 224.277L820.18 304.074C820.214 304.045 820.247 304.015 820.281 303.986Z" fill="#B7CE01"/>
<mask id="path-29-inside-3_48_57" fill="white">
<path fill-rule="evenodd" clip-rule="evenodd" d="M808.254 340.064L783.191 261.559C776.686 241.183 779.519 218.973 790.93 200.882L792.542 198.325C805.221 178.225 827.579 166.323 851.334 167.03C874.689 167.725 896.004 180.511 907.612 200.79L909.743 204.513C920.466 223.245 922.575 245.696 915.529 266.097L892.205 333.627L945.041 275.551C959.434 259.729 980.085 251.077 1001.46 251.914L1004.48 252.032C1028.23 252.962 1049.71 266.374 1060.98 287.299C1072.05 307.873 1071.64 332.726 1059.88 352.918L1057.72 356.625C1046.86 375.277 1028.47 388.329 1007.28 392.427L911.004 411.047C910.733 411.789 910.449 412.525 910.152 413.253L990.17 452.353C1010.71 462.392 1025.36 481.485 1029.74 503.929C1034.52 528.493 1026.38 553.796 1008.16 570.959L1007.54 571.55C989.262 588.769 963.274 595.559 938.853 589.718C916.376 584.341 897.357 568.904 887.661 547.925L844.88 455.366L803.889 534.802C794.081 553.81 776.373 567.512 755.512 572.235L752.564 572.903C729.386 578.151 705.16 570.757 688.863 553.46C672.839 536.454 666.809 512.341 672.94 489.794L674.066 485.654C679.729 464.826 694.113 447.46 713.521 438.016L769.94 410.565L685.814 392.231C664.915 387.676 647.098 374.118 637.135 355.19L635.728 352.515C624.659 331.485 625.531 306.171 638.02 285.953C650.3 266.074 672.031 254.008 695.397 254.094L699.687 254.11C721.271 254.19 741.768 263.589 755.913 279.892L808.177 340.13C808.203 340.108 808.228 340.086 808.254 340.064Z"/>
</mask>
<path d="M783.191 261.559L782.239 261.863L783.191 261.559ZM808.254 340.064L808.907 340.821L809.407 340.389L809.206 339.76L808.254 340.064ZM790.93 200.882L790.084 200.349L790.93 200.882ZM792.542 198.325L793.388 198.859L792.542 198.325ZM851.334 167.03L851.304 168.029L851.334 167.03ZM907.612 200.79L908.48 200.293L908.48 200.293L907.612 200.79ZM909.743 204.513L908.876 205.01V205.01L909.743 204.513ZM915.529 266.097L916.474 266.424L915.529 266.097ZM892.205 333.627L891.26 333.301L892.945 334.3L892.205 333.627ZM945.041 275.551L945.78 276.224L945.041 275.551ZM1001.46 251.914L1001.42 252.913L1001.46 251.914ZM1004.48 252.032L1004.52 251.033L1004.48 252.032ZM1060.98 287.299L1060.1 287.773L1060.98 287.299ZM1059.88 352.918L1060.74 353.421V353.421L1059.88 352.918ZM1057.72 356.625L1056.86 356.122V356.122L1057.72 356.625ZM1007.28 392.427L1007.09 391.445L1007.28 392.427ZM911.004 411.047L910.815 410.065L910.259 410.173L910.065 410.704L911.004 411.047ZM910.152 413.253L909.226 412.876L908.873 413.741L909.713 414.152L910.152 413.253ZM990.17 452.353L990.609 451.455L990.17 452.353ZM1029.74 503.929L1028.75 504.12L1029.74 503.929ZM1008.16 570.959L1008.85 571.687L1008.16 570.959ZM1007.54 571.55L1006.85 570.823L1007.54 571.55ZM938.853 589.718L939.086 588.745L938.853 589.718ZM887.661 547.925L886.753 548.344L887.661 547.925ZM844.88 455.366L845.787 454.946L844.929 453.089L843.991 454.907L844.88 455.366ZM803.889 534.802L803.001 534.343L803.889 534.802ZM755.512 572.235L755.291 571.26H755.291L755.512 572.235ZM752.564 572.903L752.785 573.878H752.785L752.564 572.903ZM688.863 553.46L689.591 552.775L688.863 553.46ZM672.94 489.794L673.905 490.056L672.94 489.794ZM674.066 485.654L673.101 485.391L674.066 485.654ZM713.521 438.016L713.084 437.117L713.521 438.016ZM769.94 410.565L770.378 411.464L772.972 410.202L770.153 409.588L769.94 410.565ZM685.814 392.231L686.027 391.254L685.814 392.231ZM637.135 355.19L638.02 354.725H638.02L637.135 355.19ZM635.728 352.515L634.843 352.981H634.843L635.728 352.515ZM638.02 285.953L638.871 286.478L638.02 285.953ZM695.397 254.094L695.401 253.094L695.397 254.094ZM699.687 254.11L699.683 255.11L699.687 254.11ZM755.913 279.892L755.158 280.547L755.913 279.892ZM808.177 340.13L807.422 340.785L808.077 341.54L808.832 340.886L808.177 340.13ZM782.239 261.863L807.301 340.368L809.206 339.76L784.144 261.255L782.239 261.863ZM790.084 200.349C778.515 218.69 775.644 241.206 782.239 261.863L784.144 261.255C777.729 241.16 780.522 219.257 791.776 201.416L790.084 200.349ZM791.697 197.792L790.084 200.349L791.776 201.416L793.388 198.859L791.697 197.792ZM851.363 166.03C827.255 165.313 804.564 177.392 791.697 197.792L793.388 198.859C805.878 179.058 827.903 167.333 851.304 168.029L851.363 166.03ZM908.48 200.293C896.699 179.712 875.067 166.736 851.363 166.03L851.304 168.029C874.312 168.714 895.309 181.31 906.744 201.287L908.48 200.293ZM910.611 204.016L908.48 200.293L906.744 201.287L908.876 205.01L910.611 204.016ZM916.474 266.424C923.614 245.75 921.477 222.999 910.611 204.016L908.876 205.01C919.455 223.492 921.536 245.642 914.584 265.771L916.474 266.424ZM893.15 333.954L916.474 266.424L914.584 265.771L891.26 333.301L893.15 333.954ZM944.301 274.878L891.465 332.954L892.945 334.3L945.78 276.224L944.301 274.878ZM1001.5 250.915C979.829 250.067 958.893 258.838 944.301 274.878L945.78 276.224C959.975 260.62 980.341 252.088 1001.42 252.913L1001.5 250.915ZM1004.52 251.033L1001.5 250.915L1001.42 252.913L1004.44 253.031L1004.52 251.033ZM1061.86 286.825C1050.42 265.588 1028.62 251.976 1004.52 251.033L1004.44 253.031C1027.83 253.947 1049 267.159 1060.1 287.773L1061.86 286.825ZM1060.74 353.421C1072.68 332.928 1073.1 307.705 1061.86 286.825L1060.1 287.773C1071.01 308.041 1070.6 332.523 1059.01 352.415L1060.74 353.421ZM1058.58 357.128L1060.74 353.421L1059.01 352.415L1056.86 356.122L1058.58 357.128ZM1007.47 393.409C1028.94 389.256 1047.58 376.03 1058.58 357.128L1056.86 356.122C1046.14 374.525 1028 387.402 1007.09 391.445L1007.47 393.409ZM911.194 412.029L1007.47 393.409L1007.09 391.445L910.815 410.065L911.194 412.029ZM910.065 410.704C909.798 411.434 909.519 412.158 909.226 412.876L911.078 413.631C911.38 412.891 911.668 412.144 911.944 411.39L910.065 410.704ZM990.609 451.455L910.591 412.355L909.713 414.152L989.731 453.252L990.609 451.455ZM1030.72 503.737C1026.28 480.986 1011.44 461.631 990.609 451.455L989.731 453.252C1009.99 463.153 1024.44 481.984 1028.75 504.12L1030.72 503.737ZM1008.85 571.687C1027.32 554.289 1035.57 528.639 1030.72 503.737L1028.75 504.12C1033.48 528.348 1025.44 553.304 1007.48 570.231L1008.85 571.687ZM1008.22 572.278L1008.85 571.687L1007.48 570.231L1006.85 570.823L1008.22 572.278ZM938.62 590.69C963.365 596.609 989.699 589.731 1008.22 572.278L1006.85 570.823C988.824 587.808 963.182 594.509 939.086 588.745L938.62 590.69ZM886.753 548.344C896.58 569.604 915.849 585.243 938.62 590.69L939.086 588.745C916.903 583.439 898.135 568.203 888.569 547.505L886.753 548.344ZM843.972 455.785L886.753 548.344L888.569 547.505L845.787 454.946L843.972 455.785ZM804.778 535.261L845.768 455.824L843.991 454.907L803.001 534.343L804.778 535.261ZM755.733 573.211C776.882 568.422 794.834 554.531 804.778 535.261L803.001 534.343C793.327 553.089 775.865 566.601 755.291 571.26L755.733 573.211ZM752.785 573.878L755.733 573.211L755.291 571.26L752.343 571.928L752.785 573.878ZM688.135 554.146C704.675 571.701 729.261 579.205 752.785 573.878L752.343 571.928C729.51 577.098 705.645 569.814 689.591 552.775L688.135 554.146ZM671.975 489.531C665.752 512.414 671.873 536.887 688.135 554.146L689.591 552.775C673.806 536.022 667.865 512.267 673.905 490.056L671.975 489.531ZM673.101 485.391L671.975 489.531L673.905 490.056L675.031 485.916L673.101 485.391ZM713.084 437.117C693.416 446.687 678.84 464.285 673.101 485.391L675.031 485.916C680.618 465.367 694.81 448.233 713.959 438.916L713.084 437.117ZM769.503 409.666L713.084 437.117L713.959 438.916L770.378 411.464L769.503 409.666ZM685.601 393.208L769.728 411.542L770.153 409.588L686.027 391.254L685.601 393.208ZM636.251 355.656C646.35 374.845 664.414 388.59 685.601 393.208L686.027 391.254C665.417 386.762 647.845 373.391 638.02 354.725L636.251 355.656ZM634.843 352.981L636.251 355.656L638.02 354.725L636.612 352.05L634.843 352.981ZM637.17 285.427C624.494 305.947 623.609 331.638 634.843 352.981L636.612 352.05C625.709 331.333 626.568 306.396 638.871 286.478L637.17 285.427ZM695.401 253.094C671.687 253.006 649.632 265.252 637.17 285.427L638.871 286.478C650.968 266.895 672.375 255.009 695.393 255.094L695.401 253.094ZM699.69 253.11L695.401 253.094L695.393 255.094L699.683 255.11L699.69 253.11ZM756.668 279.237C742.334 262.716 721.563 253.191 699.69 253.11L699.683 255.11C720.978 255.189 741.202 264.462 755.158 280.547L756.668 279.237ZM808.933 339.475L756.668 279.237L755.158 280.547L807.422 340.785L808.933 339.475ZM808.832 340.886C808.857 340.864 808.882 340.842 808.907 340.821L807.6 339.307C807.574 339.329 807.548 339.352 807.522 339.374L808.832 340.886Z" fill="#DBDAD5" mask="url(#path-29-inside-3_48_57)"/>
<mask id="path-31-inside-4_48_57" fill="white">
<path fill-rule="evenodd" clip-rule="evenodd" d="M837.308 382.224L821.975 374.312C817.995 372.259 815.126 368.551 814.137 364.184L813.998 363.566C812.899 358.713 814.447 353.641 818.068 350.229C821.629 346.874 826.678 345.612 831.398 346.895L832.265 347.131C836.626 348.317 840.262 351.328 842.239 355.392L848.783 368.843L848.008 352.422C847.796 347.949 849.573 343.611 852.861 340.571L853.325 340.141C856.979 336.763 862.145 335.568 866.911 336.998C871.597 338.404 875.214 342.145 876.463 346.875L876.692 347.743C877.846 352.113 877.056 356.767 874.525 360.511L863.029 377.521C863.098 377.671 863.165 377.822 863.229 377.974L880.864 371.916C885.392 370.361 890.387 371.019 894.357 373.694C898.703 376.622 901.243 381.574 901.087 386.811L901.082 386.992C900.926 392.247 898.083 397.099 893.603 399.85C889.479 402.382 884.378 402.912 879.837 401.242L859.8 393.872L865.492 411.701C866.854 415.967 866.261 420.617 863.872 424.405L863.534 424.94C860.88 429.149 856.198 431.641 851.225 431.493C846.335 431.347 841.872 428.67 839.442 424.424L838.996 423.645C836.751 419.723 836.309 415.022 837.784 410.751L842.073 398.334L826.904 408.074C823.136 410.494 818.491 411.125 814.214 409.797L813.609 409.61C808.857 408.135 805.238 404.258 804.094 399.416C802.969 394.655 804.4 389.651 807.872 386.205L808.509 385.572C811.717 382.389 816.143 380.745 820.65 381.065L837.306 382.245C837.307 382.238 837.307 382.231 837.308 382.224Z"/>
</mask>
<path d="M821.975 374.312L822.433 373.424L822.433 373.424L821.975 374.312ZM837.308 382.224L838.305 382.297L838.353 381.638L837.766 381.336L837.308 382.224ZM814.137 364.184L813.162 364.404L814.137 364.184ZM813.998 363.566L814.973 363.345L814.973 363.345L813.998 363.566ZM818.068 350.229L818.754 350.957L818.068 350.229ZM831.398 346.895L831.136 347.86L831.136 347.86L831.398 346.895ZM832.265 347.131L832.527 346.166L832.527 346.166L832.265 347.131ZM842.239 355.392L841.34 355.829L842.239 355.392ZM848.783 368.843L847.884 369.28L849.782 368.795L848.783 368.843ZM848.008 352.422L849.006 352.375L848.008 352.422ZM852.861 340.571L852.182 339.836L852.861 340.571ZM853.325 340.141L854.004 340.875L853.325 340.141ZM866.911 336.998L867.198 336.04L867.198 336.04L866.911 336.998ZM876.463 346.875L877.43 346.62L877.43 346.62L876.463 346.875ZM876.692 347.743L875.725 347.999L875.725 347.999L876.692 347.743ZM874.525 360.511L875.354 361.071L874.525 360.511ZM863.029 377.521L862.2 376.961L861.883 377.43L862.122 377.943L863.029 377.521ZM863.229 377.974L862.307 378.362L862.67 379.223L863.554 378.92L863.229 377.974ZM880.864 371.916L880.539 370.97L880.864 371.916ZM894.357 373.694L893.798 374.524L893.798 374.524L894.357 373.694ZM901.087 386.811L900.088 386.782V386.782L901.087 386.811ZM901.082 386.992L902.081 387.022L902.081 387.022L901.082 386.992ZM893.603 399.85L893.08 398.998L893.603 399.85ZM879.837 401.242L880.182 400.303L879.837 401.242ZM859.8 393.872L860.145 392.934L858.225 392.227L858.848 394.176L859.8 393.872ZM865.492 411.701L864.539 412.005L865.492 411.701ZM863.872 424.405L864.718 424.938L864.718 424.938L863.872 424.405ZM863.534 424.94L862.688 424.407L862.688 424.407L863.534 424.94ZM851.225 431.493L851.195 432.492L851.225 431.493ZM839.442 424.424L838.574 424.921L838.574 424.921L839.442 424.424ZM838.996 423.645L839.864 423.148L838.996 423.645ZM837.784 410.751L838.73 411.077L838.73 411.077L837.784 410.751ZM842.073 398.334L843.018 398.66L843.96 395.934L841.533 397.492L842.073 398.334ZM826.904 408.074L827.444 408.916L827.444 408.916L826.904 408.074ZM814.214 409.797L814.51 408.842L814.214 409.797ZM813.609 409.61L813.313 410.565L813.609 409.61ZM804.094 399.416L805.067 399.186L804.094 399.416ZM807.872 386.205L807.168 385.495L807.872 386.205ZM808.509 385.572L809.214 386.282L809.214 386.282L808.509 385.572ZM820.65 381.065L820.721 380.067L820.65 381.065ZM837.306 382.245L837.235 383.243L838.232 383.314L838.304 382.317L837.306 382.245ZM821.516 375.201L836.849 383.113L837.766 381.336L822.433 373.424L821.516 375.201ZM813.162 364.404C814.216 369.06 817.274 373.012 821.516 375.201L822.433 373.424C818.716 371.505 816.037 368.042 815.113 363.963L813.162 364.404ZM813.022 363.787L813.162 364.404L815.113 363.963L814.973 363.345L813.022 363.787ZM817.383 349.501C813.504 353.156 811.845 358.589 813.022 363.787L814.973 363.345C813.952 358.838 815.39 354.126 818.754 350.957L817.383 349.501ZM831.661 345.93C826.604 344.555 821.196 345.908 817.383 349.501L818.754 350.957C822.061 347.841 826.751 346.668 831.136 347.86L831.661 345.93ZM832.527 346.166L831.661 345.93L831.136 347.86L832.003 348.096L832.527 346.166ZM843.138 354.954C841.035 350.631 837.167 347.428 832.527 346.166L832.003 348.096C836.085 349.206 839.489 352.025 841.34 355.829L843.138 354.954ZM849.683 368.405L843.138 354.954L841.34 355.829L847.884 369.28L849.683 368.405ZM847.009 352.47L847.785 368.89L849.782 368.795L849.006 352.375L847.009 352.47ZM852.182 339.836C848.677 343.077 846.783 347.701 847.009 352.47L849.006 352.375C848.809 348.197 850.468 344.145 853.54 341.305L852.182 339.836ZM852.646 339.407L852.182 339.836L853.54 341.305L854.004 340.875L852.646 339.407ZM867.198 336.04C862.094 334.508 856.559 335.788 852.646 339.407L854.004 340.875C857.398 337.737 862.197 336.627 866.623 337.955L867.198 336.04ZM877.43 346.62C876.092 341.553 872.217 337.546 867.198 336.04L866.623 337.955C870.976 339.262 874.336 342.736 875.496 347.13L877.43 346.62ZM877.659 347.488L877.43 346.62L875.496 347.13L875.725 347.999L877.659 347.488ZM875.354 361.071C878.046 357.088 878.886 352.136 877.659 347.488L875.725 347.999C876.805 352.089 876.066 356.446 873.697 359.951L875.354 361.071ZM863.857 378.081L875.354 361.071L873.697 359.951L862.2 376.961L863.857 378.081ZM862.122 377.943C862.186 378.082 862.248 378.221 862.307 378.362L864.151 377.586C864.082 377.423 864.01 377.261 863.935 377.1L862.122 377.943ZM880.539 370.97L862.904 377.028L863.554 378.92L881.189 372.862L880.539 370.97ZM894.916 372.865C890.686 370.015 885.363 369.313 880.539 370.97L881.189 372.862C885.42 371.408 890.088 372.024 893.798 374.524L894.916 372.865ZM902.087 386.841C902.253 381.261 899.546 375.985 894.916 372.865L893.798 374.524C897.859 377.26 900.233 381.887 900.088 386.782L902.087 386.841ZM902.081 387.022L902.087 386.841L900.088 386.782L900.082 386.962L902.081 387.022ZM894.126 400.702C898.89 397.777 901.915 392.617 902.081 387.022L900.082 386.962C899.936 391.876 897.276 396.421 893.08 398.998L894.126 400.702ZM879.492 402.18C884.324 403.957 889.745 403.392 894.126 400.702L893.08 398.998C889.214 401.371 884.433 401.866 880.182 400.303L879.492 402.18ZM859.455 394.811L879.492 402.18L880.182 400.303L860.145 392.934L859.455 394.811ZM866.445 411.397L860.753 393.568L858.848 394.176L864.539 412.005L866.445 411.397ZM864.718 424.938C867.264 420.901 867.896 415.944 866.445 411.397L864.539 412.005C865.811 415.99 865.258 420.333 863.026 423.871L864.718 424.938ZM864.38 425.474L864.718 424.938L863.026 423.871L862.688 424.407L864.38 425.474ZM851.195 432.492C856.522 432.651 861.537 429.981 864.38 425.474L862.688 424.407C860.223 428.316 855.874 430.63 851.255 430.493L851.195 432.492ZM838.574 424.921C841.177 429.469 845.957 432.336 851.195 432.492L851.255 430.493C846.713 430.358 842.567 427.871 840.31 423.927L838.574 424.921ZM838.128 424.141L838.574 424.921L840.31 423.927L839.864 423.148L838.128 424.141ZM836.839 410.424C835.27 414.968 835.739 419.969 838.128 424.141L839.864 423.148C837.762 419.476 837.349 415.076 838.73 411.077L836.839 410.424ZM841.128 398.007L836.839 410.424L838.73 411.077L843.018 398.66L841.128 398.007ZM827.444 408.916L842.613 399.175L841.533 397.492L826.364 407.233L827.444 408.916ZM813.917 410.752C818.476 412.167 823.428 411.495 827.444 408.916L826.364 407.233C822.844 409.493 818.505 410.082 814.51 408.842L813.917 410.752ZM813.313 410.565L813.917 410.752L814.51 408.842L813.905 408.655L813.313 410.565ZM803.121 399.646C804.347 404.833 808.223 408.985 813.313 410.565L813.905 408.655C809.491 407.285 806.13 403.684 805.067 399.186L803.121 399.646ZM807.168 385.495C803.448 389.187 801.916 394.546 803.121 399.646L805.067 399.186C804.022 394.764 805.351 390.116 808.576 386.915L807.168 385.495ZM807.805 384.862L807.168 385.495L808.576 386.915L809.214 386.282L807.805 384.862ZM820.721 380.067C815.926 379.728 811.217 381.476 807.805 384.862L809.214 386.282C812.216 383.302 816.36 381.763 820.58 382.062L820.721 380.067ZM837.377 381.248L820.721 380.067L820.58 382.062L837.235 383.243L837.377 381.248ZM838.304 382.317C838.304 382.31 838.304 382.304 838.305 382.297L836.31 382.152C836.31 382.158 836.309 382.166 836.309 382.174L838.304 382.317Z" fill="#DBDAD5" mask="url(#path-31-inside-4_48_57)"/>
<path d="M1030.73 -142.526C1031.97 153.391 1244.03 176.082 1349.91 150.438C1400.85 310.209 1263.97 380.717 1189.16 396C1165.34 291.61 1077.95 89.8248 918.902 117.8C759.856 145.776 756.336 43.9763 774.456 -10.4203C859.364 -177.755 1029.49 -438.444 1030.73 -142.526Z" stroke="#DBDAD5"/>
<path d="M449.5 -86.3709C421.834 -54.3709 397.4 54.4291 521 233.629C519.667 106.462 503.5 -135.571 449.5 -86.3709Z" stroke="#DBDAD5"/>
<path d="M652.5 230.629C584.833 148.129 459.8 -28.3708 501 -74.3708C542.2 -120.371 619.166 109.796 652.5 230.629Z" stroke="#DBDAD5"/>
<path d="M785.5 169.129C688 103.129 506.7 -37.9709 561.5 -74.3709C616.3 -110.771 733.667 72.7958 785.5 169.129Z" stroke="#DBDAD5"/>
<path d="M371 98.6292C388.167 39.2959 426.3 -81.5708 441.5 -90.3708C460.5 -101.371 371 -125.371 371 98.6292Z" stroke="#DBDAD5"/>
<path d="M127 506.318C127 463.818 143.809 419.094 169.5 444.318C197 471.318 132.5 497.818 127 506.318Z" stroke="#DBDAD5"/>
<path d="M121.295 486.318C121.295 443.818 104.485 399.094 78.7943 424.318C51.2944 451.318 115.794 477.818 121.295 486.318Z" stroke="#DBDAD5"/>
<path d="M21.9999 526.318C21.9999 483.818 38.8093 439.094 64.5002 464.318C92 491.318 27.5001 517.818 21.9999 526.318Z" stroke="#DBDAD5"/>
</g>
<path d="M1100.68 418.913C1126.38 416.271 1146.65 395.857 1149.11 370.133L1149.43 366.855L1149.86 371.336C1152.25 396.377 1171.95 416.269 1196.96 418.913C1172.01 421.145 1152.16 440.78 1149.66 465.704L1149.43 468L1149.32 466.908C1146.75 441.3 1126.32 421.144 1100.68 418.913Z" fill="#251F21"/>
<defs>
<clipPath id="clip0_48_57">
<path d="M0 0H1200C1200 258.469 990.469 468 732 468H0V0Z" fill="white"/>
</clipPath>
</defs>
</svg>
