<svg width="1202" height="238" viewBox="0 0 1202 238" fill="none" xmlns="http://www.w3.org/2000/svg">
<path d="M511.956 23L507.096 8.9H507.996L512.696 22.62H512.096L516.956 8.9H517.736L522.396 22.62H521.856L526.636 8.9H527.496L522.576 23H521.696L517.156 9.56H517.556L512.796 23H511.956ZM532.286 23V8.9H540.846V9.68H533.126V15.46H540.406V16.24H533.126V22.22H540.846V23H532.286ZM545.926 23V8.9H546.766V22.22H554.326V23H545.926ZM563.628 23.16C562.268 23.16 561.114 22.8733 560.168 22.3C559.234 21.7133 558.521 20.88 558.028 19.8C557.534 18.72 557.288 17.4333 557.288 15.94C557.288 14.4467 557.534 13.1667 558.028 12.1C558.521 11.02 559.234 10.1933 560.168 9.62C561.114 9.03333 562.268 8.74 563.628 8.74C564.654 8.74 565.554 8.90667 566.328 9.24C567.114 9.56 567.808 10.0333 568.408 10.66L567.968 11.36C567.314 10.7333 566.648 10.28 565.968 10C565.301 9.70667 564.514 9.56 563.608 9.56C561.834 9.56 560.488 10.12 559.568 11.24C558.648 12.3467 558.188 13.9133 558.188 15.94C558.188 17.9667 558.648 19.54 559.568 20.66C560.488 21.78 561.834 22.34 563.608 22.34C564.514 22.34 565.301 22.2 565.968 21.92C566.648 21.6267 567.314 21.1667 567.968 20.54L568.408 21.24C567.808 21.8667 567.114 22.3467 566.328 22.68C565.541 23 564.641 23.16 563.628 23.16ZM572.569 15.94C572.569 14.4467 572.809 13.1667 573.289 12.1C573.782 11.02 574.489 10.1933 575.409 9.62C576.342 9.03333 577.469 8.74 578.789 8.74C580.069 8.74 581.176 9.03333 582.109 9.62C583.042 10.1933 583.762 11.02 584.269 12.1C584.776 13.1667 585.029 14.44 585.029 15.92C585.029 17.4133 584.769 18.7 584.249 19.78C583.742 20.86 583.022 21.6933 582.089 22.28C581.156 22.8667 580.056 23.16 578.789 23.16C577.482 23.16 576.362 22.8667 575.429 22.28C574.509 21.6933 573.802 20.86 573.309 19.78C572.816 18.7 572.569 17.42 572.569 15.94ZM573.469 15.94C573.469 17.9533 573.922 19.5267 574.829 20.66C575.736 21.78 577.056 22.34 578.789 22.34C580.456 22.34 581.762 21.78 582.709 20.66C583.656 19.54 584.129 17.9667 584.129 15.94C584.129 13.9133 583.656 12.3467 582.709 11.24C581.776 10.12 580.469 9.56 578.789 9.56C577.056 9.56 575.736 10.12 574.829 11.24C573.922 12.3467 573.469 13.9133 573.469 15.94ZM590.325 23V8.9H591.065L597.145 22.66H596.585L602.685 8.9H603.405V23H602.625V9.72H603.105L597.225 23H596.525L590.625 9.7H591.105V23H590.325ZM609.278 23V8.9H617.838V9.68H610.118V15.46H617.398V16.24H610.118V22.22H617.838V23H609.278ZM633.419 23V9.68H628.179V8.9H639.499V9.68H634.259V23H633.419ZM642.237 15.94C642.237 14.4467 642.477 13.1667 642.957 12.1C643.45 11.02 644.157 10.1933 645.077 9.62C646.01 9.03333 647.137 8.74 648.457 8.74C649.737 8.74 650.844 9.03333 651.777 9.62C652.71 10.1933 653.43 11.02 653.937 12.1C654.444 13.1667 654.697 14.44 654.697 15.92C654.697 17.4133 654.437 18.7 653.917 19.78C653.41 20.86 652.69 21.6933 651.757 22.28C650.824 22.8667 649.724 23.16 648.457 23.16C647.15 23.16 646.03 22.8667 645.097 22.28C644.177 21.6933 643.47 20.86 642.977 19.78C642.484 18.7 642.237 17.42 642.237 15.94ZM643.137 15.94C643.137 17.9533 643.59 19.5267 644.497 20.66C645.404 21.78 646.724 22.34 648.457 22.34C650.124 22.34 651.43 21.78 652.377 20.66C653.324 19.54 653.797 17.9667 653.797 15.94C653.797 13.9133 653.324 12.3467 652.377 11.24C651.444 10.12 650.137 9.56 648.457 9.56C646.724 9.56 645.404 10.12 644.497 11.24C643.59 12.3467 643.137 13.9133 643.137 15.94ZM666.993 23V8.9H667.733L673.813 22.66H673.253L679.353 8.9H680.073V23H679.293V9.72H679.773L673.893 23H673.193L667.293 9.7H667.773V23H666.993ZM689.446 23V16.48L689.666 17.24L684.026 8.9H685.006L690.046 16.46H689.746L694.786 8.9H695.726L690.086 17.24L690.286 16.48V23H689.446Z" fill="black"/>
<path d="M1 38H135" stroke="black" stroke-linecap="round"/>
<path d="M300 38L1201 38.0001" stroke="black" stroke-linecap="round"/>
<path d="M234 190H1201" stroke="black" stroke-linecap="round"/>
<path d="M1 190.5H103" stroke="black" stroke-linecap="round"/>
<path d="M15.0575 172V60H63.5375C70.5775 60 76.8708 61.6 82.4175 64.8C87.9642 68 92.3375 72.3733 95.5375 77.92C98.7375 83.36 100.338 89.6 100.338 96.64C100.338 103.787 98.7375 110.24 95.5375 116C92.3375 121.76 87.9642 126.293 82.4175 129.6C76.8708 132.907 70.5775 134.56 63.5375 134.56H42.4175V172H15.0575ZM42.0975 110.4H59.8575C62.2042 110.4 64.2842 109.867 66.0975 108.8C68.0175 107.627 69.5642 106.027 70.7375 104C71.9108 101.973 72.4975 99.68 72.4975 97.12C72.4975 94.4533 71.9108 92.16 70.7375 90.24C69.5642 88.32 68.0175 86.8267 66.0975 85.76C64.2842 84.6933 62.2042 84.16 59.8575 84.16H42.0975V110.4ZM302.383 172V60H353.103C360.356 60 366.863 61.5467 372.623 64.64C378.383 67.7333 382.916 72 386.223 77.44C389.636 82.7733 391.343 88.9067 391.343 95.84C391.343 102.88 389.636 109.173 386.223 114.72C382.916 120.267 378.383 124.693 372.623 128C366.863 131.2 360.356 132.8 353.103 132.8H328.463V172H302.383ZM364.623 172L336.143 121.28L364.143 117.28L395.823 172.16L364.623 172ZM328.463 111.52H350.703C353.476 111.52 355.876 110.933 357.903 109.76C360.036 108.48 361.636 106.773 362.703 104.64C363.876 102.507 364.463 100.053 364.463 97.28C364.463 94.4 363.769 91.8933 362.383 89.76C361.103 87.6267 359.236 85.9733 356.783 84.8C354.436 83.52 351.609 82.88 348.303 82.88H328.463V111.52ZM462.634 172V84.16H429.674V60H524.074V84.16H489.994V172H462.634ZM569.558 172V60H596.918V172H569.558ZM582.358 129.12V106.24H640.598V129.12H582.358ZM582.358 84.16V60H646.998V84.16H582.358ZM744.498 173.6C736.071 173.6 728.284 172.16 721.138 169.28C714.098 166.4 707.964 162.4 702.738 157.28C697.618 152.053 693.618 145.92 690.738 138.88C687.858 131.733 686.418 123.947 686.418 115.52C686.418 107.2 687.858 99.52 690.738 92.48C693.618 85.3333 697.618 79.1467 702.738 73.92C707.964 68.6933 714.098 64.64 721.138 61.76C728.284 58.88 736.071 57.44 744.498 57.44C752.818 57.44 760.498 58.88 767.538 61.76C774.578 64.64 780.658 68.6933 785.778 73.92C791.004 79.1467 795.058 85.3333 797.938 92.48C800.818 99.52 802.258 107.253 802.258 115.68C802.258 124 800.818 131.68 797.938 138.72C795.058 145.76 791.004 151.893 785.778 157.12C780.658 162.347 774.578 166.4 767.538 169.28C760.498 172.16 752.818 173.6 744.498 173.6ZM744.498 147.84C748.871 147.84 752.871 147.04 756.498 145.44C760.124 143.84 763.271 141.6 765.938 138.72C768.711 135.84 770.844 132.427 772.338 128.48C773.831 124.533 774.578 120.267 774.578 115.68C774.578 110.987 773.831 106.667 772.338 102.72C770.844 98.7733 768.711 95.36 765.938 92.48C763.271 89.4933 760.124 87.2 756.498 85.6C752.871 84 748.871 83.2 744.498 83.2C740.124 83.2 736.071 84 732.338 85.6C728.711 87.2 725.511 89.4933 722.738 92.48C720.071 95.36 717.991 98.7733 716.498 102.72C715.004 106.667 714.258 110.987 714.258 115.68C714.258 121.867 715.538 127.413 718.098 132.32C720.764 137.12 724.338 140.907 728.818 143.68C733.404 146.453 738.631 147.84 744.498 147.84ZM849.389 172V60H876.749V147.84H926.669V172H849.389ZM971.365 172V148.96H990.245V83.04H971.365V60H1036.49V83.04H1017.61V148.96H1036.49V172H971.365ZM1137.29 173.6C1128.86 173.6 1121.08 172.16 1113.93 169.28C1106.89 166.4 1100.76 162.4 1095.53 157.28C1090.41 152.053 1086.41 145.92 1083.53 138.88C1080.65 131.733 1079.21 123.947 1079.21 115.52C1079.21 107.2 1080.65 99.52 1083.53 92.48C1086.41 85.3333 1090.41 79.1467 1095.53 73.92C1100.76 68.6933 1106.89 64.64 1113.93 61.76C1121.08 58.88 1128.86 57.44 1137.29 57.44C1145.61 57.44 1153.29 58.88 1160.33 61.76C1167.37 64.64 1173.45 68.6933 1178.57 73.92C1183.8 79.1467 1187.85 85.3333 1190.73 92.48C1193.61 99.52 1195.05 107.253 1195.05 115.68C1195.05 124 1193.61 131.68 1190.73 138.72C1187.85 145.76 1183.8 151.893 1178.57 157.12C1173.45 162.347 1167.37 166.4 1160.33 169.28C1153.29 172.16 1145.61 173.6 1137.29 173.6ZM1137.29 147.84C1141.66 147.84 1145.66 147.04 1149.29 145.44C1152.92 143.84 1156.06 141.6 1158.73 138.72C1161.5 135.84 1163.64 132.427 1165.13 128.48C1166.62 124.533 1167.37 120.267 1167.37 115.68C1167.37 110.987 1166.62 106.667 1165.13 102.72C1163.64 98.7733 1161.5 95.36 1158.73 92.48C1156.06 89.4933 1152.92 87.2 1149.29 85.6C1145.66 84 1141.66 83.2 1137.29 83.2C1132.92 83.2 1128.86 84 1125.13 85.6C1121.5 87.2 1118.3 89.4933 1115.53 92.48C1112.86 95.36 1110.78 98.7733 1109.29 102.72C1107.8 106.667 1107.05 110.987 1107.05 115.68C1107.05 121.867 1108.33 127.413 1110.89 132.32C1113.56 137.12 1117.13 140.907 1121.61 143.68C1126.2 146.453 1131.42 147.84 1137.29 147.84Z" fill="black"/>
<path d="M198.561 18.5C133.061 62.9999 84.5607 233.5 140.561 233.5C190.061 233.5 271 125.5 276.5 72C282 18.5 266.061 4 206.561 4C169.543 4 143.446 54.3069 132.31 92.4496C127.822 107.823 126.628 124.928 134.677 138.774C151.022 166.891 195.301 179.727 306.061 104.5" stroke="black" stroke-width="7.5" stroke-linecap="round"/>
</svg>
