<svg width="418" height="716" viewBox="0 0 418 716" fill="none" xmlns="http://www.w3.org/2000/svg">
<g clip-path="url(#clip0_61_344)">
<path d="M-0.000366211 1.67337e-05C213.658 7.49192e-06 386.863 173.205 386.863 386.864L386.863 714.74V714.74C173.204 714.74 -0.00034229 541.535 -0.000351728 327.876L-0.000366211 1.67337e-05V1.67337e-05Z" fill="#B7CE01"/>
<path d="M389.096 155.626C503.665 170.597 380.783 88.9628 305.021 46.2743L265.176 119.571C258.746 125.351 274.528 140.655 389.096 155.626Z" fill="#1D38BD"/>
<path d="M231.393 200.75C146.643 345.546 157.441 194.87 173.434 101.432L273.303 111.645L231.393 200.75Z" fill="#1D38BD"/>
<path d="M326.498 235.231C396.615 277.687 320.208 160.32 273.239 96.3299L225.398 133.113C229.882 149.463 256.38 192.776 326.498 235.231Z" fill="#1D38BD"/>
<path d="M103.782 163.77C70.0154 245.513 154.719 170.83 201.291 123.27L154.991 79.2892C151.991 73.3896 137.55 82.0264 103.782 163.77Z" fill="#1D38BD"/>
<path d="M101.662 38.2278C11.3932 -53.1208 120.661 -15.2851 186.578 15.0513L159.241 86.8682L101.662 38.2278Z" fill="#1D38BD"/>
<path d="M57.325 101.715C12.0431 145.147 113.959 111.905 170.577 89.8549L152.858 47.1949C139.881 47.2713 102.607 58.2823 57.325 101.715Z" fill="#1D38BD"/>
<path d="M195.21 -96.4403C133.263 -193.974 149.371 -47.3287 165.169 38.1854L246.967 21.7853C255.526 23.0156 257.156 1.09292 195.21 -96.4403Z" fill="#1D38BD"/>
<path d="M327.574 -14.8235C493.037 -42.587 370.463 45.7069 288.494 93.3243L232.318 10.1245L327.574 -14.8235Z" fill="#1D38BD"/>
<path d="M296.435 -99.4189C284.077 -180.451 242.969 -46.5736 223.96 30.4942L282.859 43.637C292.534 29.7151 308.794 -18.3867 296.435 -99.4189Z" fill="#1D38BD"/>
<circle cx="229.444" cy="70.9209" r="86.8736" transform="rotate(142.445 229.444 70.9209)" fill="#1D38BD"/>
<mask id="path-12-inside-1_61_344" fill="white">
<path fill-rule="evenodd" clip-rule="evenodd" d="M291.036 66.2341C332.169 91.1614 378.087 125.498 321.4 118.091C299.729 115.259 284.296 112.406 273.488 109.74C296.701 144.336 317.463 182.281 285.935 163.191C263.944 149.876 249.526 136.412 240.605 125.473L232.053 143.656C193.03 210.327 189.763 166.427 194.772 119.229C170.315 141.327 144.958 158.525 159.755 122.704C166.142 107.242 171.309 96.3969 175.422 88.9337C145.243 99.2431 113.074 107.077 133.435 87.5472C147.637 73.9257 160.448 65.933 170.303 61.5041L158.554 51.5786C114.043 6.53541 155.165 16.9325 191.197 31.717C183.976 -15.811 180.927 -72.938 211.553 -24.7176C223.271 -6.26861 230.973 7.40529 235.855 17.4101C247.53 -22.583 263.346 -62.8411 268.903 -26.4052C272.189 -4.86176 271.904 12.5733 270.11 25.8267L286.545 21.5223C363.154 8.66778 330.777 39.727 291.036 66.2341Z"/>
</mask>
<path d="M321.4 118.091L321.53 117.099L321.53 117.099L321.4 118.091ZM291.036 66.2341L290.481 65.4022L289.173 66.2745L290.517 67.0893L291.036 66.2341ZM273.488 109.74L273.728 108.769L271.217 108.15L272.658 110.297L273.488 109.74ZM285.935 163.191L285.417 164.046L285.417 164.046L285.935 163.191ZM240.605 125.473L241.38 124.841L240.376 123.61L239.7 125.047L240.605 125.473ZM232.053 143.656L232.916 144.161L232.939 144.122L232.958 144.081L232.053 143.656ZM194.772 119.229L195.766 119.334L196.042 116.733L194.102 118.487L194.772 119.229ZM159.755 122.704L158.831 122.323L158.831 122.323L159.755 122.704ZM175.422 88.9337L176.298 89.4163L177.546 87.1514L175.098 87.9874L175.422 88.9337ZM133.435 87.5472L134.127 88.2689L134.127 88.2689L133.435 87.5472ZM170.303 61.5041L170.713 62.4162L172.162 61.7652L170.949 60.7402L170.303 61.5041ZM158.554 51.5786L157.842 52.2815L157.874 52.3135L157.908 52.3425L158.554 51.5786ZM191.197 31.717L190.818 32.6421L192.451 33.3123L192.186 31.5668L191.197 31.717ZM211.553 -24.7176L210.709 -24.1815L210.709 -24.1815L211.553 -24.7176ZM235.855 17.4101L234.956 17.8487L236.09 20.1728L236.815 17.6904L235.855 17.4101ZM268.903 -26.4052L269.892 -26.556L269.892 -26.556L268.903 -26.4052ZM270.11 25.8267L269.119 25.6926L268.918 27.1725L270.363 26.7941L270.11 25.8267ZM286.545 21.5223L286.379 20.5361L286.335 20.5436L286.291 20.555L286.545 21.5223ZM321.271 119.082C328.388 120.012 333.944 120.294 338.126 120.009C342.266 119.727 345.236 118.88 347.002 117.381C347.91 116.61 348.496 115.669 348.737 114.584C348.976 113.514 348.864 112.375 348.505 111.215C347.796 108.921 346.062 106.351 343.649 103.625C338.804 98.1508 330.904 91.7002 321.688 85.0823C312.457 78.4538 301.851 71.6194 291.554 65.3789L290.517 67.0893C300.786 73.3125 311.346 80.1179 320.521 86.7069C329.712 93.3065 337.461 99.651 342.152 104.951C344.507 107.612 346.012 109.924 346.594 111.806C346.881 112.735 346.928 113.509 346.785 114.149C346.646 114.775 346.311 115.344 345.708 115.856C344.45 116.924 342.028 117.739 337.99 118.014C333.994 118.286 328.584 118.021 321.53 117.099L321.271 119.082ZM273.249 110.711C284.106 113.389 299.578 116.248 321.271 119.082L321.53 117.099C299.88 114.27 284.487 111.423 273.728 108.769L273.249 110.711ZM285.417 164.046C289.387 166.45 292.595 167.995 295.117 168.752C297.589 169.494 299.658 169.556 301.109 168.59C302.614 167.59 303.062 165.766 302.971 163.745C302.88 161.696 302.23 159.147 301.179 156.256C296.981 144.701 285.918 126.471 274.319 109.183L272.658 110.297C284.271 127.605 295.196 145.645 299.3 156.939C300.325 159.761 300.895 162.085 300.973 163.835C301.053 165.613 300.621 166.513 300.001 166.925C299.328 167.373 298.028 167.538 295.692 166.836C293.405 166.15 290.364 164.704 286.453 162.336L285.417 164.046ZM239.83 126.105C248.83 137.14 263.337 150.677 285.417 164.046L286.453 162.336C264.551 149.075 250.223 135.684 241.38 124.841L239.83 126.105ZM232.958 144.081L241.51 125.898L239.7 125.047L231.148 143.23L232.958 144.081ZM193.778 119.123C192.523 130.944 191.784 142.584 191.997 152.355C192.103 157.24 192.448 161.677 193.092 165.447C193.733 169.201 194.682 172.365 196.041 174.654C197.409 176.96 199.27 178.49 201.715 178.668C204.093 178.841 206.747 177.709 209.681 175.387C215.556 170.739 223.157 160.835 232.916 144.161L231.19 143.151C221.438 159.812 213.996 169.423 208.44 173.819C205.659 176.02 203.5 176.793 201.86 176.673C200.288 176.559 198.926 175.597 197.761 173.633C196.584 171.651 195.688 168.765 195.063 165.11C194.441 161.47 194.101 157.137 193.996 152.311C193.786 142.659 194.516 131.113 195.766 119.334L193.778 119.123ZM158.831 122.323C156.97 126.828 155.726 130.533 155.034 133.52C154.347 136.487 154.181 138.84 154.568 140.596C154.971 142.421 155.994 143.657 157.6 144.132C159.093 144.573 160.916 144.3 162.867 143.632C166.798 142.286 171.904 139.101 177.499 134.934C183.119 130.748 189.315 125.507 195.442 119.971L194.102 118.487C188 123.999 181.856 129.195 176.305 133.33C170.73 137.482 165.835 140.502 162.219 141.74C160.398 142.364 159.06 142.478 158.167 142.214C157.387 141.983 156.798 141.419 156.521 140.165C156.23 138.842 156.32 136.834 156.983 133.971C157.641 131.129 158.841 127.536 160.679 123.086L158.831 122.323ZM174.546 88.4511C170.409 95.9585 165.226 106.841 158.831 122.323L160.679 123.086C167.059 107.644 172.209 96.8354 176.298 89.4163L174.546 88.4511ZM132.743 86.8255C130.173 89.2905 128.379 91.3718 127.305 93.111C126.257 94.8063 125.753 96.4038 126.214 97.7721C126.696 99.2008 128.06 99.9235 129.6 100.263C131.168 100.609 133.208 100.631 135.563 100.426C144.971 99.6083 160.667 95.0307 175.745 89.88L175.098 87.9874C159.998 93.1461 144.52 97.6399 135.389 98.4337C133.109 98.632 131.305 98.5909 130.03 98.3099C128.727 98.0226 128.252 97.5551 128.109 97.133C127.947 96.6504 128.034 95.7365 129.006 94.1623C129.952 92.6321 131.607 90.6862 134.127 88.2689L132.743 86.8255ZM169.893 60.592C159.925 65.0717 147.02 73.1318 132.743 86.8255L134.127 88.2689C148.253 74.7197 160.971 66.7944 170.713 62.4162L169.893 60.592ZM157.908 52.3425L169.658 62.268L170.949 60.7402L159.199 50.8147L157.908 52.3425ZM191.577 30.7918C182.55 27.0878 173.186 23.6512 164.911 21.2874C156.683 18.9372 149.379 17.6003 144.545 18.2205C142.128 18.5306 140.091 19.3606 138.984 21.0545C137.865 22.7664 137.901 25.0386 138.868 27.7314C140.792 33.0903 146.719 41.0251 157.842 52.2815L159.265 50.8757C148.133 39.6105 142.509 31.9537 140.75 27.0557C139.876 24.62 140.038 23.0975 140.658 22.1487C141.29 21.182 142.606 20.4857 144.799 20.2043C149.186 19.6415 156.136 20.8607 164.362 23.2105C172.54 25.5467 181.829 28.9539 190.818 32.6421L191.577 30.7918ZM212.397 -25.2538C208.552 -31.3081 205.21 -35.7509 202.312 -38.7781C199.443 -41.7751 196.89 -43.5129 194.609 -43.9114C193.435 -44.1164 192.338 -43.9655 191.35 -43.4583C190.375 -42.9579 189.573 -42.1453 188.912 -41.1292C187.604 -39.1197 186.741 -36.1482 186.194 -32.5566C185.095 -25.3434 185.204 -15.1614 186.027 -3.86006C186.853 7.45958 188.401 19.9687 190.209 31.8672L192.186 31.5668C190.383 19.7013 188.843 7.24654 188.022 -4.00549C187.201 -15.2758 187.107 -25.2732 188.171 -32.2553C188.706 -35.7614 189.516 -38.3913 190.588 -40.0383C191.116 -40.8505 191.68 -41.3798 192.263 -41.679C192.833 -41.9713 193.484 -42.0776 194.265 -41.9412C195.891 -41.6571 198.069 -40.3181 200.867 -37.3951C203.636 -34.5024 206.898 -30.1823 210.709 -24.1815L212.397 -25.2538ZM236.754 16.9716C231.85 6.92149 224.127 -6.78664 212.397 -25.2538L210.709 -24.1815C222.415 -5.75059 230.097 7.88908 234.956 17.8487L236.754 16.9716ZM269.892 -26.556C269.192 -31.1445 268.321 -34.5961 267.286 -37.0172C266.271 -39.3907 264.992 -41.0182 263.321 -41.5133C261.588 -42.0265 259.901 -41.2014 258.408 -39.8368C256.894 -38.4526 255.354 -36.3202 253.809 -33.6609C247.631 -23.0315 240.729 -2.85481 234.895 17.1299L236.815 17.6904C242.656 -2.31803 249.5 -22.267 255.538 -32.6559C257.046 -35.2513 258.465 -37.1793 259.757 -38.3606C261.071 -39.5616 262.039 -39.8072 262.753 -39.5957C263.528 -39.366 264.488 -38.4734 265.447 -36.2307C266.386 -34.0356 267.225 -30.7749 267.915 -26.2544L269.892 -26.556ZM271.101 25.9609C272.909 12.6065 273.191 -4.92471 269.892 -26.556L267.915 -26.2544C271.187 -4.79881 270.899 12.5401 269.119 25.6926L271.101 25.9609ZM286.291 20.555L269.856 24.8594L270.363 26.7941L286.798 22.4897L286.291 20.555ZM291.59 67.066C301.544 60.4273 311.057 53.4899 318.528 47.0131C322.263 43.7748 325.503 40.6391 328.036 37.7021C330.559 34.7763 332.428 31.9946 333.36 29.463C334.297 26.9163 334.328 24.4832 332.934 22.463C331.574 20.4947 329.019 19.1599 325.363 18.38C318.045 16.8186 305.538 17.3214 286.379 20.5361L286.71 22.5086C305.856 19.296 318.031 18.8607 324.946 20.336C328.407 21.0744 330.357 22.2515 331.288 23.5995C332.183 24.8957 332.289 26.5832 331.483 28.7722C330.672 30.9762 328.98 33.5452 326.522 36.3959C324.073 39.2353 320.909 42.3017 317.218 45.5019C309.835 51.9021 300.398 58.7873 290.481 65.4022L291.59 67.066Z" fill="#201615" mask="url(#path-12-inside-1_61_344)"/>
<mask id="path-14-inside-2_61_344" fill="white">
<path fill-rule="evenodd" clip-rule="evenodd" d="M242.381 57.489C254.353 50.9116 269.319 44.4936 259.448 57.3844C255.674 62.3126 252.78 65.7033 250.59 67.9831C262.395 67.1863 274.677 67.4682 265.504 72.512C259.107 76.03 253.748 77.6642 249.79 78.3051L253.048 82.9905C263.905 102.056 252.644 96.6259 241.746 88.6916C243.708 97.8449 244.337 106.524 237.628 97.7976C234.732 94.0308 232.798 91.2198 231.547 89.1485C229.797 98.0352 227.155 107.06 225.243 99.2789C223.91 93.8516 223.763 89.5656 224.073 86.5126L219.964 87.993C202.564 92.5445 210.961 83.9068 219.714 77.1436C206.999 72.1705 192.515 64.8082 208.724 64.1229C214.926 63.8607 219.383 63.908 222.537 64.128C214.358 55.5773 206.702 45.9702 216.453 49.7775C222.218 52.0286 226.466 54.5745 229.471 56.8979L230.746 52.2442C238.463 31.576 241.505 43.9501 242.381 57.489Z"/>
</mask>
<path d="M259.448 57.3844L258.654 56.7764L258.654 56.7764L259.448 57.3844ZM242.381 57.489L241.383 57.5536L241.485 59.1224L242.863 58.3654L242.381 57.489ZM250.59 67.9831L249.869 67.2902L248.077 69.155L250.657 68.9808L250.59 67.9831ZM265.504 72.512L265.022 71.6357L265.022 71.6357L265.504 72.512ZM249.79 78.3051L249.63 77.3179L248.062 77.5718L248.969 78.8759L249.79 78.3051ZM253.048 82.9905L253.917 82.4957L253.895 82.4566L253.869 82.4197L253.048 82.9905ZM241.746 88.6916L242.335 87.8832L240.22 86.3435L240.768 88.9012L241.746 88.6916ZM237.628 97.7976L236.836 98.4071L236.836 98.4071L237.628 97.7976ZM231.547 89.1485L232.403 88.6313L231.065 86.418L230.566 88.9553L231.547 89.1485ZM225.243 99.2789L224.272 99.5175L224.272 99.5175L225.243 99.2789ZM224.073 86.5126L225.068 86.6137L225.229 85.0335L223.734 85.5718L224.073 86.5126ZM219.964 87.993L220.217 88.9605L220.26 88.9491L220.303 88.9339L219.964 87.993ZM219.714 77.1436L220.325 77.9349L221.723 76.8554L220.078 76.2123L219.714 77.1436ZM208.724 64.1229L208.682 63.1238L208.682 63.1238L208.724 64.1229ZM222.537 64.128L222.467 65.1256L225.047 65.3056L223.259 63.4368L222.537 64.128ZM216.453 49.7775L216.089 50.709L216.089 50.709L216.453 49.7775ZM229.471 56.8979L228.859 57.689L230.041 58.6025L230.435 57.1622L229.471 56.8979ZM230.746 52.2442L229.809 51.8944L229.794 51.9366L229.782 51.98L230.746 52.2442ZM260.242 57.9924C261.495 56.3558 262.384 54.9871 262.938 53.858C263.472 52.7667 263.774 51.7401 263.613 50.8582C263.527 50.3845 263.308 49.9624 262.951 49.635C262.606 49.318 262.185 49.139 261.764 49.0432C260.949 48.8576 259.95 48.9438 258.906 49.1562C256.79 49.5872 254.022 50.6421 251.075 51.9738C248.112 53.3129 244.907 54.9602 241.9 56.6125L242.863 58.3654C245.841 56.7291 248.997 55.1076 251.899 53.7963C254.817 52.4775 257.418 51.5004 259.305 51.116C260.264 50.9208 260.926 50.9035 261.321 50.9934C261.505 51.0354 261.578 51.0889 261.599 51.1085C261.609 51.1177 261.631 51.1363 261.645 51.2167C261.687 51.4431 261.631 51.9786 261.142 52.978C260.671 53.9397 259.868 55.1902 258.654 56.7764L260.242 57.9924ZM251.311 68.676C253.536 66.3598 256.455 62.9376 260.242 57.9924L258.654 56.7764C254.893 61.6876 252.024 65.0467 249.869 67.2902L251.311 68.676ZM265.986 73.3882C267.163 72.7412 268.058 72.1376 268.667 71.5645C269.238 71.0268 269.754 70.3291 269.702 69.501C269.645 68.6093 268.977 68.0695 268.39 67.7649C267.777 67.4468 266.974 67.2294 266.088 67.0726C262.552 66.447 256.413 66.5878 250.522 66.9854L250.657 68.9808C256.572 68.5816 262.477 68.4649 265.74 69.042C266.553 69.1859 267.122 69.3604 267.468 69.5399C267.84 69.7329 267.717 69.7963 267.706 69.6278C267.699 69.5231 267.763 69.6686 267.296 70.1087C266.866 70.5133 266.139 71.0218 265.022 71.6357L265.986 73.3882ZM249.95 79.2922C254.03 78.6316 259.497 76.9566 265.986 73.3882L265.022 71.6357C258.716 75.1034 253.465 76.6969 249.63 77.3179L249.95 79.2922ZM253.869 82.4197L250.611 77.7342L248.969 78.8759L252.227 83.5614L253.869 82.4197ZM241.157 89.5C243.899 91.4963 246.685 93.3504 249.155 94.7059C250.39 95.3835 251.564 95.9462 252.627 96.3394C253.675 96.7274 254.684 96.9765 255.567 96.9659C256.471 96.9551 257.377 96.6617 257.944 95.8265C258.473 95.0472 258.549 94.0154 258.384 92.8951C258.054 90.6458 256.635 87.2687 253.917 82.4957L252.179 83.4854C254.889 88.2451 256.134 91.3388 256.405 93.1856C256.542 94.1133 256.403 94.5359 256.289 94.7032C256.213 94.8145 256.049 94.96 255.543 94.9661C255.016 94.9724 254.274 94.8166 253.321 94.4637C252.381 94.116 251.301 93.6018 250.117 92.9525C247.751 91.6541 245.042 89.8541 242.335 87.8832L241.157 89.5ZM236.836 98.4071C237.693 99.522 238.454 100.387 239.129 101.018C239.789 101.634 240.438 102.094 241.076 102.297C241.782 102.52 242.517 102.429 243.085 101.89C243.569 101.431 243.798 100.765 243.92 100.142C244.17 98.8669 244.099 97.064 243.867 95.0867C243.632 93.0797 243.218 90.7877 242.724 88.482L240.768 88.9012C241.255 91.1722 241.656 93.3975 241.881 95.3194C242.109 97.2711 242.144 98.8086 241.958 99.7568C241.862 100.245 241.738 100.412 241.708 100.439C241.706 100.441 241.712 100.435 241.727 100.428C241.742 100.42 241.758 100.415 241.77 100.412C241.797 100.407 241.775 100.42 241.68 100.39C241.464 100.322 241.077 100.1 240.494 99.5561C239.928 99.0271 239.241 98.2546 238.421 97.188L236.836 98.4071ZM230.691 89.6657C231.969 91.7801 233.926 94.6233 236.836 98.4071L238.421 97.188C235.538 93.4382 233.628 90.6595 232.403 88.6313L230.691 89.6657ZM224.272 99.5175C224.519 100.524 224.794 101.327 225.111 101.916C225.403 102.459 225.862 103.062 226.592 103.209C227.384 103.368 227.994 102.906 228.355 102.511C228.735 102.095 229.067 101.519 229.362 100.887C230.539 98.3669 231.655 93.773 232.528 89.3417L230.566 88.9553C229.688 93.4108 228.609 97.7727 227.55 100.041C227.286 100.606 227.056 100.967 226.879 101.162C226.682 101.377 226.737 101.198 226.986 101.248C227.172 101.285 227.097 101.386 226.872 100.968C226.672 100.596 226.445 99.9795 226.214 99.0403L224.272 99.5175ZM223.078 86.4116C222.756 89.5878 222.914 93.9889 224.272 99.5175L226.214 99.0403C224.906 93.7144 224.77 89.5434 225.068 86.6137L223.078 86.4116ZM220.303 88.9339L224.412 87.4535L223.734 85.5718L219.625 87.0522L220.303 88.9339ZM219.103 76.3523C216.898 78.0559 214.7 79.8887 212.918 81.6135C211.171 83.3038 209.705 84.9996 209.109 86.4256C208.811 87.1385 208.638 88.0046 209.038 88.795C209.448 89.6045 210.279 89.9911 211.175 90.1531C212.939 90.4721 215.873 90.0968 220.217 88.9605L219.711 87.0256C215.355 88.165 212.813 88.4168 211.531 88.185C211.229 88.1303 211.045 88.0562 210.941 87.9946C210.845 87.938 210.826 87.8988 210.823 87.8923C210.815 87.8771 210.743 87.7021 210.954 87.197C211.376 86.1872 212.563 84.7399 214.309 83.0507C216.019 81.396 218.154 79.613 220.325 77.9349L219.103 76.3523ZM208.682 63.1238C206.624 63.2108 205.004 63.4051 203.783 63.7039C202.603 63.9926 201.622 64.4186 201.048 65.1056C200.739 65.4746 200.554 65.9123 200.531 66.3956C200.507 66.8637 200.638 67.3012 200.834 67.6858C201.213 68.4308 201.918 69.1422 202.747 69.8062C204.431 71.1531 207.011 72.6005 209.917 74.0076C212.841 75.4226 216.155 76.8256 219.35 78.0749L220.078 76.2123C216.915 74.9751 213.651 73.5929 210.789 72.2074C207.91 70.8139 205.498 69.4454 203.997 68.2445C203.235 67.6346 202.8 67.139 202.617 66.7795C202.532 66.6118 202.527 66.5226 202.528 66.4942C202.529 66.4809 202.529 66.4519 202.582 66.3888C202.73 66.2115 203.178 65.911 204.259 65.6465C205.299 65.3921 206.772 65.2064 208.766 65.122L208.682 63.1238ZM222.606 63.1305C219.402 62.9069 214.905 62.8607 208.682 63.1238L208.766 65.122C214.946 64.8608 219.363 64.9091 222.467 65.1256L222.606 63.1305ZM216.816 48.846C215.565 48.3576 214.528 48.0571 213.698 47.9574C212.92 47.864 212.053 47.9146 211.451 48.4858C210.803 49.1009 210.817 49.9599 210.96 50.6057C211.108 51.2798 211.456 52.0353 211.903 52.816C213.69 55.9314 217.733 60.5528 221.814 64.8193L223.259 63.4368C219.161 59.1526 215.287 54.6951 213.638 51.821C213.227 51.1044 212.996 50.5556 212.913 50.1751C212.822 49.7662 212.95 49.8203 212.828 49.9365C212.752 50.0088 212.823 49.8667 213.46 49.9432C214.046 50.0135 214.902 50.2456 216.089 50.709L216.816 48.846ZM230.083 56.1068C226.997 53.7211 222.665 51.1295 216.816 48.846L216.089 50.709C221.772 52.9278 225.935 55.428 228.859 57.689L230.083 56.1068ZM229.782 51.98L228.506 56.6336L230.435 57.1622L231.711 52.5085L229.782 51.98ZM243.379 57.4244C243.159 54.0183 242.801 50.6603 242.261 47.8618C241.991 46.4628 241.672 45.1845 241.294 44.1009C240.921 43.0313 240.468 42.0836 239.897 41.3989C239.317 40.7019 238.516 40.1728 237.507 40.2544C236.561 40.331 235.713 40.9294 234.954 41.7707C233.432 43.4588 231.741 46.7211 229.809 51.8944L231.683 52.594C233.61 47.4333 235.193 44.4917 236.439 43.1101C237.065 42.4166 237.474 42.2637 237.668 42.2479C237.8 42.2372 238.024 42.2748 238.361 42.679C238.708 43.0955 239.065 43.7834 239.405 44.7594C239.741 45.7215 240.038 46.8988 240.297 48.2408C240.815 50.9244 241.165 54.1903 241.383 57.5536L243.379 57.4244Z" fill="#201615" mask="url(#path-14-inside-2_61_344)"/>
<path d="M460.337 493.825C459.051 487.278 458.94 480.216 459.766 473.596C509.875 71.7609 211.857 131.858 98.1955 189.74C-15.2712 247.523 -111.972 387.17 -43.3832 528.463C-41.9972 531.319 -40.7589 534.28 -39.7155 537.277C28.0863 732.05 324.795 877.439 438.541 819.514C551.093 762.197 495.46 672.642 460.337 493.825Z" fill="#A848C6"/>
<path d="M197.719 771.47C156.021 771.47 136.719 795.47 104.719 749.47C86.7632 723.659 112.729 723.036 141.276 723.132C175.734 723.248 216.318 705.411 245.976 722.953C260.839 731.744 271.066 744.402 274.719 755.47C291.219 805.47 239.416 771.47 197.719 771.47Z" fill="#E3E4DF"/>
<path d="M-15.7402 824.825C13.807 824.825 32.2961 815.64 52.7258 792.325C77.2598 764.325 86.7258 697.325 -15.7402 762.825C-42.2402 783.825 -69.2402 776.704 -69.2402 793.825C-69.2402 810.946 -45.2875 824.825 -15.7402 824.825Z" fill="#E3E4DF"/>
<path d="M184.135 302.561C282.092 269.312 374.102 309.866 407.863 334.299L385.944 407.599C216.636 298.178 126.187 410.118 122.156 469.564C114.346 498.028 115.656 568.086 162.216 616.449C208.775 664.812 342.357 615.156 385.944 595.005L407.863 679.64C362.765 694.25 250.498 714.703 162.216 679.64C73.9338 644.577 51.8633 524.98 51.8633 469.564C55.1386 427.75 86.1783 335.811 184.135 302.561Z" fill="#A848C6"/>
<path d="M123.852 -42.7737L127.204 -94.0896C90.8864 -123.81 49.5849 -115.734 33.4737 -107.981C-11.031 -87.2836 -78.7871 -21.0605 6.22628 78.2496C91.2396 177.56 180.826 120.201 214.993 79.1075L167.372 43.0848C163.29 81.3743 134.019 90.3811 96.8202 70.7829C53.0028 47.6978 1.27218 -2.96848 36.543 -48.1359C71.8139 -93.3034 109.445 -63.3809 123.852 -42.7737Z" fill="#05972C"/>
<path d="M-95.419 407.029C-105.168 505.017 -161.551 634.038 -203.481 610.983C-245.41 587.928 -222.823 476.996 -141.588 344.971C-56.1381 206.095 -28.839 126.925 13.0906 149.981C55.0202 173.036 -79.4592 246.613 -95.419 407.029Z" fill="#05972C"/>
<path d="M55.0622 491.469C146.643 468.781 259.804 396.077 230.717 357.92C201.63 319.762 99.921 356.808 -11.8622 454.356C-129.445 556.966 -200.128 594.4 -171.041 632.557C-141.954 670.715 -94.8652 528.612 55.0622 491.469Z" fill="#05972C"/>
<path d="M40.2623 358.073C92.6716 269.413 237.359 211.865 201.521 179.502C165.684 147.14 65.5402 217.714 -36.1318 356.535C-143.079 502.559 -210.948 564.204 -175.111 596.566C-139.274 628.929 -50.263 511.213 40.2623 358.073Z" fill="#05972C"/>
<path d="M-102.87 403.574C-107.729 452.416 -124.214 509.005 -144.706 550.498C-154.954 571.248 -166.185 588.184 -177.436 598.492C-188.695 608.807 -199.845 612.383 -210.039 606.778C-220.313 601.128 -226.689 590.075 -229.178 574.498C-231.668 558.916 -230.253 538.873 -224.99 515.39C-214.465 468.431 -188.585 407.854 -148.059 341.99C-127.021 307.799 -109.514 277.232 -94.4504 250.933L-93.8281 249.847C-78.6221 223.299 -65.9204 201.159 -54.5782 184.072C-43.2292 166.974 -33.2791 154.994 -23.5928 148.712C-18.7582 145.576 -14.0042 143.87 -9.18493 143.646C-4.36764 143.421 0.549128 144.675 5.71525 147.516C10.8344 150.331 13.1695 153.851 13.458 158.145C13.7512 162.509 11.9425 167.781 8.47755 174.076C3.52055 183.083 -4.7058 193.985 -14.5491 207.029C-18.4615 212.214 -22.6293 217.737 -26.9488 223.615C-57.2819 264.888 -94.89 323.37 -102.87 403.574Z" stroke="#201615"/>
<path d="M47.6874 487.461C93.3306 476.154 144.364 452.377 180.35 426.678C198.346 413.827 212.542 400.52 220.429 388.082C228.318 375.641 229.828 364.196 222.748 354.908C215.614 345.549 204.003 340.758 188.764 340.393C173.517 340.027 154.69 344.097 133.245 352.411C90.3606 369.038 37.1339 402.587 -18.6299 451.249C-47.5796 476.513 -73.6815 497.819 -96.1393 516.15L-97.0673 516.907C-119.738 535.413 -138.638 550.864 -152.963 564.303C-167.298 577.75 -176.996 589.133 -181.32 599.494C-183.478 604.664 -184.292 609.566 -183.684 614.337C-183.076 619.107 -181.043 623.779 -177.457 628.484C-173.899 633.151 -170.146 634.974 -166.02 634.684C-161.829 634.39 -157.129 631.913 -151.731 627.665C-146.347 623.428 -140.342 617.49 -133.54 610.388C-130.611 607.329 -127.527 604.047 -124.283 600.594C-120.016 596.053 -115.471 591.216 -110.635 586.203C-76.5304 550.85 -27.2844 506.035 47.6874 487.461Z" stroke="#201615"/>
<path d="M32.6205 354.524C57.4202 312.571 102.855 277.6 139.983 249.023C142.104 247.39 144.199 245.778 146.261 244.186C165.363 229.445 181.646 216.506 190.929 205.248C195.572 199.618 198.412 194.467 199.022 189.771C199.626 185.121 198.05 180.846 193.683 176.903C184.915 168.985 172.163 167.307 156.26 171.512C140.358 175.716 121.395 185.784 100.346 201.213C58.2523 232.068 7.92433 284.279 -42.8013 353.539C-69.1311 389.489 -93.0882 420.317 -113.702 446.841L-114.553 447.937C-135.361 474.712 -152.709 497.065 -165.603 515.87C-178.505 534.687 -186.907 549.896 -189.873 562.388C-191.353 568.624 -191.473 574.16 -190.137 579.119C-188.803 584.073 -186.007 588.487 -181.597 592.469C-177.232 596.411 -172.067 598.068 -166.165 597.657C-160.244 597.244 -153.563 594.748 -146.214 590.339C-131.513 581.52 -114.271 565.134 -95.2915 542.922C-57.3411 498.51 -12.556 430.949 32.6205 354.524Z" stroke="#201615"/>
<path d="M-179.092 793.503L-23.8257 873.623L0.23272 850.955L24.2911 828.287L-50.8805 673.793C-63.3903 648.083 -86.3953 629.029 -113.986 621.526L-119.469 620.035C-149.338 611.913 -181.28 619.902 -203.809 641.128C-226.721 662.717 -236.516 694.808 -229.564 725.512L-228.679 729.418C-222.422 757.053 -204.272 780.51 -179.092 793.503Z" fill="#1F3DBF"/>
<path d="M9.77244 637.089L-27.4319 807.802L0.690516 825.173L28.8129 842.545L158.587 729.949C180.183 711.211 192.634 684.058 192.74 655.466L192.761 649.783C192.876 618.831 176.892 590.044 150.558 573.777C123.775 557.233 90.2413 556.078 62.3831 570.74L58.8395 572.605C33.7658 585.802 15.8059 609.405 9.77244 637.089Z" fill="#1F3DBF"/>
<mask id="path-29-inside-3_61_344" fill="white">
<path fill-rule="evenodd" clip-rule="evenodd" d="M42.7994 787.254L121.304 762.191C141.68 755.686 163.89 758.519 181.981 769.93L184.538 771.542C204.638 784.221 216.54 806.579 215.833 830.334C215.139 853.689 202.352 875.004 182.073 886.612L178.35 888.743C159.618 899.466 137.168 901.575 116.766 894.529L49.2359 871.205L107.312 924.041C123.134 938.434 131.786 959.085 130.949 980.458L130.831 983.478C129.902 1007.23 116.489 1028.71 95.5642 1039.98C74.9901 1051.05 50.1375 1050.64 29.9455 1038.88L26.2382 1036.72C7.58611 1025.86 -5.4657 1007.47 -9.56413 986.279L-28.1839 890.004C-28.9259 889.733 -29.6613 889.449 -30.39 889.152L-69.4899 969.17C-79.5286 989.715 -98.6217 1004.36 -121.065 1008.74C-145.63 1013.52 -170.933 1005.38 -188.095 987.165L-188.687 986.537C-205.906 968.262 -212.696 942.274 -206.855 917.853C-201.478 895.376 -186.04 876.357 -165.061 866.661L-72.5026 823.88L-151.939 782.889C-170.947 773.081 -184.648 755.373 -189.372 734.512L-190.04 731.564C-195.288 708.386 -187.894 684.16 -170.597 667.863C-153.591 651.839 -129.478 645.809 -106.93 651.94L-102.791 653.066C-81.963 658.729 -64.5967 673.113 -55.1532 692.521L-27.7015 748.94L-9.36734 664.814C-4.81273 643.915 8.74501 626.098 27.6729 616.135L30.3479 614.728C51.3779 603.659 76.6919 604.531 96.9103 617.02C116.789 629.3 128.856 651.031 128.769 674.397L128.753 678.687C128.673 700.271 119.274 720.768 102.971 734.913L42.7334 787.177C42.7555 787.203 42.7774 787.228 42.7994 787.254Z"/>
</mask>
<path d="M121.304 762.191L121 761.239L121 761.239L121.304 762.191ZM42.7994 787.254L42.0425 787.907L42.4742 788.407L43.1035 788.206L42.7994 787.254ZM181.981 769.93L182.515 769.084L182.515 769.084L181.981 769.93ZM184.538 771.542L184.004 772.388L184.004 772.388L184.538 771.542ZM215.833 830.334L214.834 830.304L215.833 830.334ZM182.073 886.612L182.57 887.48L182.57 887.48L182.073 886.612ZM178.35 888.743L177.853 887.876L177.853 887.876L178.35 888.743ZM116.766 894.529L116.44 895.474L116.44 895.474L116.766 894.529ZM49.2359 871.205L49.5623 870.26L48.5629 871.945L49.2359 871.205ZM107.312 924.041L106.64 924.78L106.64 924.78L107.312 924.041ZM130.949 980.458L129.95 980.419L129.95 980.419L130.949 980.458ZM130.831 983.478L131.83 983.517L131.83 983.517L130.831 983.478ZM95.5642 1039.98L95.0901 1039.1L95.5642 1039.98ZM29.9455 1038.88L29.4422 1039.74L29.4422 1039.74L29.9455 1038.88ZM26.2382 1036.72L26.7414 1035.86L26.7414 1035.86L26.2382 1036.72ZM-9.56413 986.279L-8.58232 986.089L-8.58232 986.089L-9.56413 986.279ZM-28.1839 890.004L-27.2021 889.815L-27.3095 889.259L-27.8408 889.065L-28.1839 890.004ZM-30.39 889.152L-30.0124 888.226L-30.878 887.873L-31.2884 888.713L-30.39 889.152ZM-69.4899 969.17L-68.5914 969.61L-68.5914 969.61L-69.4899 969.17ZM-121.065 1008.74L-121.257 1007.75L-121.257 1007.75L-121.065 1008.74ZM-188.095 987.165L-188.823 987.851L-188.823 987.851L-188.095 987.165ZM-188.687 986.537L-187.959 985.851L-187.959 985.851L-188.687 986.537ZM-206.855 917.853L-205.882 918.086L-205.882 918.086L-206.855 917.853ZM-165.061 866.661L-165.481 865.753L-165.481 865.753L-165.061 866.661ZM-72.5026 823.88L-72.083 824.787L-70.2261 823.929L-72.044 822.991L-72.5026 823.88ZM-151.939 782.889L-151.48 782.001L-151.48 782.001L-151.939 782.889ZM-189.372 734.512L-188.397 734.291L-188.397 734.291L-189.372 734.512ZM-190.04 731.564L-191.015 731.785L-191.015 731.785L-190.04 731.564ZM-170.597 667.863L-169.911 668.591L-169.911 668.591L-170.597 667.863ZM-106.93 651.94L-107.193 652.905L-107.193 652.905L-106.93 651.94ZM-102.791 653.066L-102.528 652.101L-102.528 652.101L-102.791 653.066ZM-55.1532 692.521L-54.254 692.084L-54.254 692.084L-55.1532 692.521ZM-27.7015 748.94L-28.6007 749.378L-27.3386 751.972L-26.7244 749.153L-27.7015 748.94ZM-9.36734 664.814L-8.39027 665.027L-8.39027 665.027L-9.36734 664.814ZM27.6729 616.135L28.1387 617.02L28.1387 617.02L27.6729 616.135ZM30.3479 614.728L29.8822 613.843L29.8822 613.843L30.3479 614.728ZM96.9103 617.02L96.3848 617.871L96.3848 617.871L96.9103 617.02ZM128.769 674.397L129.769 674.401L129.769 674.401L128.769 674.397ZM128.753 678.687L127.753 678.683L127.753 678.683L128.753 678.687ZM102.971 734.913L102.316 734.158L102.316 734.158L102.971 734.913ZM42.7334 787.177L42.0781 786.422L41.3232 787.077L41.9777 787.832L42.7334 787.177ZM121 761.239L42.4953 786.301L43.1035 788.206L121.608 763.144L121 761.239ZM182.515 769.084C164.174 757.515 141.658 754.644 121 761.239L121.608 763.144C141.703 756.729 163.606 759.522 181.448 770.776L182.515 769.084ZM185.071 770.697L182.515 769.084L181.448 770.776L184.004 772.388L185.071 770.697ZM216.833 830.363C217.55 806.255 205.471 783.564 185.071 770.697L184.004 772.388C203.806 784.878 215.53 806.903 214.834 830.304L216.833 830.363ZM182.57 887.48C203.151 875.699 216.128 854.067 216.833 830.363L214.834 830.304C214.149 853.312 201.553 874.309 181.577 885.744L182.57 887.48ZM178.847 889.611L182.57 887.48L181.577 885.744L177.853 887.876L178.847 889.611ZM116.44 895.474C137.114 902.614 159.864 900.477 178.847 889.611L177.853 887.876C159.372 898.455 137.221 900.536 117.093 893.584L116.44 895.474ZM48.9094 872.15L116.44 895.474L117.093 893.584L49.5623 870.26L48.9094 872.15ZM107.985 923.301L49.9088 870.465L48.5629 871.945L106.64 924.78L107.985 923.301ZM131.949 980.497C132.797 958.829 124.025 937.893 107.985 923.301L106.64 924.78C122.243 938.975 130.775 959.341 129.95 980.419L131.949 980.497ZM131.83 983.517L131.949 980.497L129.95 980.419L129.832 983.439L131.83 983.517ZM96.0382 1040.86C117.275 1029.42 130.887 1007.62 131.83 983.517L129.832 983.439C128.916 1006.83 115.704 1028 95.0901 1039.1L96.0382 1040.86ZM29.4422 1039.74C49.935 1051.68 75.1577 1052.1 96.0382 1040.86L95.0901 1039.1C74.8225 1050.01 50.34 1049.6 30.4487 1038.01L29.4422 1039.74ZM25.735 1037.58L29.4422 1039.74L30.4487 1038.01L26.7414 1035.86L25.735 1037.58ZM-10.5459 986.469C-6.39272 1007.94 6.83356 1026.58 25.735 1037.58L26.7414 1035.86C8.33865 1025.14 -4.53868 1007 -8.58232 986.089L-10.5459 986.469ZM-29.1658 890.194L-10.5459 986.469L-8.58232 986.089L-27.2021 889.815L-29.1658 890.194ZM-27.8408 889.065C-28.5711 888.798 -29.2951 888.519 -30.0124 888.226L-30.7676 890.078C-30.0275 890.38 -29.2806 890.668 -28.5271 890.944L-27.8408 889.065ZM-68.5914 969.61L-29.4915 889.591L-31.2884 888.713L-70.3884 968.731L-68.5914 969.61ZM-120.874 1009.72C-98.1226 1005.28 -78.7678 990.436 -68.5914 969.61L-70.3884 968.731C-80.2894 988.994 -99.1207 1003.44 -121.257 1007.75L-120.874 1009.72ZM-188.823 987.851C-171.426 1006.32 -145.775 1014.57 -120.874 1009.72L-121.257 1007.75C-145.484 1012.48 -170.441 1004.44 -187.368 986.479L-188.823 987.851ZM-189.415 987.223L-188.823 987.851L-187.368 986.479L-187.959 985.851L-189.415 987.223ZM-207.827 917.62C-213.746 942.365 -206.868 968.699 -189.415 987.223L-187.959 985.851C-204.944 967.824 -211.646 942.182 -205.882 918.086L-207.827 917.62ZM-165.481 865.753C-186.741 875.58 -202.38 894.849 -207.827 917.62L-205.882 918.086C-200.576 895.903 -185.34 877.135 -164.642 867.569L-165.481 865.753ZM-72.9221 822.972L-165.481 865.753L-164.642 867.569L-72.083 824.787L-72.9221 822.972ZM-152.397 783.778L-72.9611 824.768L-72.044 822.991L-151.48 782.001L-152.397 783.778ZM-190.347 734.733C-185.558 755.882 -171.668 773.834 -152.397 783.778L-151.48 782.001C-170.226 772.328 -183.738 754.865 -188.397 734.291L-190.347 734.733ZM-191.015 731.785L-190.347 734.733L-188.397 734.291L-189.064 731.343L-191.015 731.785ZM-171.283 667.135C-188.837 683.675 -196.341 708.261 -191.015 731.785L-189.064 731.343C-194.234 708.51 -186.951 684.645 -169.911 668.591L-171.283 667.135ZM-106.668 650.975C-129.551 644.752 -154.023 650.873 -171.283 667.135L-169.911 668.591C-153.158 652.806 -129.404 646.865 -107.193 652.905L-106.668 650.975ZM-102.528 652.101L-106.668 650.975L-107.193 652.905L-103.053 654.031L-102.528 652.101ZM-54.254 692.084C-63.8237 672.416 -81.4222 657.84 -102.528 652.101L-103.053 654.031C-82.5038 659.619 -65.3696 673.81 -56.0524 692.959L-54.254 692.084ZM-26.8023 748.503L-54.254 692.084L-56.0524 692.959L-28.6007 749.378L-26.8023 748.503ZM-10.3444 664.601L-28.6786 748.728L-26.7244 749.153L-8.39027 665.027L-10.3444 664.601ZM27.2072 615.251C8.01798 625.35 -5.72692 643.414 -10.3444 664.601L-8.39027 665.027C-3.89854 644.417 9.47205 626.845 28.1387 617.02L27.2072 615.251ZM29.8822 613.843L27.2072 615.251L28.1387 617.02L30.8137 615.612L29.8822 613.843ZM97.4359 616.17C76.9164 603.494 51.2253 602.609 29.8822 613.843L30.8137 615.612C51.5304 604.709 76.4675 605.568 96.3848 617.871L97.4359 616.17ZM129.769 674.401C129.857 650.687 117.611 628.632 97.4359 616.17L96.3848 617.871C115.968 629.968 127.854 651.375 127.769 674.393L129.769 674.401ZM129.753 678.69L129.769 674.401L127.769 674.393L127.753 678.683L129.753 678.69ZM103.627 735.668C120.148 721.334 129.672 700.563 129.753 678.69L127.753 678.683C127.674 699.978 118.401 720.202 102.316 734.158L103.627 735.668ZM43.3888 787.933L103.627 735.668L102.316 734.158L42.0781 786.422L43.3888 787.933ZM41.9777 787.832C41.9993 787.857 42.0209 787.882 42.0425 787.907L43.5564 786.6C43.534 786.574 43.5116 786.548 43.4891 786.522L41.9777 787.832Z" fill="#201615" mask="url(#path-29-inside-3_61_344)"/>
<path d="M469.234 428.5C437.234 400.834 328.434 376.4 149.234 500C276.401 498.667 518.434 482.5 469.234 428.5Z" stroke="#201615"/>
<path d="M152.234 631.5C234.734 563.833 411.234 438.8 457.234 480C503.234 521.2 273.068 598.166 152.234 631.5Z" stroke="#201615"/>
<path d="M213.735 764.5C279.735 667 420.835 485.7 457.235 540.5C493.635 595.3 310.068 712.667 213.735 764.5Z" stroke="#201615"/>
<path d="M284.234 350C343.567 367.167 464.434 405.3 473.234 420.5C484.234 439.5 508.234 350 284.234 350Z" stroke="#201615"/>
</g>
<path d="M1.56076 675.949V675.949C23.5617 673.793 40.9103 657.137 43.0163 636.149L43.2847 633.475L43.6515 637.13C45.7015 657.561 62.5582 673.792 83.9689 675.95V675.95V675.95C62.6145 677.771 45.625 693.791 43.4818 714.126L43.2844 716L43.1905 715.109C40.9888 694.215 23.5059 677.769 1.56076 675.949V675.949Z" fill="#251F21"/>
<path d="M332.991 43.2908V43.2908C354.992 41.1344 372.341 24.4786 374.447 3.49056L374.715 0.815853L375.082 4.47175C377.132 24.9028 393.989 41.133 415.4 43.2908V43.2908V43.2908C394.045 45.1118 377.056 61.132 374.913 81.4678L374.715 83.3411L374.621 82.4501C372.419 61.5561 354.937 45.1108 332.991 43.2908V43.2908Z" fill="#251F21"/>
<defs>
<clipPath id="clip0_61_344">
<path d="M-0.000366211 1.67337e-05C213.658 7.49192e-06 386.863 173.205 386.863 386.864L386.863 714.74V714.74C173.204 714.74 -0.00034229 541.535 -0.000351728 327.876L-0.000366211 1.67337e-05V1.67337e-05Z" fill="white"/>
</clipPath>
</defs>
</svg>
